<svg xmlns="http://www.w3.org/2000/svg" xmlns:xlink="http://www.w3.org/1999/xlink" width="120.328" height="120.328" viewBox="0 0 120.328 120.328"><defs><style>.a{fill:url(#a);}.b{fill:url(#b);}.c{fill:url(#g);}.d{fill:url(#i);}.e{fill:url(#m);}.f{fill:url(#n);}.g{fill:url(#o);}.h{fill:url(#p);}.i{fill:url(#q);}.j{fill:url(#r);}.k{fill:url(#s);}.l{fill:url(#t);}.m{fill:url(#u);}.n{fill:#3c2415;}</style><linearGradient id="a" y1="0.5" x2="1" y2="0.5" gradientUnits="objectBoundingBox"><stop offset="0" stop-color="#a47a1e"/><stop offset="0.228" stop-color="#d3a84c"/><stop offset="0.414" stop-color="#ffec94"/><stop offset="0.586" stop-color="#e6be69"/><stop offset="0.772" stop-color="#ffd87c"/><stop offset="1" stop-color="#956d13"/><stop offset="1" stop-color="#b58f3e"/></linearGradient><linearGradient id="b" y1="0.5" x2="1" y2="0.5" gradientUnits="objectBoundingBox"><stop offset="0" stop-color="#ffd87c"/><stop offset="0.5" stop-color="#ffec94"/><stop offset="1" stop-color="#e6be69"/></linearGradient><linearGradient id="g" x1="0.149" y1="0.149" x2="0.844" y2="0.844" gradientUnits="objectBoundingBox"><stop offset="0" stop-color="#492001"/><stop offset="1" stop-color="#281201"/></linearGradient><linearGradient id="i" x1="0" y1="0.5" x2="1" y2="0.5" xlink:href="#g"/><linearGradient id="m" x1="0.007" y1="0.81" x2="0.451" y2="0.321" xlink:href="#b"/><linearGradient id="n" x1="1.411" y1="1.396" x2="0.372" y2="0.474" xlink:href="#g"/><linearGradient id="o" x1="1.329" y1="1.15" x2="0.152" y2="0.227" xlink:href="#g"/><linearGradient id="p" x1="1.008" y1="0.927" x2="-0.068" y2="0.025" xlink:href="#g"/><linearGradient id="q" x1="0.881" y1="0.688" x2="-0.158" y2="-0.234" xlink:href="#g"/><linearGradient id="r" x1="1.411" y1="1.396" x2="0.372" y2="0.474" gradientUnits="objectBoundingBox"><stop offset="0" stop-color="#956d13"/><stop offset="0.5" stop-color="#e6be69"/><stop offset="1" stop-color="#ffec94"/></linearGradient><linearGradient id="s" x1="1.329" y1="1.15" x2="0.152" y2="0.227" xlink:href="#r"/><linearGradient id="t" x1="1.008" y1="0.927" x2="-0.068" y2="0.025" xlink:href="#r"/><linearGradient id="u" x1="0.881" y1="0.688" x2="-0.158" y2="-0.234" xlink:href="#r"/></defs><g transform="translate(0)"><path class="a" d="M169.02,1536.418l5.854,4.54a22.564,22.564,0,0,0,16.889,4.526l7.339-1.005,2.8,6.858a22.565,22.565,0,0,0,12.364,12.364l6.858,2.8-1,7.34a22.563,22.563,0,0,0,4.526,16.889l4.54,5.853-4.54,5.854a22.564,22.564,0,0,0-4.526,16.89l1,7.339-6.858,2.8a22.567,22.567,0,0,0-12.364,12.364l-2.8,6.859-7.339-1.005a22.565,22.565,0,0,0-16.889,4.526l-5.854,4.54-5.853-4.54a22.565,22.565,0,0,0-16.89-4.526l-7.339,1.005-2.8-6.859a22.568,22.568,0,0,0-12.364-12.364l-6.859-2.8,1-7.339a22.561,22.561,0,0,0-4.526-16.89l-4.54-5.854,4.54-5.853a22.561,22.561,0,0,0,4.526-16.889l-1-7.34,6.859-2.8a22.566,22.566,0,0,0,12.364-12.364l2.8-6.858,7.339,1.005a22.564,22.564,0,0,0,16.89-4.526Z" transform="translate(-108.856 -1536.418)"/><path class="b" d="M114.48,1592.294a22.564,22.564,0,0,0,4.526-16.89l-1-7.339,6.859-2.8a22.564,22.564,0,0,0,12.364-12.364l2.8-6.859,7.339,1.005a22.564,22.564,0,0,0,16.889-4.525l5.853-4.54,5.853,4.54a22.564,22.564,0,0,0,16.889,4.525l6.918-.947-.663-1.623-7.339,1.005a22.564,22.564,0,0,1-16.889-4.526l-5.854-4.54-5.853,4.54a22.564,22.564,0,0,1-16.89,4.526l-7.339-1.005-2.8,6.858a22.566,22.566,0,0,1-12.364,12.364l-6.859,2.8,1,7.34a22.561,22.561,0,0,1-4.526,16.889l-4.54,5.853,1.149,1.482Z" transform="translate(-108.856 -1536.418)"/><path class="b" d="M451.76,1697.974l3.391,4.372.065-.084-4.54-5.853c-.068-.088-.13-.179-.2-.267Q451.071,1697.084,451.76,1697.974Z" transform="translate(-334.888 -1642.097)"/><path class="b" d="M402.994,1604.42l5.629,2.3.145-1.064-6.858-2.8a22.559,22.559,0,0,1-9.449-7.26A22.563,22.563,0,0,0,402.994,1604.42Z" transform="translate(-296.501 -1575.571)"/><path class="b" d="M128.3,1759.342l1.23.5.859-6.275a22.559,22.559,0,0,0-4.329-16.622A22.564,22.564,0,0,1,129.3,1752Z" transform="translate(-120.238 -1669.095)"/><path class="b" d="M186.992,1842.6a22.56,22.56,0,0,0-2.915-5.1,22.56,22.56,0,0,1,1.831,3.537l2.8,6.859.421-.058Z" transform="translate(-158.625 -1735.622)"/><path class="c" d="M199.4,1582.34a44.626,44.626,0,1,0,44.626,44.626A44.626,44.626,0,0,0,199.4,1582.34Zm0,85.946a41.32,41.32,0,1,1,41.321-41.321A41.32,41.32,0,0,1,199.4,1668.286Z" transform="translate(-139.239 -1566.802)"/><path d="M219.07,1714.1a41.327,41.327,0,0,0,34.8-63.608,41.325,41.325,0,0,1-70.052,43.852A41.294,41.294,0,0,0,219.07,1714.1Z" transform="translate(-158.454 -1611.897)"/><path d="M155.229,1627.688a44.631,44.631,0,0,1,82.211-24.069,44.631,44.631,0,1,0-75.622,47.416A44.414,44.414,0,0,1,155.229,1627.688Z" transform="translate(-139.239 -1566.802)"/><path class="a" d="M192.691,1572.194a48.059,48.059,0,1,0,48.059,48.059A48.059,48.059,0,0,0,192.691,1572.194Zm0,92.558a44.5,44.5,0,1,1,44.5-44.5A44.5,44.5,0,0,1,192.691,1664.752Z" transform="translate(-132.527 -1560.089)"/><g transform="translate(29.71 23.347)"><path class="d" d="M258,1605.42a48.058,48.058,0,0,1-61.341,73.995A48.058,48.058,0,1,0,258,1605.42Z" transform="translate(-196.663 -1605.42)"/></g><g transform="translate(12.105 12.105)"><path class="b" d="M212.76,1717.018a44.507,44.507,0,0,0,38.119-67.468,44.5,44.5,0,0,1-76.87,44.854A44.481,44.481,0,0,0,212.76,1717.018Z" transform="translate(-164.069 -1623.376)"/><path class="b" d="M145.264,1621.337a48.063,48.063,0,0,1,89.266-24.741,48.064,48.064,0,1,0-83.048,48.4A47.836,47.836,0,0,1,145.264,1621.337Z" transform="translate(-144.632 -1572.194)"/></g><circle class="a" cx="41.374" cy="41.374" r="41.374" transform="translate(18.79 18.79)"/><path class="e" d="M165.232,1634.168a41.371,41.371,0,0,1,70.2-29.673,41.371,41.371,0,1,0-58.5,58.5A41.237,41.237,0,0,1,165.232,1634.168Z" transform="translate(-145.599 -1573.161)"/></g><g transform="translate(33.881 31.875)"><g transform="translate(0.428 0.367)"><path class="f" d="M222.624,1638.649v.94c0,2.707-.827,4.436-2.67,5.3,2.218.864,3.083,2.857,3.083,5.639v2.143c0,4.061-2.143,6.241-6.279,6.241h-6.5V1632.6H216.5C220.782,1632.6,222.624,1634.588,222.624,1638.649Zm-8.234-2.293v6.955h1.617c1.541,0,2.481-.676,2.481-2.782v-1.466c0-1.88-.639-2.707-2.105-2.707Zm0,10.715v8.083h2.368c1.391,0,2.143-.64,2.143-2.594v-2.294c0-2.443-.79-3.195-2.669-3.195Z" transform="translate(-210.255 -1632.295)"/><path class="g" d="M258.388,1643.686h5.677v3.76h-5.677v7.708h7.143v3.759H254.252V1632.6H265.53v3.76h-7.143Z" transform="translate(-239.365 -1632.295)"/><path class="h" d="M298.341,1631.707c4.022,0,6.09,2.406,6.09,6.617v.827h-3.91v-1.09c0-1.88-.752-2.594-2.068-2.594s-2.068.715-2.068,2.594c0,5.414,8.083,6.428,8.083,13.948,0,4.21-2.105,6.617-6.166,6.617s-6.166-2.407-6.166-6.617v-1.617h3.91v1.879c0,1.88.827,2.557,2.143,2.557s2.143-.676,2.143-2.557c0-5.414-8.083-6.429-8.083-13.948C292.251,1634.113,294.319,1631.707,298.341,1631.707Z" transform="translate(-264.432 -1631.707)"/><path class="i" d="M330.914,1632.6H343.7v3.76h-4.323v22.557h-4.136v-22.557h-4.323Z" transform="translate(-290.088 -1632.295)"/></g><path class="j" d="M221.358,1637.566v.94c0,2.707-.827,4.436-2.669,5.3,2.218.864,3.083,2.857,3.083,5.639v2.143c0,4.061-2.143,6.241-6.278,6.241h-6.5v-26.317h6.241C219.516,1631.513,221.358,1633.505,221.358,1637.566Zm-8.233-2.294v6.955h1.616c1.541,0,2.481-.677,2.481-2.782v-1.466c0-1.879-.639-2.707-2.105-2.707Zm0,10.715v8.083h2.368c1.391,0,2.143-.639,2.143-2.594v-2.293c0-2.443-.789-3.2-2.669-3.2Z" transform="translate(-208.989 -1631.212)"/><path class="k" d="M257.121,1642.6H262.8v3.759h-5.677v7.708h7.143v3.76H252.986v-26.317h11.278v3.759h-7.143Z" transform="translate(-238.099 -1631.212)"/><path class="l" d="M297.076,1630.623c4.023,0,6.09,2.406,6.09,6.617v.827h-3.91v-1.09c0-1.88-.752-2.594-2.068-2.594s-2.068.714-2.068,2.594c0,5.414,8.083,6.429,8.083,13.948,0,4.21-2.1,6.617-6.165,6.617s-6.166-2.406-6.166-6.617v-1.617h3.91v1.88c0,1.88.827,2.557,2.143,2.557s2.143-.676,2.143-2.557c0-5.414-8.083-6.429-8.083-13.947C290.986,1633.029,293.053,1630.623,297.076,1630.623Z" transform="translate(-263.167 -1630.623)"/><path class="m" d="M329.647,1631.513h12.782v3.759h-4.324v22.557H333.97v-22.557h-4.324Z" transform="translate(-288.821 -1631.212)"/><g transform="translate(0.02 21.487)"><path class="n" d="M213.56,1714.613a4.967,4.967,0,0,1-1.231-.241,4.055,4.055,0,0,1-1.107-.57,5.007,5.007,0,0,1-.563-.475,3.958,3.958,0,0,1-.48-.556,5.735,5.735,0,0,1-.754-1.5,7.462,7.462,0,0,1-.342-1.645,8.25,8.25,0,0,1,.017-1.694,10.042,10.042,0,0,1,.325-1.653,9.32,9.32,0,0,1,.6-1.661,22.218,22.218,0,0,1,1.9-3.33,18.657,18.657,0,0,1,2.5-2.9q.391-.368.8-.705t.825-.684q.659-.511,1.349-.96t1.411-.836a3.911,3.911,0,0,1,.494-.2,4.778,4.778,0,0,0,.473-.182,8.583,8.583,0,0,1,1.337-.467,7.072,7.072,0,0,1,1.4-.22,5.919,5.919,0,0,1,1.263.1,2.658,2.658,0,0,1,1.138.529,2.841,2.841,0,0,1,.818.99,3.462,3.462,0,0,1,.344,1.234,5.6,5.6,0,0,1-.266,2.156,8.938,8.938,0,0,1-.922,1.968,19.045,19.045,0,0,1-1.137,1.608,7.116,7.116,0,0,1-1.4,1.36,6,6,0,0,1-.958.571,5.563,5.563,0,0,1-1.131.406,3.978,3.978,0,0,1-1.171.109,2.1,2.1,0,0,1-1.056-.344,1.681,1.681,0,0,1-.736-.917,3.092,3.092,0,0,1-.139-1.182,3.816,3.816,0,0,1,.293-1.21,5.175,5.175,0,0,1,.559-1.025,4.616,4.616,0,0,1,.969-.961,5.246,5.246,0,0,1,.494-.306,5.126,5.126,0,0,1,.813-.377,2.039,2.039,0,0,1,.75-.141q.328.013.327.4a.492.492,0,0,1-.114.308,1.072,1.072,0,0,1-.278.245q-.165.1-.34.194c-.117.061-.216.112-.3.153a4.448,4.448,0,0,0-.628.439,2.278,2.278,0,0,0-.485.583,1.986,1.986,0,0,0-.281.821,1.759,1.759,0,0,0,.089.832,1.381,1.381,0,0,0,.47.629,1.4,1.4,0,0,0,.862.25,2.194,2.194,0,0,0,.843-.212,4.29,4.29,0,0,0,.741-.439,6.253,6.253,0,0,0,1.424-1.555,5.987,5.987,0,0,0,.85-1.927,4.5,4.5,0,0,0,.107-1.16,3.065,3.065,0,0,0-.242-1.141,2.019,2.019,0,0,0-.766-.937,2.863,2.863,0,0,0-1.118-.416,4.031,4.031,0,0,0-1.253.005,5.842,5.842,0,0,0-1.172.3,9.178,9.178,0,0,0-2.729,1.7,14.825,14.825,0,0,0-3.657,4.895,16.758,16.758,0,0,0-1.007,2.718,12.84,12.84,0,0,0-.315,1.642q-.064.514-.076,1.016a5.665,5.665,0,0,0,.068,1.018,4.217,4.217,0,0,0,.405,1.347,2.926,2.926,0,0,0,.94,1.062,2.993,2.993,0,0,0,1.292.55,5.09,5.09,0,0,0,1.407.036,6.62,6.62,0,0,0,1.4-.312,13.089,13.089,0,0,0,1.307-.519,10.178,10.178,0,0,0,2.08-1.274,9.113,9.113,0,0,0,1.692-1.75,4.846,4.846,0,0,0,.29-.492,7.876,7.876,0,0,1,.413-.686,3.763,3.763,0,0,1,.465-.573.4.4,0,0,1,.463-.132.244.244,0,0,1,.194.217.678.678,0,0,1-.063.318,2.064,2.064,0,0,1-.176.318c-.069.1-.124.181-.165.235q-.269.41-.5.82a7.262,7.262,0,0,1-.517.8,9.788,9.788,0,0,1-.867,1.055q-.475.5-.949.971a14.6,14.6,0,0,1-2.34,1.921,11.663,11.663,0,0,1-2.707,1.324,6.168,6.168,0,0,1-1.254.282A7.028,7.028,0,0,1,213.56,1714.613Z" transform="translate(-209.047 -1694.126)"/><path class="n" d="M245.622,1721.067l-.164-.041a1.421,1.421,0,0,1-.185-.063,1.194,1.194,0,0,1-.756-.866,2.254,2.254,0,0,1,.149-1.14,6.136,6.136,0,0,1,.6-1.178q.372-.573.6-.983.476-.8,1.013-1.547a15.85,15.85,0,0,0,.993-1.567q.145-.287.332-.666a.859.859,0,0,0,.044-.729.325.325,0,0,0-.348-.228,1.616,1.616,0,0,0-.535.152,3.894,3.894,0,0,0-.546.306q-.258.174-.361.256a5.408,5.408,0,0,0-.959.941q-.424.532-.837,1.085-.145.206-.289.39a2.968,2.968,0,0,0-.269.41q-.5.778-1,1.526t-.982,1.526c-.1.151-.189.3-.279.441s-.176.29-.258.44a3.432,3.432,0,0,0-.27.585,1.983,1.983,0,0,1-.31.563l-.093.093-.093.092c-.028.014-.041.024-.041.031s-.014.017-.041.031a1.068,1.068,0,0,1-.226.061c-.082.013-.158.027-.226.04a6.14,6.14,0,0,1-.617.049c-.205.006-.411,0-.616-.013a2.076,2.076,0,0,1-.493-.063c-.068-.028-.106-.11-.112-.248a.624.624,0,0,1,.094-.369q.208-.368.4-.738t.424-.717q.7-1.106,1.4-2.212t1.375-2.233q.207-.327.393-.645t.393-.666q.414-.655.817-1.332t.817-1.373q.641-1.086,1.293-2.141t1.293-2.12a9.671,9.671,0,0,0,.663-1.21,2.778,2.778,0,0,0,.166-.4,3.806,3.806,0,0,0,.1-.4.46.46,0,0,1,.114-.277,1,1,0,0,1,.422-.049c.082,0,.188,0,.318-.009s.25-.016.359-.03q.473-.06.75-.089a4.078,4.078,0,0,1,.421-.03.282.282,0,0,1,.185.042.265.265,0,0,1,.061.1,1.115,1.115,0,0,1-.065.811q-.187.4-.353.749a10.986,10.986,0,0,1-.682,1.168,4.926,4.926,0,0,0-.373.6q-.166.318-.352.6l-.806,1.239q-.393.6-.786,1.26a2.233,2.233,0,0,0-.217.348q-.093.185-.2.369a11.441,11.441,0,0,0-.682,1.086.118.118,0,0,0-.042.082.676.676,0,0,0,.1-.082l.082-.082a.73.73,0,0,0,.144-.091,1.4,1.4,0,0,1,.124-.092q.329-.245.69-.47a4.322,4.322,0,0,1,.731-.367,1.591,1.591,0,0,1,.483-.131q.257-.03.5-.07a2.542,2.542,0,0,1,.719.023,1.048,1.048,0,0,1,.615.331,1.464,1.464,0,0,1,.407.936,2.8,2.8,0,0,1-.158,1.016,5.249,5.249,0,0,1-.466.994q-.29.482-.5.871-.29.471-.569.912t-.568.911q-.228.349-.465.686t-.465.687a4.535,4.535,0,0,0-.383.707,1.492,1.492,0,0,0-.137.77.706.706,0,0,0,.565-.029,3.184,3.184,0,0,0,.5-.3q.226-.163.474-.347t.474-.368a13.914,13.914,0,0,0,1.733-1.841c.165-.205.327-.412.486-.624s.313-.433.465-.666a2.324,2.324,0,0,0,.217-.317.815.815,0,0,1,.238-.277.218.218,0,0,1,.226-.03.288.288,0,0,1,.143.165.52.52,0,0,1,.03.226.17.17,0,0,1-.114.153q-.331.512-.558.83t-.465.645q-.237.328-.361.471-.268.287-.516.583t-.516.583q-.083.1-.144.174c-.041.047-.09.1-.145.153q-.557.552-1.175,1.1a6.278,6.278,0,0,1-1.339.918,3.19,3.19,0,0,1-.792.243A1.987,1.987,0,0,1,245.622,1721.067Z" transform="translate(-228.497 -1700.467)"/><path class="n" d="M276.023,1735.131a2.528,2.528,0,0,1-1.127-.642,1.7,1.7,0,0,1-.529-1.173,4.111,4.111,0,0,1,.045-.811,7.331,7.331,0,0,1,.168-.811,5.654,5.654,0,0,1,.5-1.394,9.245,9.245,0,0,1,1.859-2.478q.638-.593,1.278-1.083.392-.307.835-.592a8.019,8.019,0,0,1,.916-.51,6.338,6.338,0,0,1,.967-.365,4.185,4.185,0,0,1,1.007-.16,3.189,3.189,0,0,1,1.129.169,1.638,1.638,0,0,1,.778.66,2.1,2.1,0,0,1,.343,1.4,8.882,8.882,0,0,1-.294,1.437,9.557,9.557,0,0,1-1.264,2.747,8.218,8.218,0,0,1-2.1,2.189,11.485,11.485,0,0,1-1.668.958,6.089,6.089,0,0,1-1.83.547,3.969,3.969,0,0,1-.5.008A1.813,1.813,0,0,1,276.023,1735.131Zm1.71-1.061a3.867,3.867,0,0,0,1.329-.94,11.7,11.7,0,0,0,1.022-1.269q.165-.226.3-.451c.089-.15.182-.3.279-.451q.351-.553.652-1.147t.57-1.189q.165-.43.312-.82a3.344,3.344,0,0,0,.188-.862,1.652,1.652,0,0,0-.07-.586.592.592,0,0,0-.378-.423.854.854,0,0,0-.72.12,4.488,4.488,0,0,0-.6.449q-.289.287-.578.542a5.766,5.766,0,0,0-.536.543,11.849,11.849,0,0,0-.991,1.208q-.455.634-.848,1.29a13.043,13.043,0,0,0-.642,1.178q-.29.6-.539,1.219a4.529,4.529,0,0,0-.219.76.919.919,0,0,0,.13.76.613.613,0,0,0,.41.227,1.337,1.337,0,0,0,.472,0A4.646,4.646,0,0,0,277.733,1734.07Z" transform="translate(-252.262 -1714.626)"/><path class="n" d="M299.909,1724.613a1.3,1.3,0,0,1-.614-.5,1.722,1.722,0,0,1-.244-.668,3.184,3.184,0,0,1-.038-.709,4.294,4.294,0,0,1,.344-1.19q.259-.573.549-1.107a19.976,19.976,0,0,1,1.076-1.772q.578-.849,1.117-1.751.227-.348.444-.707a1.859,1.859,0,0,0,.26-.789c.014-.1.031-.2.053-.3a.482.482,0,0,1,.134-.256,1.078,1.078,0,0,1,.689-.265q.463-.039.75-.058c.1-.013.206-.023.329-.03a1.475,1.475,0,0,1,.349.022.691.691,0,0,1,.287.125.4.4,0,0,1,.143.3,1.379,1.379,0,0,1-.074.544,2.66,2.66,0,0,1-.249.533q-.155.257-.341.513c-.124.171-.227.325-.31.461q-.6.922-1.179,1.844t-1.138,1.884c-.028.055-.086.154-.176.3s-.186.307-.29.492-.2.376-.3.574a2.346,2.346,0,0,0-.2.554.705.705,0,0,0,.019.421.308.308,0,0,0,.317.165.952.952,0,0,0,.524-.111,2.564,2.564,0,0,0,.495-.337,4.554,4.554,0,0,0,.443-.44q.206-.236.372-.419a14.866,14.866,0,0,0,1-1.188q.465-.614.878-1.269c.042-.082.1-.205.166-.369s.145-.324.228-.482a1.278,1.278,0,0,1,.289-.379.335.335,0,0,1,.37-.06c.123.056.147.2.07.432a4,4,0,0,1-.425.84q-.31.491-.734,1.065t-.836,1.075q-.414.5-.733.87t-.423.471q-.248.246-.66.593a8.172,8.172,0,0,1-.876.644,3.63,3.63,0,0,1-.957.437A1.45,1.45,0,0,1,299.909,1724.613Zm6.011-12.957a1.009,1.009,0,0,1-.44-.423.966.966,0,0,1-.09-.648,1.729,1.729,0,0,1,.29-.656,2.135,2.135,0,0,1,.516-.532,1.2,1.2,0,0,1,.782-.264.849.849,0,0,1,.88.661,1.368,1.368,0,0,1,.008.554,2.053,2.053,0,0,1-.187.554,1.7,1.7,0,0,1-.351.471,1.515,1.515,0,0,1-.464.306,1.142,1.142,0,0,1-.493.091A1.1,1.1,0,0,1,305.92,1711.656Z" transform="translate(-268.569 -1704.056)"/><path class="n" d="M316.117,1735.2a2.622,2.622,0,0,1-.954-.323,1.608,1.608,0,0,1-.685-.732,2.51,2.51,0,0,1-.222-.946,4.543,4.543,0,0,1,.065-.965,6.417,6.417,0,0,1,.292-1.046,11.1,11.1,0,0,1,.849-1.691,9.067,9.067,0,0,1,1.157-1.505,18.354,18.354,0,0,1,1.4-1.329,8.482,8.482,0,0,1,1.607-1.082,5.889,5.889,0,0,1,.946-.386,5.729,5.729,0,0,1,1.727-.219c.1.014.208.028.339.042a2.389,2.389,0,0,1,.38.074,1.347,1.347,0,0,1,.338.145.651.651,0,0,1,.235.237,1.822,1.822,0,0,1,.122.309.67.67,0,0,1,0,.329,1.692,1.692,0,0,1-.29.625q-.207.276-.393.563c-.1.137-.2.287-.3.45a.449.449,0,0,1-.442.225.211.211,0,0,1-.195-.083.556.556,0,0,1-.071-.206.733.733,0,0,1,0-.246,1.414,1.414,0,0,0,.022-.226,3.527,3.527,0,0,0-.008-.6,1.2,1.2,0,0,0-.214-.575.522.522,0,0,0-.564-.228,1.678,1.678,0,0,0-.628.326,3.691,3.691,0,0,0-.567.563q-.259.317-.4.481a14.493,14.493,0,0,0-1.384,1.833q-.62.974-1.179,1.977a10.712,10.712,0,0,0-.456.984,2.025,2.025,0,0,0-.128,1.068.752.752,0,0,0,.439.7,1.586,1.586,0,0,0,.852.065,3.857,3.857,0,0,0,.946-.294,4.051,4.051,0,0,0,.721-.4q.226-.163.443-.348t.443-.368q.165-.163.34-.327t.34-.327q.186-.2.382-.4t.382-.4l.732-.808a6.5,6.5,0,0,0,.651-.85,4.53,4.53,0,0,0,.186-.421.561.561,0,0,1,.31-.317c.11-.054.192-.047.246.021a.31.31,0,0,1,.061.247.871.871,0,0,1-.135.4q-.114.174-.237.338-.331.471-.672.942a7.128,7.128,0,0,1-.754.88q-.722.736-1.475,1.462a18.559,18.559,0,0,1-1.577,1.36c-.165.123-.33.242-.494.357a2.192,2.192,0,0,1-.535.275c-.192.082-.381.156-.566.224a2.7,2.7,0,0,1-.607.141Z" transform="translate(-278.656 -1714.538)"/><path class="n" d="M338.4,1735.265a2.257,2.257,0,0,1-.985-.312,1.765,1.765,0,0,1-.8-.887,2.749,2.749,0,0,1-.17-1.14,4.705,4.705,0,0,1,.231-1.211,8.586,8.586,0,0,1,.426-1.076,11.577,11.577,0,0,1,1.4-2.367,8.929,8.929,0,0,1,2.011-1.912,8.1,8.1,0,0,1,1.575-.867,6.365,6.365,0,0,1,1.737-.455q.966-.1,1.251.436a1.9,1.9,0,0,1,.263,1.08,2.236,2.236,0,0,1-.323.984,3.584,3.584,0,0,1-.743.86,8.874,8.874,0,0,1-.989.736,8.526,8.526,0,0,1-1.06.581q-.535.244-.946.407-.473.183-.854.325a2.912,2.912,0,0,0-.669.347,2.034,2.034,0,0,0-.505.521,2.863,2.863,0,0,0-.363.83,1.942,1.942,0,0,0-.1.647,1.386,1.386,0,0,0,.141.586,1.033,1.033,0,0,0,.378.423,1.229,1.229,0,0,0,.656.156,2.083,2.083,0,0,0,.761-.141,3.372,3.372,0,0,0,.7-.367,5.474,5.474,0,0,0,.629-.5,6.915,6.915,0,0,0,.547-.562q.6-.654,1.166-1.35t1.064-1.414c.027-.04.079-.133.155-.276a3.424,3.424,0,0,1,.238-.389.47.47,0,0,1,.247-.2q.123-.031.184.258a.854.854,0,0,1-.178.708q-.258.358-.465.6-.537.656-1.043,1.351t-1.063,1.33a9.451,9.451,0,0,1-1.227,1.166,5.839,5.839,0,0,1-1.493.856,4.467,4.467,0,0,1-.874.233A3.152,3.152,0,0,1,338.4,1735.265Zm1.748-5.416a1.62,1.62,0,0,0,.36-.143l.237-.122a6.256,6.256,0,0,0,1.123-.838,8.617,8.617,0,0,0,.939-1.023,5.628,5.628,0,0,0,.475-.7,1.758,1.758,0,0,0,.25-.8.435.435,0,0,0-.091-.319.269.269,0,0,0-.3-.114,1.123,1.123,0,0,0-.494.3q-.248.235-.413.4c-.083.1-.165.188-.248.277s-.158.174-.227.256q-.331.409-.64.809t-.6.829c-.028.041-.086.13-.176.267a4.24,4.24,0,0,0-.248.43,1.252,1.252,0,0,0-.135.38C339.948,1729.838,340.01,1729.876,340.147,1729.849Z" transform="translate(-293.337 -1714.568)"/></g></g><g transform="translate(38.941 86.257)"><path class="n" d="M226.246,1792.733v.642c0,.79-.381,1.221-1.158,1.221h-.367v1.856h-.777v-4.941h1.143C225.865,1791.512,226.246,1791.942,226.246,1792.733Zm-1.524-.515v1.673h.367c.247,0,.381-.113.381-.466v-.741c0-.353-.134-.466-.381-.466Z" transform="translate(-223.945 -1791.456)"/><path class="n" d="M232.975,1796.453a1.517,1.517,0,0,1-.071-.607v-.776c0-.459-.155-.629-.508-.629h-.268v2.012h-.777v-4.941h1.172c.8,0,1.15.374,1.15,1.137v.388a.985.985,0,0,1-.508,1c.388.162.515.536.515,1.051v.762a1.456,1.456,0,0,0,.085.6Zm-.847-4.234v1.517h.3c.289,0,.466-.127.466-.523v-.487c0-.353-.12-.508-.4-.508Z" transform="translate(-228.846 -1791.456)"/><path class="n" d="M238.989,1792.588a1.18,1.18,0,1,1,2.357,0v2.569a1.18,1.18,0,1,1-2.357,0Zm.777,2.618c0,.353.155.487.4.487s.4-.134.4-.487v-2.668c0-.353-.155-.487-.4-.487s-.4.134-.4.487Z" transform="translate(-233.899 -1791.346)"/><path class="n" d="M246.877,1791.512H248.1c.777,0,1.158.431,1.158,1.221v2.5c0,.79-.381,1.221-1.158,1.221h-1.228Zm.776.706v3.528h.437c.247,0,.4-.127.4-.48V1792.7c0-.353-.148-.48-.4-.48Z" transform="translate(-239.118 -1791.456)"/><path class="n" d="M255.5,1791.512v3.811c0,.353.155.48.4.48s.4-.127.4-.48v-3.811h.734v3.762c0,.791-.4,1.242-1.157,1.242s-1.158-.452-1.158-1.242v-3.762Z" transform="translate(-244.308 -1791.456)"/><path class="n" d="M264.7,1794.5v.656c0,.791-.4,1.242-1.158,1.242s-1.158-.452-1.158-1.242v-2.569c0-.79.4-1.242,1.158-1.242s1.158.452,1.158,1.242v.48h-.734v-.53c0-.353-.155-.487-.4-.487s-.4.134-.4.487v2.668c0,.353.155.48.4.48s.4-.127.4-.48v-.706Z" transform="translate(-249.375 -1791.346)"/><path class="n" d="M269.391,1791.512h2.4v.706h-.812v4.234H270.2v-4.234h-.812Z" transform="translate(-254.014 -1791.456)"/><path class="n" d="M279.406,1792.588a1.18,1.18,0,1,1,2.357,0v2.569a1.18,1.18,0,1,1-2.357,0Zm.777,2.618c0,.353.155.487.4.487s.4-.134.4-.487v-2.668c0-.353-.155-.487-.4-.487s-.4.134-.4.487Z" transform="translate(-260.64 -1791.346)"/><path class="n" d="M288.07,1793.707h1v.706h-1v2.039h-.776v-4.941h2.054v.706H288.07Z" transform="translate(-265.859 -1791.456)"/><path class="n" d="M295.912,1791.512h2.4v.706H297.5v4.234h-.776v-4.234h-.811Z" transform="translate(-271.561 -1791.456)"/><path class="n" d="M304.22,1796.453h-.776v-4.941h.776v2.118h.883v-2.118h.79v4.941h-.79v-2.118h-.883Z" transform="translate(-276.545 -1791.456)"/><path class="n" d="M312.566,1793.594h1.066v.706h-1.066v1.447h1.341v.706H311.79v-4.941h2.117v.706h-1.341Z" transform="translate(-282.067 -1791.456)"/><path class="n" d="M321.807,1794.815l-.981-3.3h.812l.593,2.252.592-2.252h.741l-.981,3.3v1.637h-.776Z" transform="translate(-288.045 -1791.456)"/><path class="n" d="M330.052,1793.594h1.066v.706h-1.066v1.447h1.341v.706h-2.117v-4.941h2.117v.706h-1.341Z" transform="translate(-293.636 -1791.456)"/><path class="n" d="M338.5,1796.453h-.784l-.134-.9h-.953l-.134.9h-.713l.79-4.941h1.136Zm-1.772-1.567h.748l-.374-2.5Z" transform="translate(-297.944 -1791.456)"/><path class="n" d="M345.943,1796.453a1.517,1.517,0,0,1-.071-.607v-.776c0-.459-.155-.629-.508-.629H345.1v2.012h-.777v-4.941h1.172c.8,0,1.15.374,1.15,1.137v.388a.985.985,0,0,1-.508,1c.388.162.515.536.515,1.051v.762a1.456,1.456,0,0,0,.085.6Zm-.847-4.234v1.517h.3c.289,0,.466-.127.466-.523v-.487c0-.353-.12-.508-.4-.508Z" transform="translate(-303.59 -1791.456)"/></g><rect class="n" width="59.213" height="0.846" transform="translate(31.009 80.642)"/></svg>