<svg xmlns="http://www.w3.org/2000/svg" xmlns:xlink="http://www.w3.org/1999/xlink" width="112.219" height="112.221" viewBox="0 0 112.219 112.221"><defs><style>.a{fill:url(#a);}.b,.bm,.bq{mix-blend-mode:multiply;}.b,.bm,.bo,.bp,.bq,.bs,.bt,.d,.v,.w,.x{isolation:isolate;}.b{fill:url(#b);}.c{fill:url(#c);}.d{opacity:0.84;}.bs,.bt,.d,.v{mix-blend-mode:overlay;}.ce,.e,.f,.g,.h,.i,.j,.k,.l,.m,.n,.o,.p,.q,.r,.s,.t,.u{fill:#fff;}.e{opacity:0;}.f{opacity:0.063;}.g{opacity:0.125;}.h{opacity:0.188;}.cd,.i{opacity:0.25;}.j{opacity:0.313;}.k{opacity:0.375;}.l{opacity:0.438;}.m{opacity:0.5;}.n{opacity:0.563;}.o{opacity:0.625;}.p{opacity:0.688;}.q{opacity:0.75;}.r{opacity:0.813;}.s{opacity:0.875;}.t{opacity:0.938;}.v{opacity:0.7;}.bo,.bp,.w,.x{mix-blend-mode:color-dodge;}.w{fill:url(#d);}.x{fill:url(#e);}.y{fill:url(#f);}.z{fill:url(#g);}.aa{fill:url(#h);}.ab{fill:url(#i);}.ac{fill:url(#j);}.ad{fill:url(#k);}.ae{fill:url(#l);}.af{fill:url(#m);}.ag{fill:url(#n);}.ah{fill:url(#o);}.ai{fill:url(#p);}.aj{fill:url(#q);}.ak{fill:url(#r);}.al{fill:url(#s);}.am{fill:url(#t);}.an{fill:url(#u);}.ao{fill:url(#v);}.ap{fill:url(#w);}.aq{fill:url(#x);}.ar{fill:url(#y);}.as{fill:url(#z);}.at{fill:url(#aa);}.au{fill:url(#ab);}.av{fill:url(#ac);}.aw{fill:url(#ad);}.ax{fill:url(#ae);}.ay{fill:url(#af);}.az{fill:url(#ag);}.ba{fill:url(#ah);}.bb{fill:url(#ai);}.bc{fill:url(#aj);}.bd{fill:url(#ak);}.be{fill:url(#al);}.bf{fill:url(#am);}.bg{fill:url(#an);}.bh{fill:url(#ao);}.bi{fill:url(#ap);}.bj{fill:url(#aq);}.bk{fill:url(#ar);}.bl{fill:url(#as);}.bm{fill:url(#at);}.bn{fill:url(#au);}.bo{fill:url(#av);}.bp{fill:url(#aw);}.bq{fill:url(#ax);}.br{fill:url(#ay);}.bs{opacity:0.92;}.bt{opacity:0.61;}.bu{fill:url(#az);}.bv{fill:url(#ba);}.bw{fill:url(#bd);}.bx{fill:url(#be);}.by{fill:url(#bf);}.bz{fill:url(#bh);}.ca{fill:url(#bi);}.cb{fill:url(#bj);}.cc{fill:url(#bk);}.cd{fill:#d2d2d2;}.ce{opacity:0.13;}</style><linearGradient id="a" x1="0.849" y1="0.191" x2="-0.186" y2="1.107" gradientUnits="objectBoundingBox"><stop offset="0" stop-color="#c97100"/><stop offset="0.121" stop-color="#fedb56"/><stop offset="0.17" stop-color="#fedb56"/><stop offset="0.303" stop-color="#fedb56"/><stop offset="0.334" stop-color="#dcb648"/><stop offset="0.378" stop-color="#b18837"/><stop offset="0.4" stop-color="#a17631"/><stop offset="0.543" stop-color="#b28636"/><stop offset="0.827" stop-color="#e0af43"/><stop offset="1" stop-color="#ffcc4d"/></linearGradient><linearGradient id="b" y1="0.5" x2="1" y2="0.5" gradientUnits="objectBoundingBox"><stop offset="0.048" stop-color="#4a1904"/><stop offset="0.084" stop-color="#522007"/><stop offset="0.139" stop-color="#683511"/><stop offset="0.207" stop-color="#8b5622"/><stop offset="0.248" stop-color="#a56e2e"/><stop offset="0.309" stop-color="#dba63e"/><stop offset="0.353" stop-color="#d6a94d"/><stop offset="0.418" stop-color="#d1ad5f"/><stop offset="0.709" stop-color="#4d2006"/><stop offset="0.75" stop-color="#5e310d"/><stop offset="0.83" stop-color="#8c5d1f"/><stop offset="0.942" stop-color="#d6a43c"/><stop offset="1" stop-color="#ffcc4d"/></linearGradient><linearGradient id="c" x1="1.035" y1="-0.618" x2="1.747" y2="0.629" gradientUnits="objectBoundingBox"><stop offset="0" stop-color="#dbbb72"/><stop offset="0.034" stop-color="#dec379"/><stop offset="0.085" stop-color="#e0c67c"/><stop offset="0.188" stop-color="#cf9e41"/><stop offset="0.206" stop-color="#d8b05d"/><stop offset="0.232" stop-color="#e2c77e"/><stop offset="0.258" stop-color="#ebd897"/><stop offset="0.286" stop-color="#f1e5aa"/><stop offset="0.314" stop-color="#f4ecb5"/><stop offset="0.345" stop-color="#f6efb9"/><stop offset="0.355" stop-color="#ebdfa8"/><stop offset="0.4" stop-color="#bd975d"/><stop offset="0.432" stop-color="#a16b2e"/><stop offset="0.448" stop-color="#965a1c"/><stop offset="0.508" stop-color="#ae7427"/><stop offset="0.595" stop-color="#cb9334"/><stop offset="0.686" stop-color="#e2ac3f"/><stop offset="0.78" stop-color="#f2be47"/><stop offset="0.881" stop-color="#fbc84b"/><stop offset="1" stop-color="#ffcc4d"/></linearGradient><radialGradient id="d" cx="0.5" cy="0.5" r="0.552" gradientTransform="matrix(0.742, 0.746, -0.226, 0.181, 3.507, 0.084)" gradientUnits="objectBoundingBox"><stop offset="0" stop-color="#fff7eb"/><stop offset="0.015" stop-color="#f3ebe0"/><stop offset="0.092" stop-color="#bbb5ac"/><stop offset="0.172" stop-color="#89847e"/><stop offset="0.253" stop-color="#5f5c57"/><stop offset="0.334" stop-color="#3c3a37"/><stop offset="0.417" stop-color="#21201f"/><stop offset="0.501" stop-color="#0f0e0d"/><stop offset="0.587" stop-color="#030303"/><stop offset="0.679"/><stop offset="1"/></radialGradient><radialGradient id="e" cx="0.47" cy="0.638" r="0.971" gradientTransform="matrix(0.42, 0.412, -0.051, 0.247, 5.928, 30.372)" gradientUnits="objectBoundingBox"><stop offset="0" stop-color="#fff7eb"/><stop offset="0.035" stop-color="#e8e1d6"/><stop offset="0.15" stop-color="#a29d96"/><stop offset="0.259" stop-color="#686560"/><stop offset="0.358" stop-color="#3b3936"/><stop offset="0.446" stop-color="#1a1a18"/><stop offset="0.52" stop-color="#070606"/><stop offset="0.57"/><stop offset="1"/></radialGradient><linearGradient id="f" x1="852.266" y1="136.957" x2="843.4" y2="171.206" gradientUnits="objectBoundingBox"><stop offset="0" stop-color="#b56100"/><stop offset="0.026" stop-color="#b96804"/><stop offset="0.066" stop-color="#c57e10"/><stop offset="0.115" stop-color="#d8a224"/><stop offset="0.156" stop-color="#ebc538"/><stop offset="0.17" stop-color="#dcab26"/><stop offset="0.188" stop-color="#d09518"/><stop offset="0.208" stop-color="#c6840d"/><stop offset="0.233" stop-color="#bf7805"/><stop offset="0.268" stop-color="#bc7101"/><stop offset="0.366" stop-color="#bb7000"/><stop offset="0.483" stop-color="#bc7302"/><stop offset="0.586" stop-color="#c27e09"/><stop offset="0.684" stop-color="#cc9015"/><stop offset="0.754" stop-color="#d6a221"/><stop offset="0.879" stop-color="#d59e0a"/><stop offset="1" stop-color="#ffe75f"/></linearGradient><linearGradient id="g" x1="858.89" y1="165.88" x2="850.023" y2="200.125" xlink:href="#f"/><linearGradient id="h" x1="842.18" y1="198.339" x2="833.217" y2="231.33" xlink:href="#f"/><linearGradient id="i" x1="852.689" y1="225.571" x2="843.712" y2="258.577" xlink:href="#f"/><linearGradient id="j" x1="842.396" y1="258.683" x2="833.107" y2="291.286" xlink:href="#f"/><linearGradient id="k" x1="858.092" y1="283.883" x2="848.762" y2="316.491" xlink:href="#f"/><linearGradient id="l" x1="774.786" y1="320.277" x2="765.793" y2="353.281" xlink:href="#f"/><linearGradient id="m" x1="794.584" y1="346.241" x2="785.591" y2="379.279" xlink:href="#f"/><linearGradient id="n" x1="718.178" y1="386.934" x2="709.285" y2="421.249" xlink:href="#f"/><linearGradient id="o" x1="738.897" y1="411.681" x2="730.04" y2="445.985" xlink:href="#f"/><linearGradient id="p" x1="670.707" y1="417.121" x2="661.73" y2="450.145" xlink:href="#f"/><linearGradient id="q" x1="696.61" y1="438.469" x2="687.636" y2="471.526" xlink:href="#f"/><linearGradient id="r" x1="633.028" y1="447.789" x2="623.733" y2="480.36" xlink:href="#f"/><linearGradient id="s" x1="661.77" y1="464.539" x2="652.467" y2="497.132" xlink:href="#f"/><linearGradient id="t" x1="544.114" y1="480.341" x2="535.155" y2="513.399" xlink:href="#f"/><linearGradient id="u" x1="574.685" y1="495.289" x2="565.728" y2="528.384" xlink:href="#f"/><linearGradient id="v" x1="470.08" y1="516.063" x2="461.249" y2="550.337" xlink:href="#f"/><linearGradient id="w" x1="501.851" y1="526.472" x2="492.992" y2="560.809" xlink:href="#f"/><linearGradient id="x" x1="407" y1="502.658" x2="398.048" y2="535.688" xlink:href="#f"/><linearGradient id="y" x1="440.296" y1="509.976" x2="431.326" y2="543.091" xlink:href="#f"/><linearGradient id="z" x1="352.578" y1="492.348" x2="343.276" y2="524.98" xlink:href="#f"/><linearGradient id="aa" x1="386.011" y1="493.844" x2="376.708" y2="526.506" xlink:href="#f"/><linearGradient id="ab" x1="273.572" y1="481.784" x2="264.611" y2="514.759" xlink:href="#f"/><linearGradient id="ac" x1="305.967" y1="480.369" x2="296.999" y2="513.424" xlink:href="#f"/><linearGradient id="ad" x1="208.634" y1="474.59" x2="199.781" y2="508.89" xlink:href="#f"/><linearGradient id="ae" x1="239.723" y1="466.782" x2="230.855" y2="501.035" xlink:href="#f"/><linearGradient id="af" x1="153.982" y1="423.542" x2="145.016" y2="456.747" xlink:href="#f"/><linearGradient id="ag" x1="184.576" y1="411.732" x2="175.595" y2="444.708" xlink:href="#f"/><linearGradient id="ah" x1="107.779" y1="372.61" x2="98.479" y2="405.198" xlink:href="#f"/><linearGradient id="ai" x1="136.919" y1="360.172" x2="127.592" y2="392.839" xlink:href="#f"/><linearGradient id="aj" x1="61.932" y1="326.565" x2="52.965" y2="359.664" xlink:href="#f"/><linearGradient id="ak" x1="87.196" y1="309.53" x2="78.215" y2="342.558" xlink:href="#f"/><linearGradient id="al" x1="28.64" y1="277.958" x2="19.769" y2="312.274" xlink:href="#f"/><linearGradient id="am" x1="50.362" y1="256.761" x2="41.482" y2="290.937" xlink:href="#f"/><linearGradient id="an" x1="5.729" y1="204.349" x2="-3.245" y2="237.274" xlink:href="#f"/><linearGradient id="ao" x1="24.268" y1="183.16" x2="15.254" y2="216.188" xlink:href="#f"/><linearGradient id="ap" x1="-7.672" y1="136.69" x2="-16.989" y2="169.306" xlink:href="#f"/><linearGradient id="aq" x1="7.55" y1="113.807" x2="-1.765" y2="146.391" xlink:href="#f"/><linearGradient id="ar" x1="-9.142" y1="70.511" x2="-18.1" y2="103.474" xlink:href="#f"/><linearGradient id="as" x1="1.529" y1="46.553" x2="-7.43" y2="79.499" xlink:href="#f"/><linearGradient id="at" x1="0.849" y1="0.191" x2="-0.186" y2="1.107" gradientUnits="objectBoundingBox"><stop offset="0" stop-color="#c97100"/><stop offset="0.121" stop-color="#fedb56"/><stop offset="0.17" stop-color="#fedb56"/><stop offset="0.23" stop-color="#fedb56"/><stop offset="0.284" stop-color="#dcb648"/><stop offset="0.361" stop-color="#b18837"/><stop offset="0.4" stop-color="#a17631"/><stop offset="0.543" stop-color="#b28636"/><stop offset="0.827" stop-color="#e0af43"/><stop offset="1" stop-color="#ffcc4d"/></linearGradient><linearGradient id="au" x1="1.292" y1="-0.839" x2="2.003" y2="0.408" xlink:href="#c"/><radialGradient id="av" cx="0.534" cy="0.43" r="0.717" gradientTransform="matrix(0.611, 0.531, -0.104, 0.23, 4.527, 6.943)" xlink:href="#d"/><radialGradient id="aw" cx="0.459" cy="0.607" r="0.774" gradientTransform="matrix(0.525, 0.525, -0.088, 0.231, 6.74, 26.261)" xlink:href="#e"/><linearGradient id="ax" x1="1.199" y1="-0.527" x2="2.199" y2="-0.527" gradientUnits="objectBoundingBox"><stop offset="0.079" stop-color="#4a1904"/><stop offset="0.114" stop-color="#522009"/><stop offset="0.17" stop-color="#683617"/><stop offset="0.238" stop-color="#8b592f"/><stop offset="0.265" stop-color="#9c693a"/><stop offset="0.28" stop-color="#9f6d3c"/><stop offset="0.404" stop-color="#ba904f"/><stop offset="0.506" stop-color="#cba55a"/><stop offset="0.573" stop-color="#d1ad5f"/><stop offset="0.836" stop-color="#4d2006"/><stop offset="0.86" stop-color="#5e2f0d"/><stop offset="0.907" stop-color="#8c5622"/><stop offset="0.915" stop-color="#955e26"/><stop offset="0.946" stop-color="#946029"/><stop offset="0.97" stop-color="#916632"/><stop offset="0.991" stop-color="#8c7142"/><stop offset="1" stop-color="#8a784d"/></linearGradient><radialGradient id="ay" cx="0.504" cy="0.225" r="1.02" gradientTransform="translate(0)" gradientUnits="objectBoundingBox"><stop offset="0" stop-color="#004d96"/><stop offset="0.002" stop-color="#004c96"/><stop offset="0.17" stop-color="#004796"/><stop offset="0.244" stop-color="#004096"/><stop offset="0.382" stop-color="#003896"/><stop offset="0.423" stop-color="#00338d"/><stop offset="0.49" stop-color="#002775"/><stop offset="0.573" stop-color="#00144f"/><stop offset="0.648" stop-color="#000026"/></radialGradient><linearGradient id="az" x1="0.5" x2="0.5" y2="1" gradientUnits="objectBoundingBox"><stop offset="0" stop-color="#dbbb72"/><stop offset="0" stop-color="#d5ae5c"/><stop offset="0" stop-color="#d1a54d"/><stop offset="0" stop-color="#cf9f43"/><stop offset="0" stop-color="#cf9e41"/><stop offset="0.02" stop-color="#d6af5b"/><stop offset="0.04" stop-color="#dbbc6d"/><stop offset="0.061" stop-color="#dec378"/><stop offset="0.085" stop-color="#e0c67c"/><stop offset="0.345" stop-color="#f6efb9"/><stop offset="0.359" stop-color="#ebdfa8"/><stop offset="0.423" stop-color="#bd975d"/><stop offset="0.468" stop-color="#a16b2e"/><stop offset="0.491" stop-color="#965a1c"/><stop offset="0.546" stop-color="#ae7427"/><stop offset="0.626" stop-color="#cb9334"/><stop offset="0.71" stop-color="#e2ac3f"/><stop offset="0.797" stop-color="#f2be47"/><stop offset="0.89" stop-color="#fbc84b"/><stop offset="1" stop-color="#ffcc4d"/></linearGradient><linearGradient id="ba" x1="0.5" y1="0" x2="0.5" y2="1" xlink:href="#az"/><linearGradient id="bd" x1="0.5" x2="0.5" y2="1" gradientUnits="objectBoundingBox"><stop offset="0.218" stop-color="#ffffdb"/><stop offset="0.292" stop-color="#faf7ca"/><stop offset="0.394" stop-color="#f6efb9"/><stop offset="0.408" stop-color="#f9ebaa"/><stop offset="0.43" stop-color="#ffe899"/><stop offset="0.576" stop-color="#e0c67c"/><stop offset="0.964" stop-color="#f7f3aa"/><stop offset="0.988" stop-color="#e1b65e"/><stop offset="1" stop-color="#d89d3f"/><stop offset="1" stop-color="#a36a25"/></linearGradient><linearGradient id="be" x1="0.5" y1="0" x2="0.5" y2="1" xlink:href="#bd"/><linearGradient id="bf" x1="0.5" y1="0" x2="0.5" y2="1" xlink:href="#bd"/><linearGradient id="bh" x1="-0.794" y1="6.986" x2="-1.565" y2="8.258" gradientUnits="objectBoundingBox"><stop offset="0" stop-color="#dbbb72"/><stop offset="0.034" stop-color="#dec379"/><stop offset="0.085" stop-color="#e0c67c"/><stop offset="0.188" stop-color="#cf9e41"/><stop offset="0.226" stop-color="#d8b05d"/><stop offset="0.28" stop-color="#e2c77e"/><stop offset="0.335" stop-color="#ebd897"/><stop offset="0.392" stop-color="#f1e5aa"/><stop offset="0.451" stop-color="#f4ecb5"/><stop offset="0.517" stop-color="#f6efb9"/><stop offset="0.58" stop-color="#f9e08d"/><stop offset="0.655" stop-color="#fdd15f"/><stop offset="0.693" stop-color="#ffcc4d"/><stop offset="1" stop-color="#965a1c"/></linearGradient><linearGradient id="bi" x1="-1.704" y1="10.085" x2="-2.793" y2="11.579" xlink:href="#bh"/><linearGradient id="bj" x1="-30.093" y1="0.092" x2="-30.864" y2="1.364" xlink:href="#bh"/><linearGradient id="bk" x1="-46.474" y1="-0.462" x2="-47.562" y2="1.032" xlink:href="#bh"/></defs><g transform="translate(0 0)"><path class="a" d="M241.488,156.887a56.1,56.1,0,1,1-20.925-76.53A56.095,56.095,0,0,1,241.488,156.887Z" transform="translate(-136.651 -72.977)"/><path class="b" d="M216.537,81.621a52.224,52.224,0,1,0,19.481,71.238A52.229,52.229,0,0,0,216.537,81.621ZM170.57,162.2a40.541,40.541,0,1,1,55.3-15.121A40.545,40.545,0,0,1,170.57,162.2Z" transform="translate(-134.545 -70.873)"/><path class="c" d="M219.007,80.845a54.6,54.6,0,1,0,20.366,74.485A54.607,54.607,0,0,0,219.007,80.845Zm-48.622,85.229a43.518,43.518,0,1,1,59.359-16.236A43.519,43.519,0,0,1,170.386,166.074Z" transform="translate(-135.836 -72.163)"/><g class="d" transform="translate(91.579 31.129)"><path class="e" d="M178.747,138.338c-1.613-.26,7.812-7.062,7.025-27.55-.649-16.994-7.932-24.019-6.372-23.543,4.416,1.344,8.854,11.494,9.484,24.144C189.5,124.043,181.629,138.8,178.747,138.338Z" transform="translate(-178.561 -87.223)"/><path class="f" d="M178.943,137c-1.538-.184,7.4-6.8,6.647-26.667-.625-16.539-7.545-23.149-6.038-22.7,4.171,1.239,8.4,11.175,8.99,23.324C189.117,123.33,181.707,137.323,178.943,137Z" transform="translate(-178.32 -86.769)"/><path class="g" d="M179.136,135.653c-1.46-.109,6.992-6.536,6.274-25.785-.6-16.083-7.161-22.282-5.7-21.86,3.925,1.134,7.943,10.856,8.494,22.5C188.735,122.618,181.793,135.849,179.136,135.653Z" transform="translate(-178.08 -86.316)"/><path class="h" d="M179.331,134.31c-1.383-.035,6.584-6.271,5.9-24.9-.57-15.624-6.774-21.41-5.367-21.017,3.684,1.029,7.493,10.537,8,21.683C188.353,121.9,181.879,134.373,179.331,134.31Z" transform="translate(-177.84 -85.862)"/><path class="i" d="M179.523,132.965c-1.3.039,6.177-6,5.524-24.019-.548-15.167-6.394-20.543-5.032-20.175,3.435.926,7.062,10.218,7.506,20.864C188,121.189,181.969,132.893,179.523,132.965Z" transform="translate(-177.6 -85.409)"/><path class="j" d="M179.719,131.619c-1.222.109,5.764-5.738,5.144-23.134-.522-14.713-6.007-19.673-4.7-19.332,3.19.826,6.612,9.9,7.012,20.04C187.623,120.475,182.064,131.409,179.719,131.619Z" transform="translate(-177.359 -84.954)"/><path class="k" d="M179.912,130.277c-1.138.177,5.358-5.474,4.768-22.253-.494-14.254-5.62-18.8-4.359-18.491,2.943.728,6.162,9.58,6.516,19.223C187.241,119.762,182.158,129.927,179.912,130.277Z" transform="translate(-177.119 -84.502)"/><path class="l" d="M180.105,128.934c-1.053.243,4.949-5.209,4.394-21.371-.472-13.8-5.24-17.933-4.027-17.649,2.7.634,5.708,9.261,6.022,18.4C186.864,119.049,182.258,128.438,180.105,128.934Z" transform="translate(-176.878 -84.049)"/><path class="m" d="M180.3,127.588c-.966.306,4.541-4.943,4.019-20.488-.446-13.338-4.858-17.062-3.689-16.8,2.445.538,5.253,8.939,5.526,17.579C186.484,118.336,182.363,126.941,180.3,127.588Z" transform="translate(-176.637 -83.594)"/><path class="n" d="M180.492,126.245c-.885.363,4.134-4.681,3.643-19.605-.422-12.881-4.473-16.192-3.356-15.962,2.2.448,4.8,8.62,5.035,16.76C186.1,117.623,182.465,125.439,180.492,126.245Z" transform="translate(-176.397 -83.141)"/><path class="o" d="M180.687,124.9c-.8.415,3.724-4.416,3.265-18.722-.4-12.427-4.091-15.322-3.022-15.121,1.947.361,4.346,8.3,4.541,15.941C185.721,116.912,182.564,123.928,180.687,124.9Z" transform="translate(-176.155 -82.687)"/><path class="p" d="M180.88,123.561c-.719.465,3.317-4.154,2.889-17.842-.369-11.968-3.708-14.448-2.683-14.28,1.693.28,3.89,7.984,4.042,15.121C185.337,116.2,182.656,122.409,180.88,123.561Z" transform="translate(-175.915 -82.235)"/><path class="q" d="M181.074,122.215c-.642.511,2.906-3.887,2.513-16.957-.345-11.511-3.328-13.574-2.351-13.436,1.442.2,3.435,7.663,3.551,14.3C184.953,115.484,182.746,120.879,181.074,122.215Z" transform="translate(-175.675 -81.78)"/><path class="r" d="M181.271,120.869c-.566.557,2.5-3.621,2.139-16.072-.321-11.055-2.948-12.7-2.015-12.6,1.182.131,2.974,7.344,3.055,13.478C184.57,114.771,182.824,119.342,181.271,120.869Z" transform="translate(-175.438 -81.326)"/><path class="s" d="M181.493,119.534c-.5.6,2.089-3.356,1.759-15.191-.291-10.6-2.546-11.944-1.678-11.752.909.2,2.515,7.025,2.561,12.659C184.2,114.064,182.914,117.812,181.493,119.534Z" transform="translate(-175.224 -80.88)"/><path class="t" d="M181.719,118.187c-.43.649,1.68-3.092,1.388-14.308-.269-10.141-2.179-11.02-1.346-10.91.669.087,2.045,6.708,2.067,11.837C183.834,113.349,182.995,116.268,181.719,118.187Z" transform="translate(-175.016 -80.423)"/><path class="u" d="M181.947,116.841c-.371.695,1.272-2.828,1.01-13.426-.243-9.685-1.8-10-1.01-10.069.422-.037,1.593,6.389,1.573,11.017C183.486,112.632,183.06,114.725,181.947,116.841Z" transform="translate(-174.81 -79.966)"/></g><g class="v" transform="translate(28.632 1.331)"><path class="e" d="M199.645,78.494c.885.843-11.717-4.622-27.5-2.919-18.419,1.988-23.117,6.783-22.3,5.181.7-1.379,9.32-5.775,23.066-6.988S198.817,77.7,199.645,78.494Z" transform="translate(-149.754 -73.586)"/><path class="f" d="M198.774,78.3c.881.8-11.5-4.451-27.021-2.8-17.925,1.912-22.345,6.479-21.583,4.943.656-1.311,9.136-5.511,22.337-6.662C185.963,72.619,197.915,77.515,198.774,78.3Z" transform="translate(-149.357 -73.569)"/><path class="g" d="M197.9,78.1c.878.76-11.284-4.279-26.536-2.683-17.433,1.833-21.58,6.173-20.868,4.7.6-1.246,8.95-5.244,21.609-6.339C185.264,72.672,197.016,77.331,197.9,78.1Z" transform="translate(-148.96 -73.553)"/><path class="h" d="M197.032,77.906c.874.721-11.068-4.106-26.054-2.565-16.939,1.757-20.809,5.865-20.151,4.466.553-1.178,8.767-4.978,20.879-6.013C184.566,72.725,196.114,77.146,197.032,77.906Z" transform="translate(-148.563 -73.536)"/><path class="i" d="M196.164,77.712c.863.68-10.854-3.938-25.573-2.452-16.445,1.683-20.04,5.561-19.437,4.23.5-1.112,8.583-4.711,20.151-5.688C183.868,72.78,195.212,76.963,196.164,77.712Z" transform="translate(-148.167 -73.519)"/><path class="j" d="M195.3,77.517c.854.64-10.637-3.765-25.092-2.334-15.951,1.606-19.273,5.255-18.72,3.992.457-1.045,8.4-4.445,19.424-5.365C183.17,72.832,194.31,76.779,195.3,77.517Z" transform="translate(-147.771 -73.503)"/><path class="k" d="M194.424,77.323c.846.6-10.421-3.595-24.609-2.218-15.46,1.527-18.5,4.949-18,3.754.406-.977,8.216-4.18,18.694-5.039C182.472,72.885,193.4,76.6,194.424,77.323Z" transform="translate(-147.374 -73.486)"/><path class="l" d="M193.554,77.131c.837.566-10.207-3.424-24.126-2.1-14.964,1.451-17.732,4.646-17.287,3.516.358-.907,8.028-3.935,17.964-4.713C181.773,72.918,192.5,76.418,193.554,77.131Z" transform="translate(-146.977 -73.473)"/><path class="m" d="M192.682,76.936c.826.529-9.988-3.251-23.641-1.984-14.474,1.377-16.963,4.344-16.572,3.28.31-.839,7.845-3.671,17.234-4.39C181.075,72.97,191.592,76.239,192.682,76.936Z" transform="translate(-146.58 -73.457)"/><path class="n" d="M191.814,76.743c.815.492-9.774-3.083-23.16-1.866-13.981,1.3-16.192,4.036-15.855,3.04.262-.771,7.661-3.4,16.507-4.067C180.376,73.024,190.686,76.061,191.814,76.743Z" transform="translate(-146.183 -73.441)"/><path class="o" d="M190.943,76.547c.8.459-9.558-2.911-22.677-1.75-13.487,1.224-15.423,3.737-15.139,2.806.214-.7,7.475-3.14,15.777-3.743C179.68,73.077,189.78,75.88,190.943,76.547Z" transform="translate(-145.786 -73.424)"/><path class="p" d="M190.072,76.351c.793.426-9.341-2.738-22.195-1.632-12.993,1.145-14.649,3.431-14.422,2.565.166-.634,7.292-2.871,15.047-3.415C178.982,73.13,188.87,75.706,190.072,76.351Z" transform="translate(-145.39 -73.407)"/><path class="q" d="M189.2,76.158a78.973,78.973,0,0,0-21.712-1.516c-12.5,1.071-13.878,3.129-13.707,2.329.122-.566,7.108-2.6,14.319-3.094C178.284,73.186,187.962,75.53,189.2,76.158Z" transform="translate(-144.993 -73.391)"/><path class="r" d="M188.333,75.961a80.02,80.02,0,0,0-21.229-1.4c-12.007.992-13.106,2.825-12.993,2.089.079-.494,6.927-2.334,13.592-2.766C177.587,73.241,187.055,75.358,188.333,75.961Z" transform="translate(-144.597 -73.374)"/><path class="s" d="M187.465,75.764a81.384,81.384,0,0,0-20.748-1.283c-11.516.916-12.329,2.524-12.276,1.853.035-.426,6.743-2.054,12.862-2.443C176.891,73.314,186.145,75.183,187.465,75.764Z" transform="translate(-144.201 -73.354)"/><path class="t" d="M186.6,75.567A83.449,83.449,0,0,0,166.331,74.4c-11.02.839-11.546,2.222-11.559,1.615-.007-.356,6.558-1.787,12.134-2.12C176.2,73.368,185.237,75.016,186.6,75.567Z" transform="translate(-143.807 -73.338)"/><path class="u" d="M185.729,75.373a85.289,85.289,0,0,0-19.782-1.049c-10.528.765-10.757,1.919-10.843,1.379-.044-.288,6.374-1.521,11.4-1.794C175.5,73.422,184.328,74.851,185.729,75.373Z" transform="translate(-143.413 -73.321)"/></g><g class="v" transform="translate(0.891 30.768)"><path class="e" d="M143.912,137.478c1.042.857-5.872-12.036-4.722-27.869,1.346-18.484,6.739-23.32,4.9-22.457-1.586.741-6.3,9.486-6.979,23.272S142.935,136.672,143.912,137.478Z" transform="translate(-137.059 -87.058)"/><path class="f" d="M143.671,136.579c.992.859-5.673-11.8-4.571-27.36,1.283-17.988,6.422-22.54,4.657-21.736-1.51.695-6,9.3-6.636,22.535C136.482,123.51,142.7,135.744,143.671,136.579Z" transform="translate(-137.04 -86.657)"/><path class="g" d="M143.431,135.683c.944.852-5.472-11.557-4.418-26.855,1.217-17.492,6.1-21.764,4.412-21.01-1.434.638-5.69,9.1-6.293,21.795C136.53,122.8,142.478,134.817,143.431,135.683Z" transform="translate(-137.023 -86.254)"/><path class="h" d="M143.191,134.784c.9.852-5.271-11.317-4.27-26.346,1.158-17,5.786-20.986,4.176-20.289-1.359.588-5.391,8.913-5.954,21.058C136.579,122.1,142.247,133.888,143.191,134.784Z" transform="translate(-137.006 -85.853)"/><path class="i" d="M142.95,133.886c.85.843-5.07-11.081-4.119-25.839,1.093-16.5,5.467-20.208,3.933-19.566-1.281.538-5.087,8.721-5.609,20.32C136.628,121.4,142.019,132.959,142.95,133.886Z" transform="translate(-136.988 -85.451)"/><path class="j" d="M142.711,132.985c.8.841-4.871-10.838-3.966-25.33,1.027-16.006,5.15-19.43,3.691-18.84-1.2.485-4.807,8.526-5.268,19.579C136.654,120.689,141.793,132.028,142.711,132.985Z" transform="translate(-136.972 -85.049)"/><path class="k" d="M142.47,132.087c.758.83-4.67-10.6-3.815-24.823.964-15.51,4.834-18.65,3.45-18.117-1.13.435-4.506,8.334-4.925,18.84C136.7,119.984,141.568,131.1,142.47,132.087Z" transform="translate(-136.954 -84.647)"/><path class="l" d="M142.227,131.189c.715.824-4.469-10.36-3.662-24.316.9-15.014,4.514-17.872,3.208-17.394-1.049.382-4.2,8.142-4.58,18.1C136.749,119.28,141.338,130.162,142.227,131.189Z" transform="translate(-136.936 -84.245)"/><path class="m" d="M141.989,130.292c.669.811-4.268-10.122-3.514-23.811.837-14.518,4.2-17.092,2.967-16.668-.97.332-3.9,7.95-4.239,17.363C136.8,118.575,141.111,129.227,141.989,130.292Z" transform="translate(-136.919 -83.843)"/><path class="n" d="M141.747,129.393c.629.8-4.067-9.881-3.361-23.3.774-14.022,3.883-16.312,2.725-15.947-.894.284-3.6,7.759-3.9,16.629C136.839,117.87,140.891,128.3,141.747,129.393Z" transform="translate(-136.902 -83.442)"/><path class="o" d="M141.506,128.495c.586.8-3.868-9.643-3.21-22.8.71-13.526,3.566-15.534,2.484-15.224-.815.234-3.293,7.567-3.553,15.89C136.889,117.167,140.665,127.359,141.506,128.495Z" transform="translate(-136.884 -83.041)"/><path class="p" d="M141.266,127.6c.546.78-3.667-9.4-3.059-22.288.649-13.03,3.251-14.752,2.244-14.5-.739.186-2.989,7.377-3.212,15.152C136.939,116.462,140.444,126.424,141.266,127.6Z" transform="translate(-136.866 -82.639)"/><path class="q" d="M141.025,126.7c.507.771-3.466-9.162-2.906-21.777.581-12.536,2.932-13.972,2-13.777-.66.138-2.683,7.183-2.869,14.411C136.989,115.755,140.223,125.483,141.025,126.7Z" transform="translate(-136.848 -82.236)"/><path class="r" d="M140.784,125.8c.47.756-3.265-8.924-2.758-21.272.52-12.038,2.622-13.187,1.761-13.052-.579.09-2.375,6.99-2.524,13.672C137.043,115.052,140.008,124.544,140.784,125.8Z" transform="translate(-136.83 -81.835)"/><path class="s" d="M140.545,124.9a71.659,71.659,0,0,1-2.607-20.763c.457-11.544,2.308-12.4,1.521-12.329-.5.046-2.071,6.8-2.185,12.934C137.1,114.347,139.793,123.6,140.545,124.9Z" transform="translate(-136.814 -81.433)"/><path class="t" d="M140.3,124a72.474,72.474,0,0,1-2.454-20.258c.393-11.048,1.991-11.612,1.278-11.605-.422,0-1.752,6.608-1.842,12.2C137.165,113.643,139.58,122.665,140.3,124Z" transform="translate(-136.795 -81.033)"/><path class="u" d="M140.06,123.108a73.794,73.794,0,0,1-2.3-19.749c.328-10.552,1.674-10.816,1.036-10.882-.343-.039-1.449,6.416-1.5,11.457C137.215,112.943,139.37,121.727,140.06,123.108Z" transform="translate(-136.777 -80.635)"/></g><g class="d" transform="translate(9.589 31.587)"><path class="e" d="M151.779,137.666c1.613-.258-7.834-8.061-7.6-27.126.2-17,8.706-23.558,7.141-23.084C146.9,88.8,141.7,98.491,141.072,111.141S148.9,138.129,151.779,137.666Z" transform="translate(-141.039 -87.432)"/><path class="f" d="M151.253,136.362c1.53-.179-7.423-7.731-7.191-26.268.205-16.548,8.271-22.719,6.759-22.269-4.171,1.235-9.121,10.742-9.7,22.892C140.537,123.1,148.506,136.685,151.253,136.362Z" transform="translate(-140.983 -86.993)"/><path class="g" d="M150.726,135.064c1.447-.1-7.012-7.408-6.776-25.413.208-16.091,7.838-21.88,6.374-21.458-3.927,1.132-8.618,10.454-9.164,22.1C140.624,122.4,148.117,135.247,150.726,135.064Z" transform="translate(-140.928 -86.556)"/><path class="h" d="M150.2,133.76c1.357-.116-6.606-7.078-6.37-24.557.212-15.632,7.405-21.036,6-20.643-3.686,1.029-8.118,10.163-8.623,21.31C140.71,121.7,147.726,133.975,150.2,133.76Z" transform="translate(-140.872 -86.118)"/><path class="i" d="M149.676,132.459c1.27-.066-6.195-6.752-5.957-23.7.212-15.176,6.973-20.2,5.609-19.83-3.439.924-7.615,9.875-8.078,20.518C140.794,121,147.318,132.581,149.676,132.459Z" transform="translate(-140.816 -85.68)"/><path class="j" d="M149.15,131.158c1.182.129-5.784-6.424-5.542-22.843.212-14.719,6.538-19.356,5.225-19.017-3.192.826-7.137,9.582-7.537,19.725C140.853,120.3,146.91,130.918,149.15,131.158Z" transform="translate(-140.761 -85.242)"/><path class="k" d="M148.625,129.857c1.09.2-5.375-6.1-5.133-21.989.219-14.26,6.107-18.515,4.845-18.2-2.943.725-6.639,9.291-6.995,18.934C140.935,119.606,146.5,129.468,148.625,129.857Z" transform="translate(-140.706 -84.804)"/><path class="l" d="M148.1,128.554c1,.269-4.965-5.769-4.72-21.13.221-13.8,5.675-17.676,4.46-17.389-2.7.631-6.14,9-6.453,18.143C141.017,118.908,146.089,128.012,148.1,128.554Z" transform="translate(-140.65 -84.366)"/><path class="m" d="M147.571,127.254c.907.332-4.554-5.445-4.3-20.278.221-13.345,5.242-16.832,4.075-16.574-2.447.538-5.638,8.71-5.911,17.35C141.1,118.212,145.67,126.555,147.571,127.254Z" transform="translate(-140.595 -83.928)"/><path class="n" d="M147.047,125.951c.813.393-4.145-5.118-3.9-19.419.225-12.886,4.81-15.989,3.7-15.761-2.2.448-5.137,8.419-5.369,16.559C141.186,117.516,145.251,125.083,147.047,125.951Z" transform="translate(-140.538 -83.489)"/><path class="o" d="M146.521,124.65c.721.448-3.734-4.79-3.483-18.563.225-12.429,4.377-15.147,3.311-14.949-1.947.361-4.637,8.129-4.827,15.768C141.271,116.818,144.839,123.6,146.521,124.65Z" transform="translate(-140.482 -83.051)"/><path class="p" d="M146,123.346c.631.5-3.328-4.462-3.072-17.706.229-11.97,3.949-14.3,2.926-14.133-1.693.277-4.13,7.838-4.285,14.975C141.36,116.12,144.434,122.114,146,123.346Z" transform="translate(-140.427 -82.613)"/><path class="q" d="M145.469,122.047c.548.546-2.915-4.136-2.659-16.852.234-11.513,3.52-13.458,2.543-13.321-1.44.2-3.625,7.547-3.743,14.184C141.444,115.422,144.036,120.616,145.469,122.047Z" transform="translate(-140.371 -82.175)"/><path class="r" d="M144.943,120.744c.465.594-2.5-3.809-2.246-15.993.232-11.057,3.09-12.61,2.159-12.51-1.184.131-3.12,7.259-3.2,13.393C141.534,114.724,143.656,119.11,144.943,120.744Z" transform="translate(-140.316 -81.738)"/><path class="s" d="M144.416,119.443c.393.64-2.1-3.481-1.835-15.139.236-10.6,2.659-11.756,1.779-11.695-.931.066-2.611,6.968-2.659,12.6C141.628,114.026,143.293,117.6,144.416,119.443Z" transform="translate(-140.258 -81.299)"/><path class="t" d="M143.891,118.141c.321.691-1.687-3.155-1.425-14.282.24-10.141,2.233-10.893,1.4-10.882-.677.009-2.1,6.68-2.117,11.809C141.736,113.329,142.938,116.1,143.891,118.141Z" transform="translate(-140.203 -80.861)"/><path class="u" d="M143.367,116.841c.253.745-1.276-2.828-1.012-13.426.24-9.685,1.8-10,1.012-10.069-.426-.037-1.6,6.389-1.575,11.017C141.824,112.632,142.6,114.612,143.367,116.841Z" transform="translate(-140.148 -80.423)"/></g><path class="w" d="M188.915,98.443c-.806.721-4.89-2.548-9.127-7.3s-7.014-9.184-6.208-9.9,4.893,2.55,9.125,7.3S189.721,97.726,188.915,98.443Z" transform="translate(-93.05 -63.299)"/><path class="x" d="M175.255,124.916c-.446.988-11.245-.2-17.042-2.825s-10.351-8.164-9.905-9.149,6.291,4.748,12.09,7.37S175.7,123.935,175.255,124.916Z" transform="translate(-122.872 -25.746)"/><g transform="translate(5.096 5.537)"><path class="y" d="M163.416,124.225c0,.013-.024.013-.031,0l-.581-1.149c0-.02-.009-.031-.033-.031l-1.274-.184c-.018-.013-.018-.013,0-.033l.909-.9c.02,0,.02-.031.02-.044l-.219-1.263c0-.009.011-.022.015-.009l1.136.592a.07.07,0,0,0,.066,0l1.123-.592c.024-.024.035-.013.035.009l-.225,1.263c0,.013.02.024.035.044l.9.9c.007.02.007.02-.007.033l-1.261.184a.079.079,0,0,0-.057.031Z" transform="translate(-112.316 -22.078)"/><path class="z" d="M163.416,79.136a.012.012,0,1,1-.024,0l-.588-1.16a.054.054,0,0,0-.039-.024L161.5,77.76c-.018,0-.018-.011,0-.024l.913-.9c.009,0,.02-.024.02-.035l-.218-1.274c0-.013.011-.013.015-.013l1.136.592a.06.06,0,0,0,.066,0l1.123-.592c.024-.011.035,0,.035.013l-.225,1.263c0,.022.02.035.024.046l.909.9c.013.024.013.024,0,.042l-1.274.164a.153.153,0,0,1-.044.035Z" transform="translate(-112.316 -75.511)"/><path class="aa" d="M167.18,124.007a.025.025,0,0,1-.037.009l-.741-1.047c-.011-.009-.024-.033-.05-.033l-1.283.024c-.02,0-.02,0-.015-.024l.769-1.036c.011,0,.011-.041.011-.055l-.413-1.211c-.015-.011.013-.024.015-.011l1.208.4a.138.138,0,0,0,.061,0l1.029-.771c.009-.015.031-.015.031.015l-.022,1.276a.045.045,0,0,0,.031.046l1.053.73c0,.02,0,.033-.013.033l-1.226.389c-.024.013-.039.022-.039.035Z" transform="translate(-108.088 -22.494)"/><path class="ab" d="M160.114,79.474c0,.017-.009.031-.022.017l-.747-1.064a.059.059,0,0,0-.055-.024l-1.276.024c-.018-.013-.018-.013-.007-.024l.763-1.036a.094.094,0,0,0,.009-.048l-.415-1.215c0-.011.011-.024.017-.011l1.217.406a.067.067,0,0,0,.057-.017l1.023-.767s.028,0,.028.013l-.024,1.285a.131.131,0,0,0,.026.052l1.055.732c.017.011.017.024,0,.035l-1.228.382a.037.037,0,0,0-.037.026Z" transform="translate(-116.446 -75.268)"/><path class="ac" d="M170.826,123.176c0,.011-.011.024-.037,0l-.9-.911c-.013-.022-.031-.022-.05-.022l-1.272.214c-.015.011-.015,0-.015-.02l.605-1.13a.077.077,0,0,0,0-.055l-.605-1.136c-.009-.022,0-.022.015-.022l1.272.216a.065.065,0,0,0,.05-.013l.9-.922c.007-.013.026,0,.026.011l.188,1.261c0,.013.015.026.026.039l1.162.566c0,.011,0,.024-.015.039l-1.147.564a.126.126,0,0,1-.044.046Z" transform="translate(-103.939 -23.531)"/><path class="ad" d="M156.888,80.311c0,.011-.022.011-.026,0l-.911-.922c0-.02-.022-.031-.048-.02l-1.261.216c-.015,0-.031-.013-.015-.024l.592-1.136a.128.128,0,0,0,.007-.048l-.6-1.136c-.015-.013,0-.013.015-.026l1.261.229c.026,0,.048-.013.048-.031l.9-.922c.011-.013.028,0,.028.017l.177,1.276c0,.013.022.024.044.037l1.149.566c.013.013.013.024,0,.024l-1.16.568a.273.273,0,0,0-.033.055Z" transform="translate(-120.451 -74.356)"/><path class="ae" d="M174.45,121.746c0,.013-.009.026-.028.013l-1.029-.767a.126.126,0,0,0-.061-.011l-1.208.415c-.033.011-.033,0-.033-.026l.42-1.215c.013-.011,0-.035-.007-.048l-.765-1.036s0-.022,0-.011l1.3.011a.056.056,0,0,0,.039-.022l.752-1.049c0-.031.007-.011.015,0l.382,1.237c0,.011.02.026.048.026l1.213.387c.026,0,.02.013,0,.026l-1.047.739c0,.011-.02.033-.02.048Z" transform="translate(-100.166 -25.174)"/><path class="af" d="M153.978,81.57c0,.011-.011.022-.015.011l-1.045-.765c-.009-.011-.039-.011-.061,0l-1.2.4c-.018,0-.022,0-.022-.011l.413-1.226a.075.075,0,0,0-.011-.048l-.765-1.023c0-.013,0-.024,0-.024l1.291.011a.048.048,0,0,0,.05-.024l.732-1.049c.013-.011.022-.011.022.013l.387,1.222s.022.028.042.028l1.215.389c.02,0,.02.013.011.024l-1.047.75c-.011,0-.015.024-.024.035Z" transform="translate(-124.424 -72.779)"/><path class="ag" d="M177.8,119.756c0,.011-.009.024-.037.011l-1.132-.592c-.026,0-.041-.011-.063,0l-1.134.592c-.013.013-.024,0-.024-.011l.212-1.274c.013-.013,0-.026-.013-.042l-.918-.894c-.009-.013-.009-.031.015-.031l1.263-.181c.02,0,.031-.015.046-.028l.575-1.165c0-.013.007-.013.015,0l.57,1.145a.053.053,0,0,0,.057.048l1.263.181.007.031-.909.894c-.026.015-.026.028-.026.052Z" transform="translate(-96.674 -27.37)"/><path class="ah" d="M151.283,83.275c0,.011,0,.024-.026.011l-1.134-.592a.065.065,0,0,0-.063,0l-1.13.592c-.02,0-.02,0-.02-.011l.214-1.263c0-.011,0-.048-.02-.048l-.916-.9c-.009-.011-.009-.022.009-.022l1.267-.192c.013,0,.037-.026.052-.035l.562-1.141c.006-.022.022-.022.022,0l.577,1.141a.05.05,0,0,0,.039.035l1.261.192c.033,0,.033.011.013.022l-.922.881a.108.108,0,0,0-.013.066Z" transform="translate(-128.079 -70.594)"/><path class="ai" d="M180.742,117.253c.011.011,0,.024-.024.011l-1.219-.417a.1.1,0,0,0-.044.009l-1.036.771c-.013.015-.013.015-.026-.009l.02-1.287a.061.061,0,0,0-.02-.042l-1.047-.743c-.026-.013-.026-.024,0-.024l1.222-.382a.054.054,0,0,0,.039-.035l.38-1.228c0-.026.011-.026.026-.011l.741,1.047c0,.011.037.028.052.028l1.276-.017c.026,0,.026.017.017.031l-.76,1.02c-.022.028-.022.039-.022.05Z" transform="translate(-93.54 -30.068)"/><path class="aj" d="M148.868,85.363c0,.013-.011.026-.026.013l-1.226-.4a.081.081,0,0,0-.05.011l-1.02.754c-.028.011-.028,0-.028,0l.015-1.289c0-.011-.015-.046-.022-.046l-1.051-.749c-.013-.011-.013-.024,0-.024l1.23-.376a.069.069,0,0,0,.033-.042L147.1,82c.007-.011.026-.031.037-.011l.734,1.058c.011,0,.024.013.05.013l1.281-.013c.02,0,.033.013.007.024l-.765,1.023a.164.164,0,0,0-.007.061Z" transform="translate(-131.319 -67.849)"/><path class="ak" d="M183.249,114.289s-.006.024-.022.024l-1.265-.227a.1.1,0,0,0-.063.013l-.892.933c0,.011-.011,0-.024-.013l-.177-1.276a.042.042,0,0,0-.037-.035l-1.163-.568v-.024l1.163-.57c.013-.015.037-.028.037-.039l.19-1.274c-.013-.026.007-.026.011-.013l.9.92c.015.015.028.015.059.015l1.265-.219c.015,0,.015.013.015.031l-.605,1.132a.078.078,0,0,0,0,.055Z" transform="translate(-90.839 -33.203)"/><path class="al" d="M146.767,87.78c.015.013,0,.026-.011.026l-1.278-.216c-.009,0-.037.017-.046.017l-.894.92c-.017.013-.028.013-.028,0l-.177-1.291c-.015-.011-.026-.024-.039-.035l-1.147-.57c-.015,0-.015-.011-.015-.011l1.162-.568a.083.083,0,0,0,.024-.05l.184-1.272a.029.029,0,0,1,.033-.02l.9.922a.04.04,0,0,0,.046.028l1.263-.225c.026,0,.026.011.026.022l-.605,1.138c-.013.024-.013.035,0,.048Z" transform="translate(-134.067 -64.609)"/><path class="am" d="M185.235,110.937c.017.011,0,.039,0,.039l-1.3-.028c-.013,0-.024.02-.039.028l-.745,1.049c0,.024-.009.011-.024,0l-.387-1.226a.035.035,0,0,0-.028-.037l-1.226-.378c-.026-.015-.026-.026-.013-.026l1.047-.743c.028-.013.033-.026.033-.057l-.017-1.285c-.015-.011.013-.011.024-.011l1.029.769c.007.011.028.011.052.011l1.211-.415c.024,0,.024.011.024.028l-.422,1.208c0,.011,0,.037.013.048Z" transform="translate(-88.645 -36.696)"/><path class="an" d="M145.064,90.475c.011.011,0,.024-.018.011l-1.294-.011c-.009.011-.042.024-.042.042l-.736,1.031c-.02.017-.035.017-.035,0l-.378-1.221a.2.2,0,0,0-.037-.039L141.3,89.9c-.013,0-.013-.011-.013-.022l1.053-.743c.02-.018.02-.028.02-.055l-.013-1.274c0-.013.013-.022.028-.013l1.027.763c.009.011.044.011.048.011l1.224-.406c.022-.013.022,0,.022.011l-.431,1.228c0,.011.015.024.02.048Z" transform="translate(-136.251 -60.953)"/><path class="ao" d="M186.67,107.309c.007,0,0,.022-.013.022l-1.289.192a.075.075,0,0,0-.037.024l-.568,1.16c0,.013-.011.013-.017,0l-.577-1.16c0-.013-.024-.024-.035-.024l-1.278-.192c-.017,0-.017-.013-.011-.022l.924-.889a.082.082,0,0,0,.015-.046l-.219-1.274c-.007-.011.011-.011.026-.011l1.134.59c.02.013.037,0,.052-.011l1.134-.579c.011-.015.024,0,.024,0l-.221,1.285a.063.063,0,0,0,.02.046Z" transform="translate(-87.006 -40.465)"/><path class="ap" d="M143.787,93.383l-.009.024-1.285.179a.36.36,0,0,0-.037.048l-.566,1.136a.054.054,0,0,1-.028.011l-.575-1.16a.049.049,0,0,0-.042-.022l-1.27-.192a.015.015,0,0,1-.013-.024l.931-.9c0-.013.011-.037,0-.048l-.21-1.263c0-.026,0-.026.028-.026l1.128.605h.052l1.134-.605c.02,0,.026,0,.026.026l-.223,1.263a.1.1,0,0,0,.026.048Z" transform="translate(-137.824 -56.979)"/><path class="aq" d="M187.5,103.672c.013,0,.013.011-.011.024l-1.232.378a.051.051,0,0,0-.031.048l-.385,1.215c-.007.024-.02.024-.031.011l-.732-1.049a.1.1,0,0,0-.052-.02l-1.285.02c-.015-.011-.026-.02-.015-.035l.765-1.023a.038.038,0,0,0,0-.055l-.4-1.219c-.011-.013,0-.013.024-.013l1.213.413c.026,0,.033,0,.05-.024l1.02-.76c.02-.011.02,0,.028.02l-.015,1.287c0,.011.007.035.015.035Z" transform="translate(-85.966 -44.617)"/><path class="ar" d="M142.957,96.614c.013,0,.013.024,0,.024l-1.235.376c-.015.013-.031.044-.042.055l-.38,1.208c-.011.011-.024.024-.024.011l-.745-1.045c0-.013-.031-.024-.044-.024l-1.285.024c-.009,0-.022-.013-.009-.024l.771-1.036c0-.013.011-.035,0-.048l-.413-1.215c-.007-.011.007-.024.022-.024l1.226.413a.067.067,0,0,0,.039-.011l1.031-.767c.02-.013.026,0,.026.011l-.026,1.287a.048.048,0,0,0,.037.037Z" transform="translate(-138.739 -52.975)"/><path class="as" d="M187.7,99.9c.013.013.013.024,0,.024l-1.16.568a.2.2,0,0,0-.024.055l-.179,1.274q-.013.016-.02,0l-.913-.922c-.011-.011-.024-.011-.044-.011l-1.27.229c-.018,0-.024-.033-.018-.033l.6-1.147a.03.03,0,0,0,0-.037l-.6-1.149c-.011-.011,0-.011.013-.024l1.27.229c.02,0,.033,0,.044-.013l.913-.933s.011,0,.011.011l.188,1.276a.154.154,0,0,0,.024.046Z" transform="translate(-85.55 -48.843)"/><path class="at" d="M142.617,99.9c.015.013.015.024-.011.024l-1.149.568a.105.105,0,0,0-.026.055l-.186,1.274c-.015.011-.026.011-.026,0l-.9-.922c-.013,0-.042-.011-.05-.011l-1.27.229c-.015,0-.02-.013-.02-.033l.605-1.147a.044.044,0,0,0-.013-.037l-.592-1.136c0-.013,0-.037.02-.024l1.27.216a.079.079,0,0,0,.05-.013l.9-.922c.011-.024.02-.011.02.011l.184,1.265a.322.322,0,0,0,.035.046Z" transform="translate(-138.983 -48.844)"/><path class="au" d="M187.484,96.119c.011.011.024.011,0,.022l-1.06.743a.16.16,0,0,0-.015.055l.015,1.285c0,.026-.009.026-.028.013l-1.02-.771c-.011-.011-.024-.011-.05-.011l-1.213.417c-.018,0-.035,0-.024-.011l.4-1.228a.03.03,0,0,0,0-.048l-.763-1.023c-.018-.011-.007-.022.009-.022l1.285.011c.013,0,.024-.011.039-.026l.745-1.047c.011-.017.024-.017.031,0l.385,1.232c0,.013.013.024.031.044Z" transform="translate(-85.965 -53.048)"/><path class="av" d="M142.957,103.173c.013,0,.013.013,0,.024l-1.055.743a.23.23,0,0,0-.024.066l.02,1.276c0,.011-.02.011-.02.011l-1.038-.769c0-.013-.037-.013-.039-.013l-1.226.417a.022.022,0,0,1-.022-.022l.417-1.215a.078.078,0,0,0-.011-.048l-.765-1.025c-.013-.011,0-.042.009-.042l1.285.031a.057.057,0,0,0,.044-.031l.745-1.049c.007-.011.013-.011.024,0l.376,1.228c.015.013.031.037.05.037Z" transform="translate(-138.739 -44.687)"/><path class="aw" d="M186.651,92.4a.013.013,0,0,1,.007.024l-.922.909c-.013,0-.026.022-.02.042l.221,1.263c.017.024-.013.024-.024.024l-1.134-.592a.046.046,0,0,0-.052,0l-1.134.592c-.015,0-.033-.011-.026-.011l.212-1.265c.011-.031,0-.052-.009-.052l-.924-.909c-.007-.011-.007-.011.011-.024l1.278-.175c.011,0,.022-.011.035-.042l.57-1.149c.013-.011.013,0,.024,0l.568,1.149c.011.031.031.042.037.042Z" transform="translate(-87.006 -57.12)"/><path class="ax" d="M143.777,106.329l.007.028-.937.9v.052l.21,1.263c-.007.024-.015.024-.02.024l-1.141-.592a.032.032,0,0,0-.046,0l-1.134.592c-.028,0-.028,0-.028-.024l.216-1.263a.071.071,0,0,0-.02-.052l-.913-.894c-.015-.011-.009-.026,0-.026l1.27-.188a.039.039,0,0,0,.035-.024l.577-1.149c0-.028.017-.028.033,0l.566,1.149c.007.011.026.024.037.037Z" transform="translate(-137.823 -40.611)"/><path class="ay" d="M185.232,88.841s.009.013,0,.024L184.46,89.9c-.013.011-.013.024-.013.055l.422,1.208c0,.011,0,.011-.024.011l-1.211-.4a.068.068,0,0,0-.052,0l-1.029.767c-.007.013-.039,0-.024-.013l.017-1.274c0-.013,0-.048-.033-.048l-1.047-.747c-.017,0-.013-.013.013-.024l1.226-.378c.011,0,.028-.024.028-.042l.387-1.219c.015-.011.02-.011.024,0l.745,1.045c.015.013.026.024.039.024Z" transform="translate(-88.646 -60.961)"/><path class="az" d="M145.045,109.306a.013.013,0,0,1,0,.024l-.765,1.038a.067.067,0,0,0,0,.063l.415,1.208c0,.013-.011.031-.022.013l-1.217-.4c-.011-.013-.046,0-.055,0l-1.016.771c-.026.013-.026,0-.039-.011l.013-1.291a.034.034,0,0,0-.024-.037l-1.036-.732c-.013-.011-.013-.039,0-.039l1.224-.378c.013,0,.031-.022.037-.035l.378-1.226c0-.026.015-.026.031,0l.741,1.044c.015,0,.033.013.052.013Z" transform="translate(-136.25 -36.707)"/><path class="ba" d="M183.229,85.538s.022,0,.015.024l-.605,1.138a.06.06,0,0,0,0,.048l.605,1.136c.007.024,0,.024-.015.024l-1.265-.225a.078.078,0,0,0-.059.022l-.9.922c0,.02-.024.02-.024-.011l-.177-1.263a.042.042,0,0,0-.037-.05l-1.162-.579c-.011,0,0,0,0-.024l1.162-.557a.055.055,0,0,0,.037-.052l.177-1.256c.013-.031.02-.017.024-.017l.892.92c.02.02.033.02.063.02Z" transform="translate(-90.842 -64.486)"/><path class="bb" d="M146.739,112.03c.026,0,.026.011.026.02l-.605,1.152c-.013,0,0,.039.015.052l.59,1.138a.048.048,0,0,1-.011.024l-1.278-.227a.079.079,0,0,0-.046.024l-.894.911c-.017.011-.028.011-.028,0l-.177-1.276-.039-.037-1.147-.57c-.015,0-.015-.024,0-.039l1.147-.551a.089.089,0,0,0,.024-.055l.192-1.261c0-.024.011-.024.024-.013l.9.92c.009,0,.037.013.046.013Z" transform="translate(-134.065 -33.078)"/><path class="bc" d="M180.718,82.548c.011,0,.024,0,.02.024l-.42,1.226.007.035.776,1.036c.009.013.009.026-.017.026l-1.287-.013c0-.013-.026,0-.042.013l-.741,1.058c-.015.011-.022.011-.026-.011l-.38-1.208c0-.033-.024-.042-.031-.055l-1.23-.378c-.026,0-.026-.013,0-.024l1.047-.747c.013,0,.02-.024.02-.048l-.02-1.276c.013-.022.013-.011.026-.011l1.023.767c.031,0,.048.011.057,0Z" transform="translate(-93.54 -67.593)"/><path class="bd" d="M148.828,114.43c.022,0,.028,0,.022.031l-.413,1.211a.147.147,0,0,0,.011.066l.76,1.023c.013.024.013.024,0,.024l-1.287-.024c-.015,0-.039.024-.05.024l-.734,1.049c-.011.013-.022.013-.031,0l-.374-1.23c-.017-.009-.039-.033-.044-.033l-1.224-.378c-.02-.015-.02-.033-.007-.033l1.051-.741c.007,0,.013-.022.013-.035l-.006-1.307c0-.009,0-.009.028,0l1.02.776h.05Z" transform="translate(-131.319 -29.814)"/><path class="be" d="M177.751,79.98c.009-.02.037,0,.037.011l-.225,1.276c0,.022,0,.035.026.046l.909.9a.012.012,0,0,1-.007.022l-1.27.192c-.017,0-.05.011-.05.022l-.555,1.149c-.015.013-.031.013-.039,0l-.566-1.149c0-.011-.026-.022-.039-.022l-1.27-.192c-.024,0-.024-.011-.015-.022l.918-.9c.013-.011.026-.024.013-.046L175.407,80c0-.024.011-.024.024-.024l1.134.605h.063Z" transform="translate(-96.674 -70.225)"/><path class="bf" d="M151.252,116.449c0-.011.026,0,.026.015l-.223,1.289a.1.1,0,0,0,.033.037l.9.9c.02.013.015.037,0,.037l-1.274.177c-.02,0-.039.011-.039.026l-.577,1.158c0,.013-.015.013-.015,0l-.568-1.158a.092.092,0,0,0-.052-.026l-1.267-.177c-.009-.013-.017-.024-.009-.037l.911-.9a.038.038,0,0,0,.024-.037l-.214-1.274c0-.015,0-.031.02-.015l1.136.607a.134.134,0,0,0,.057-.009Z" transform="translate(-128.078 -26.998)"/><path class="bg" d="M174.418,78.055a.022.022,0,0,1,.024.024l-.02,1.294c.007.011.007.022.02.035l1.047.741c.026.013.026.031,0,.044l-1.224.378c-.018,0-.026.011-.037.022l-.376,1.228c-.006.024-.022.024-.022.011l-.752-1.047a.054.054,0,0,0-.039-.026l-1.3.013c-.009,0-.009,0,0-.024l.765-1.023c.02-.011.007-.042,0-.055l-.413-1.219c0-.02.015-.02.033-.02l1.208.42c.024,0,.055,0,.061-.013Z" transform="translate(-100.166 -72.496)"/><path class="bh" d="M153.94,118.228c.022,0,.026,0,.026.011l-.013,1.3c.009.013.013.037.033.05l1.038.728c.009.028.009.044,0,.044l-1.226.376a.067.067,0,0,0-.041.026L153.37,122s0,.013-.022,0l-.732-1.045a.245.245,0,0,0-.05-.024l-1.276.024c-.02,0-.024-.024-.02-.024l.765-1.034c.011-.022.02-.033.011-.055l-.409-1.224c0-.017,0-.017.017-.017l1.211.422c.013,0,.044,0,.052-.013Z" transform="translate(-124.423 -24.885)"/><path class="bi" d="M170.774,76.663c.013-.013.039-.013.046,0l.164,1.287a.253.253,0,0,1,.044.035l1.147.568c.028.013.02.013,0,.024l-1.147.568c-.011,0-.026.024-.026.044l-.181,1.274a.033.033,0,0,1-.046.011l-.883-.922a.09.09,0,0,0-.05-.009l-1.272.214c-.015,0-.015-.017-.015-.031l.605-1.136c.007-.013.007-.024-.011-.048l-.594-1.136c0-.013,0-.013.015-.013l1.272.205a.065.065,0,0,0,.05-.013Z" transform="translate(-103.937 -74.157)"/><path class="bj" d="M156.851,119.536c.011-.011.015,0,.015.013l.19,1.287c.013,0,.022.022.052.022l1.141.57c.013.028.013.028.007.041l-1.167.568c-.011,0-.02.024-.033.035l-.177,1.276c0,.013-.018.013-.028.013l-.9-.935a.12.12,0,0,0-.048-.011l-1.256.227c-.02,0-.035-.026-.02-.035l.592-1.128a.072.072,0,0,0,0-.052l-.592-1.149c-.015-.013,0-.013.015-.013l1.276.216a.1.1,0,0,0,.033-.013Z" transform="translate(-120.451 -23.34)"/><path class="bk" d="M167.136,75.806c.007-.013.024-.013.037.018l.365,1.221a.068.068,0,0,0,.05.022l1.226.4c.026.011.013.011.013.024l-1.062.741c-.013,0-.022.031-.022.042l.022,1.287c0,.024-.022.024-.031.011l-1.029-.754c0-.018-.024-.018-.05-.018l-1.219.406c-.015.013-.015,0-.015-.024l.413-1.2c.013-.024,0-.035-.011-.048l-.769-1.036c0-.011,0-.011.015-.024l1.283.013c.026,0,.039,0,.05-.026Z" transform="translate(-108.087 -75.172)"/><path class="bl" d="M160.084,120.335c0-.013.022,0,.031.011l.385,1.226c.007.011.022.035.039.035l1.226.378c.007.013.017.031.007.042l-1.062.73c0,.013-.026.037-.026.037l.024,1.291a.046.046,0,0,1-.009.026l-1.042-.774c-.018-.013-.033-.026-.057,0l-1.211.406c-.007,0-.024-.009-.013-.031l.4-1.208a.13.13,0,0,0-.009-.052l-.763-1.036c-.018-.013-.011-.026.007-.026l1.28.026a.057.057,0,0,0,.05-.026Z" transform="translate(-116.447 -22.395)"/></g><g transform="translate(14.58 8.388)"><g transform="translate(0 5.825)"><path class="bm" d="M221.465,142.026a41.815,41.815,0,1,1-15.6-57.043A41.816,41.816,0,0,1,221.465,142.026Z" transform="translate(-143.323 -79.481)"/><path class="bn" d="M205.2,85.192a41.172,41.172,0,1,0,15.362,56.165A41.171,41.171,0,0,0,205.2,85.192Zm-38.5,67.493a36.527,36.527,0,1,1,49.819-13.629A36.533,36.533,0,0,1,166.7,152.685Z" transform="translate(-142.972 -79.131)"/><g class="v" transform="translate(0.183 22.714)"><path class="e" d="M148.575,127.9c.789.645-4.425-9.073-3.557-21.015,1.012-13.939,5.08-17.586,3.691-16.935-1.2.562-4.746,7.154-5.264,17.549S147.838,127.29,148.575,127.9Z" transform="translate(-143.407 -89.876)"/><path class="f" d="M148.393,127.221c.749.645-4.274-8.894-3.442-20.632.961-13.565,4.838-17,3.507-16.391-1.138.522-4.519,7.01-5.006,16.992C142.974,117.366,147.663,126.594,148.393,127.221Z" transform="translate(-143.394 -89.574)"/><path class="g" d="M148.214,126.544c.712.642-4.126-8.714-3.33-20.252.916-13.19,4.6-16.413,3.326-15.842-1.079.483-4.289,6.866-4.748,16.432C143.011,116.833,147.493,125.893,148.214,126.544Z" transform="translate(-143.381 -89.27)"/><path class="h" d="M148.031,125.865c.677.642-3.973-8.533-3.217-19.867.867-12.816,4.359-15.827,3.144-15.3-1.023.444-4.062,6.721-4.488,15.877C143.047,116.3,147.319,125.19,148.031,125.865Z" transform="translate(-143.367 -88.968)"/><path class="i" d="M147.85,125.189c.64.636-3.822-8.352-3.1-19.485.819-12.442,4.123-15.241,2.961-14.754-.964.406-3.833,6.577-4.228,15.322C143.084,115.769,147.146,124.492,147.85,125.189Z" transform="translate(-143.353 -88.665)"/><path class="j" d="M147.67,124.512c.605.632-3.671-8.172-2.989-19.1.774-12.069,3.883-14.651,2.782-14.206-.907.367-3.623,6.431-3.973,14.765C143.1,115.238,146.975,123.791,147.67,124.512Z" transform="translate(-143.342 -88.361)"/><path class="k" d="M147.486,123.833c.575.627-3.518-7.991-2.873-18.72.725-11.695,3.643-14.064,2.6-13.662-.848.328-3.4,6.287-3.715,14.208C143.136,114.7,146.8,123.084,147.486,123.833Z" transform="translate(-143.329 -88.059)"/><path class="l" d="M147.306,123.154c.54.621-3.369-7.81-2.76-18.336.675-11.321,3.4-13.478,2.417-13.115-.789.288-3.166,6.14-3.455,13.651C143.172,114.173,146.635,122.38,147.306,123.154Z" transform="translate(-143.314 -87.755)"/><path class="m" d="M147.125,122.479c.507.612-3.217-7.631-2.648-17.953.629-10.948,3.166-12.892,2.238-12.573-.732.253-2.941,6-3.2,13.1C143.2,113.642,146.463,121.679,147.125,122.479Z" transform="translate(-143.302 -87.454)"/><path class="n" d="M146.944,121.8c.474.605-3.064-7.451-2.533-17.573.579-10.572,2.928-12.3,2.052-12.025-.673.214-2.712,5.852-2.937,12.538C143.242,113.111,146.292,120.973,146.944,121.8Z" transform="translate(-143.288 -87.15)"/><path class="o" d="M146.764,121.125c.441.6-2.915-7.272-2.421-17.19.533-10.2,2.69-11.717,1.873-11.481-.614.177-2.482,5.708-2.681,11.981C143.279,112.579,146.129,120.266,146.764,121.125Z" transform="translate(-143.275 -86.847)"/><path class="p" d="M146.582,120.446c.411.588-2.764-7.089-2.308-16.806.485-9.827,2.452-11.129,1.689-10.934-.553.14-2.251,5.561-2.419,11.424C143.319,112.046,145.961,119.556,146.582,120.446Z" transform="translate(-143.261 -86.544)"/><path class="q" d="M146.4,119.769a53.353,53.353,0,0,1-2.192-16.426c.437-9.451,2.211-10.537,1.508-10.388-.5.1-2.023,5.419-2.163,10.869C143.354,111.514,145.793,118.854,146.4,119.769Z" transform="translate(-143.248 -86.241)"/><path class="r" d="M146.217,119.092a53.806,53.806,0,0,1-2.078-16.043c.391-9.077,1.98-9.947,1.329-9.842-.437.068-1.794,5.273-1.905,10.309C143.394,110.983,145.629,118.144,146.217,119.092Z" transform="translate(-143.235 -85.938)"/><path class="s" d="M146.035,118.414a54.247,54.247,0,0,1-1.962-15.659c.341-8.706,1.739-9.352,1.143-9.3-.378.035-1.56,5.129-1.645,9.754C143.437,110.449,145.467,117.435,146.035,118.414Z" transform="translate(-143.221 -85.635)"/><path class="t" d="M145.855,117.737A54.781,54.781,0,0,1,144,102.461c.3-8.33,1.506-8.756.966-8.751-.319,0-1.322,4.986-1.388,9.2C143.488,109.921,145.308,116.725,145.855,117.737Z" transform="translate(-143.207 -85.334)"/><path class="u" d="M145.674,117.062a55.5,55.5,0,0,1-1.737-14.894c.245-7.956,1.265-8.157.78-8.205-.258-.028-1.093,4.84-1.128,8.64C143.526,109.39,145.151,116.02,145.674,117.062Z" transform="translate(-143.194 -85.033)"/></g><g class="v" transform="translate(74.232 17.354)"><path class="e" d="M183.46,125.58c-.68.763,3-9.776.334-21.644-3.116-13.856-7.69-16.922-6.215-16.472,1.267.387,5.777,6.488,7.864,16.856S184.1,124.861,183.46,125.58Z" transform="translate(-177.294 -87.423)"/><path class="f" d="M183.391,124.892c-.642.76,2.88-9.573.282-21.242-3.013-13.487-7.366-16.365-5.954-15.949,1.2.358,5.533,6.374,7.526,16.334C187.259,114.185,184.016,124.154,183.391,124.892Z" transform="translate(-177.117 -87.138)"/><path class="g" d="M183.324,124.209c-.61.752,2.755-9.37.225-20.842-2.911-13.12-7.038-15.812-5.692-15.429,1.143.326,5.284,6.265,7.187,15.814C187,113.678,183.936,123.448,183.324,124.209Z" transform="translate(-176.938 -86.854)"/><path class="h" d="M183.256,123.522c-.573.743,2.637-9.162.17-20.44-2.808-12.75-6.715-15.259-5.43-14.907,1.08.295,5.037,6.151,6.846,15.292C186.735,113.173,183.857,122.741,183.256,123.522Z" transform="translate(-176.761 -86.569)"/><path class="i" d="M183.185,122.835c-.538.734,2.517-8.959.118-20.038-2.7-12.381-6.389-14.7-5.166-14.387,1.016.267,4.785,6.042,6.5,14.772C186.471,112.666,183.775,122.031,183.185,122.835Z" transform="translate(-176.582 -86.285)"/><path class="j" d="M183.119,122.15c-.5.725,2.393-8.758.061-19.636-2.6-12.016-6.062-14.151-4.906-13.867.955.236,4.558,5.926,6.169,14.251C186.23,112.156,183.7,121.324,183.119,122.15Z" transform="translate(-176.405 -85.999)"/><path class="k" d="M183.049,121.463c-.472.715,2.27-8.553.007-19.234-2.493-11.647-5.734-13.6-4.641-13.345.889.205,4.311,5.815,5.826,13.729C185.968,111.648,183.61,120.613,183.049,121.463Z" transform="translate(-176.226 -85.714)"/><path class="l" d="M182.98,120.778c-.439.7,2.148-8.349-.048-18.834-2.388-11.278-5.408-13.041-4.379-12.822.826.173,4.067,5.7,5.487,13.207C185.71,111.14,183.527,119.9,182.98,120.778Z" transform="translate(-176.048 -85.429)"/><path class="m" d="M182.914,120.091c-.409.691,2.026-8.144-.1-18.432-2.286-10.908-5.085-12.484-4.119-12.3.763.144,3.817,5.587,5.146,12.685C185.447,110.632,183.445,119.191,182.914,120.091Z" transform="translate(-175.87 -85.144)"/><path class="n" d="M182.844,119.405c-.378.68,1.905-7.941-.155-18.03-2.181-10.539-4.761-11.931-3.857-11.78.7.116,3.568,5.478,4.807,12.165C185.188,110.127,183.362,118.481,182.844,119.405Z" transform="translate(-175.693 -84.86)"/><path class="o" d="M182.775,118.72c-.348.664,1.785-7.738-.21-17.63-2.078-10.172-4.438-11.374-3.592-11.258.634.085,3.319,5.367,4.466,11.642C184.927,109.619,183.275,117.766,182.775,118.72Z" transform="translate(-175.515 -84.575)"/><path class="p" d="M182.706,118.035c-.321.653,1.663-7.534-.264-17.228-1.973-9.8-4.112-10.816-3.33-10.738.57.059,3.072,5.255,4.126,11.122C184.662,109.113,183.187,117.053,182.706,118.035Z" transform="translate(-175.337 -84.292)"/><path class="q" d="M182.64,117.35a55.048,55.048,0,0,0-.321-16.828c-1.868-9.433-3.787-10.257-3.068-10.216.507.031,2.823,5.144,3.787,10.6C184.4,108.607,183.1,116.343,182.64,117.35Z" transform="translate(-175.159 -84.007)"/><path class="r" d="M182.571,116.665a55.413,55.413,0,0,0-.374-16.426c-1.766-9.064-3.461-9.739-2.808-9.693.444.031,2.572,5.032,3.448,10.078C184.134,108.1,183.008,115.627,182.571,116.665Z" transform="translate(-174.981 -83.724)"/><path class="s" d="M182.5,115.982a55.6,55.6,0,0,0-.428-16.026c-1.661-8.695-3.138-9.14-2.541-9.173.378-.02,2.318,4.923,3.105,9.558C183.867,107.6,182.916,114.916,182.5,115.982Z" transform="translate(-174.804 -83.441)"/><path class="t" d="M182.436,115.3a56.356,56.356,0,0,0-.485-15.624c-1.556-8.328-2.814-8.574-2.281-8.651.317-.044,2.063,4.812,2.769,9.036C183.59,107.094,182.827,114.2,182.436,115.3Z" transform="translate(-174.627 -83.158)"/><path class="u" d="M182.367,114.612a57.321,57.321,0,0,0-.538-15.222c-1.453-7.958-2.489-8.009-2.019-8.129.251-.068,1.814,4.7,2.425,8.513C183.328,106.59,182.725,113.491,182.367,114.612Z" transform="translate(-174.449 -82.875)"/></g><g transform="translate(52.884 5.684)"><g class="d" transform="translate(19.851 16.216)"><path class="e" d="M176.755,129.274c-1.256-.2,6.072-5.493,5.465-21.434-.507-13.222-6.177-18.687-4.96-18.318,3.435,1.045,6.89,8.944,7.377,18.783S178.992,129.632,176.755,129.274Z" transform="translate(-176.61 -89.504)"/><path class="f" d="M176.905,128.227c-1.2-.144,5.756-5.288,5.172-20.746-.485-12.868-5.876-18.012-4.7-17.662,3.245.959,6.536,8.695,6.992,18.143C184.82,117.6,179.056,128.483,176.905,128.227Z" transform="translate(-176.424 -89.15)"/><path class="g" d="M177.056,127.182c-1.136-.085,5.441-5.083,4.884-20.06-.468-12.51-5.579-17.335-4.44-17.007,3.057.878,6.184,8.446,6.61,17.507C184.525,117.043,179.123,127.337,177.056,127.182Z" transform="translate(-176.237 -88.798)"/><path class="h" d="M177.209,126.139c-1.08-.026,5.118-4.877,4.587-19.376-.446-12.156-5.279-16.657-4.178-16.351,2.867.8,5.83,8.2,6.225,16.869C184.227,116.487,179.188,126.185,177.209,126.139Z" transform="translate(-176.05 -88.445)"/><path class="i" d="M177.359,125.092c-1.014.031,4.8-4.67,4.3-18.687-.428-11.8-4.98-15.982-3.916-15.7,2.675.719,5.493,7.95,5.839,16.231C183.949,115.932,179.257,125.035,177.359,125.092Z" transform="translate(-175.863 -88.093)"/><path class="j" d="M177.508,124.046c-.948.085,4.486-4.464,4-18C181.105,94.6,176.835,90.74,177.856,91c2.482.642,5.148,7.7,5.456,15.593C183.66,115.378,179.331,123.882,177.508,124.046Z" transform="translate(-175.676 -87.74)"/><path class="k" d="M177.66,123c-.887.138,4.169-4.261,3.71-17.315-.387-11.087-4.377-14.627-3.394-14.385,2.29.566,4.792,7.451,5.07,14.953C183.363,114.823,179.406,122.729,177.66,123Z" transform="translate(-175.489 -87.386)"/><path class="l" d="M177.81,121.957c-.819.188,3.848-4.053,3.418-16.627-.367-10.733-4.08-13.952-3.134-13.731,2.1.492,4.44,7.2,4.685,14.317C183.066,114.27,179.482,121.572,177.81,121.957Z" transform="translate(-175.301 -87.034)"/><path class="m" d="M177.961,120.91c-.756.236,3.533-3.848,3.127-15.941-.347-10.377-3.782-13.275-2.876-13.074,1.9.42,4.091,6.955,4.3,13.675C182.77,113.713,179.564,120.41,177.961,120.91Z" transform="translate(-175.115 -86.68)"/><path class="n" d="M178.11,119.865c-.686.28,3.217-3.643,2.834-15.254-.328-10.021-3.483-12.6-2.611-12.418,1.709.35,3.739,6.706,3.918,13.037C182.474,113.157,179.644,119.236,178.11,119.865Z" transform="translate(-174.927 -86.328)"/><path class="o" d="M178.261,118.82c-.623.323,2.9-3.435,2.543-14.566-.31-9.667-3.186-11.918-2.353-11.765,1.512.282,3.383,6.459,3.533,12.4C182.179,112.6,179.723,118.062,178.261,118.82Z" transform="translate(-174.74 -85.975)"/><path class="p" d="M178.412,117.776c-.557.361,2.581-3.232,2.248-13.882-.288-9.311-2.889-11.238-2.091-11.107,1.318.216,3.029,6.21,3.149,11.76C181.878,112.048,179.8,116.88,178.412,117.776Z" transform="translate(-174.552 -85.621)"/><path class="q" d="M178.562,116.728c-.5.4,2.262-3.022,1.958-13.194-.269-8.955-2.589-10.559-1.831-10.452,1.121.157,2.675,5.963,2.764,11.122C181.582,111.495,179.865,115.69,178.562,116.728Z" transform="translate(-174.366 -85.269)"/><path class="r" d="M178.718,115.683c-.441.43,1.945-2.817,1.663-12.508-.249-8.6-2.292-9.877-1.569-9.8.922.1,2.318,5.714,2.38,10.484C181.283,110.939,179.924,114.494,178.718,115.683Z" transform="translate(-174.182 -84.916)"/><path class="s" d="M178.89,114.645c-.385.465,1.626-2.613,1.37-11.822-.229-8.245-1.982-9.291-1.309-9.143.708.157,1.962,5.467,2,9.846C181,110.388,180,113.3,178.89,114.645Z" transform="translate(-174.016 -84.569)"/><path class="t" d="M179.064,113.6c-.334.5,1.311-2.406,1.079-11.135-.208-7.888-1.7-8.566-1.047-8.485.52.066,1.593,5.216,1.61,9.206C180.71,109.83,180.059,112.1,179.064,113.6Z" transform="translate(-173.854 -84.212)"/><path class="u" d="M179.241,112.548c-.284.54.992-2.2.789-10.449-.19-7.532-1.4-7.775-.789-7.829.33-.031,1.243,4.969,1.228,8.568C180.439,109.274,180.109,110.9,179.241,112.548Z" transform="translate(-173.694 -83.857)"/></g><path class="bo" d="M184.739,94.449c-.446.71-4.255-4.246-8.452-6.877s-9.18-4.589-8.734-5.3,5.52.625,9.715,3.254S185.185,93.737,184.739,94.449Z" transform="translate(-167.525 -82.083)"/></g><g transform="translate(2.968 21.577)"><g class="d"><path class="e" d="M153.712,131.595c1.359-.219-6.58-6.778-6.387-22.808.17-14.3,7.316-19.808,6-19.411-3.713,1.128-8.092,9.28-8.618,19.915S151.293,131.982,153.712,131.595Z" transform="translate(-144.682 -89.356)"/><path class="f" d="M153.271,130.5c1.289-.153-6.239-6.5-6.044-22.087.173-13.917,6.953-19.1,5.681-18.729-3.507,1.038-7.668,9.036-8.161,19.249C144.261,119.346,150.963,130.775,153.271,130.5Z" transform="translate(-144.634 -88.988)"/><path class="g" d="M152.829,129.407c1.219-.087-5.893-6.23-5.7-21.368.175-13.533,6.586-18.4,5.358-18.043-3.3.951-7.246,8.791-7.707,18.582C144.331,118.757,150.633,129.56,152.829,129.407Z" transform="translate(-144.588 -88.619)"/><path class="h" d="M152.384,128.313c1.145-.1-5.546-5.955-5.349-20.65.177-13.146,6.225-17.689,5.037-17.359-3.094.861-6.824,8.548-7.25,17.918C144.4,118.172,150.306,128.5,152.384,128.313Z" transform="translate(-144.541 -88.251)"/><path class="i" d="M151.943,127.218c1.071-.061-5.2-5.679-5-19.928.179-12.761,5.858-16.983,4.715-16.675-2.889.778-6.424,8.3-6.794,17.252C144.457,117.586,149.964,127.331,151.943,127.218Z" transform="translate(-144.493 -87.883)"/><path class="j" d="M151.5,126.121c1,.107-4.86-5.4-4.657-19.207.179-12.377,5.5-16.275,4.392-15.989-2.683.693-6,8.057-6.339,16.585C144.525,117,149.621,125.922,151.5,126.121Z" transform="translate(-144.448 -87.514)"/><path class="k" d="M151.059,125.027c.92.17-4.515-5.129-4.309-18.488.181-11.99,5.129-15.569,4.069-15.3-2.474.61-5.585,7.812-5.882,15.919C144.594,116.411,149.274,124.7,151.059,125.027Z" transform="translate(-144.4 -87.146)"/><path class="l" d="M150.619,123.934c.841.227-4.171-4.853-3.966-17.767.184-11.607,4.768-14.861,3.748-14.623-2.264.531-5.161,7.569-5.426,15.254C144.662,115.825,148.926,123.479,150.619,123.934Z" transform="translate(-144.353 -86.777)"/><path class="m" d="M150.175,122.838c.767.282-3.824-4.578-3.616-17.046.186-11.223,4.4-14.155,3.424-13.939-2.054.452-4.744,7.325-4.971,14.588C144.734,115.238,148.578,122.25,150.175,122.838Z" transform="translate(-144.307 -86.409)"/><path class="n" d="M149.733,121.745c.686.332-3.479-4.3-3.271-16.327.188-10.838,4.043-13.445,3.1-13.255-1.844.378-4.318,7.082-4.515,13.924C144.805,114.652,148.227,121.017,149.733,121.745Z" transform="translate(-144.26 -86.041)"/><path class="o" d="M149.292,120.65c.605.376-3.138-4.027-2.926-15.608.19-10.454,3.68-12.737,2.779-12.569-1.634.3-3.9,6.835-4.058,13.255C144.876,114.066,147.876,119.774,149.292,120.65Z" transform="translate(-144.213 -85.672)"/><path class="p" d="M148.849,119.556c.531.42-2.793-3.754-2.581-14.89.192-10.067,3.317-12.027,2.458-11.885-1.42.234-3.47,6.59-3.6,12.591C144.949,113.479,147.534,118.521,148.849,119.556Z" transform="translate(-144.165 -85.304)"/><path class="q" d="M148.407,118.46c.461.459-2.45-3.479-2.231-14.168.192-9.682,2.954-11.317,2.135-11.2-1.208.17-3.048,6.348-3.149,11.924C145.023,112.891,147.2,117.259,148.407,118.46Z" transform="translate(-144.119 -84.936)"/><path class="r" d="M147.967,117.367c.393.5-2.106-3.206-1.886-13.45.192-9.3,2.592-10.6,1.814-10.517-.994.111-2.627,6.1-2.694,11.26C145.1,112.306,146.883,115.994,147.967,117.367Z" transform="translate(-144.072 -84.567)"/><path class="s" d="M147.521,116.273c.332.538-1.759-2.93-1.538-12.728.2-8.913,2.233-9.886,1.492-9.835-.782.055-2.2,5.861-2.238,10.594C145.179,111.719,146.571,114.728,147.521,116.273Z" transform="translate(-144.024 -84.199)"/><path class="t" d="M147.082,115.176c.273.581-1.416-2.655-1.193-12.007.2-8.529,1.87-9.158,1.169-9.149-.566.009-1.763,5.614-1.783,9.927C145.268,111.131,146.278,113.465,147.082,115.176Z" transform="translate(-143.978 -83.829)"/><path class="u" d="M146.64,114.083c.214.625-1.071-2.38-.848-11.288.2-8.142,1.51-8.406.848-8.465-.354-.033-1.339,5.371-1.326,9.261C145.342,110.545,145.994,112.21,146.64,114.083Z" transform="translate(-143.932 -83.462)"/></g><path class="bp" d="M170.789,122.545c-.47.776-9.352-1.375-13.906-4.18s-7.757-7.923-7.279-8.693,4.74,4.635,9.293,7.44S171.272,121.773,170.789,122.545Z" transform="translate(-138.904 -65.368)"/></g><g class="v" transform="translate(21.104 0.518)"><path class="e" d="M190.6,83.419c.666.636-8.834-3.488-20.739-2.2-13.889,1.5-17.431,5.115-16.812,3.9.529-1.04,7.023-4.355,17.394-5.268S189.975,82.818,190.6,83.419Z" transform="translate(-152.982 -79.718)"/><path class="f" d="M189.945,83.273c.662.6-8.673-3.359-20.376-2.113-13.517,1.438-16.85,4.884-16.273,3.726.492-.99,6.883-4.154,16.845-5.024C180.282,78.988,189.3,82.681,189.945,83.273Z" transform="translate(-152.682 -79.706)"/><path class="g" d="M189.287,83.125c.66.573-8.507-3.23-20.009-2.026-13.148,1.383-16.273,4.654-15.735,3.549.457-.94,6.748-3.955,16.295-4.779C179.756,79.028,188.614,82.544,189.287,83.125Z" transform="translate(-152.384 -79.693)"/><path class="h" d="M188.631,82.977c.656.542-8.345-3.1-19.647-1.936-12.774,1.324-15.689,4.425-15.193,3.369.415-.889,6.606-3.756,15.744-4.534C179.228,79.07,187.936,82.4,188.631,82.977Z" transform="translate(-152.083 -79.68)"/><path class="i" d="M187.976,82.831c.649.511-8.183-2.97-19.284-1.849-12.4,1.265-15.11,4.193-14.654,3.188.378-.839,6.468-3.553,15.2-4.289C178.7,79.11,187.257,82.263,187.976,82.831Z" transform="translate(-151.785 -79.668)"/><path class="j" d="M187.319,82.683c.645.483-8.019-2.841-18.919-1.759-12.029,1.208-14.531,3.962-14.114,3.009.343-.789,6.33-3.352,14.647-4.045C178.176,79.15,186.574,82.126,187.319,82.683Z" transform="translate(-151.486 -79.655)"/><path class="k" d="M186.663,82.535c.638.455-7.858-2.71-18.556-1.672-11.658,1.152-13.948,3.734-13.572,2.832.306-.736,6.19-3.153,14.1-3.8C177.651,79.19,185.891,81.989,186.663,82.535Z" transform="translate(-151.186 -79.643)"/><path class="l" d="M186.008,82.389c.629.426-7.7-2.583-18.194-1.584-11.286,1.095-13.371,3.5-13.032,2.653.271-.686,6.051-2.954,13.546-3.555C177.123,79.23,185.208,81.849,186.008,82.389Z" transform="translate(-150.887 -79.63)"/><path class="m" d="M185.352,82.244c.621.4-7.534-2.452-17.831-1.495-10.915,1.036-12.788,3.273-12.492,2.471.232-.634,5.913-2.766,13-3.308C176.6,79.254,184.531,81.717,185.352,82.244Z" transform="translate(-150.588 -79.62)"/><path class="n" d="M184.7,82.1a58.319,58.319,0,0,0-17.466-1.405c-10.541.977-12.208,3.044-11.953,2.292.194-.583,5.773-2.568,12.449-3.066C176.071,79.293,183.845,81.583,184.7,82.1Z" transform="translate(-150.289 -79.609)"/><path class="o" d="M184.038,81.951a58.613,58.613,0,0,0-17.1-1.32c-10.17.922-11.629,2.817-11.415,2.115.162-.531,5.635-2.366,11.9-2.821C175.545,79.335,183.162,81.448,184.038,81.951Z" transform="translate(-149.991 -79.596)"/><path class="p" d="M183.382,81.8a59.1,59.1,0,0,0-16.736-1.23c-9.8.863-11.048,2.587-10.873,1.936.125-.481,5.5-2.168,11.347-2.578C175.018,79.376,182.475,81.316,183.382,81.8Z" transform="translate(-149.691 -79.584)"/><path class="q" d="M182.725,81.657a59.607,59.607,0,0,0-16.371-1.143c-9.425.806-10.465,2.36-10.334,1.757.092-.43,5.36-1.964,10.8-2.334C174.491,79.417,181.792,81.185,182.725,81.657Z" transform="translate(-149.392 -79.571)"/><path class="r" d="M182.07,81.509a60.491,60.491,0,0,0-16.008-1.053c-9.055.747-9.881,2.13-9.794,1.575.059-.376,5.22-1.759,10.251-2.087C173.968,79.459,181.107,81.054,182.07,81.509Z" transform="translate(-149.093 -79.558)"/><path class="s" d="M181.414,81.358a61.63,61.63,0,0,0-15.646-.966c-8.682.69-9.291,1.905-9.252,1.4.024-.321,5.08-1.549,9.7-1.842C173.443,79.514,180.42,80.921,181.414,81.358Z" transform="translate(-148.794 -79.543)"/><path class="t" d="M180.759,81.212a62.821,62.821,0,0,0-15.279-.878c-8.312.634-8.708,1.676-8.714,1.219,0-.271,4.943-1.35,9.149-1.6A51.389,51.389,0,0,1,180.759,81.212Z" transform="translate(-148.496 -79.53)"/><path class="u" d="M180.106,81.065a64.461,64.461,0,0,0-14.916-.789c-7.939.575-8.111,1.447-8.175,1.04-.033-.221,4.805-1.149,8.6-1.355A54.261,54.261,0,0,1,180.106,81.065Z" transform="translate(-148.2 -79.519)"/></g></g><path class="bq" d="M213.1,135.873a35.887,35.887,0,1,1-13.386-48.958A35.887,35.887,0,0,1,213.1,135.873Z" transform="translate(-140.107 -70.44)"/><path class="br" d="M215.179,116.758a34.149,34.149,0,1,1-34.508-33.782,34.189,34.189,0,0,1,34.508,33.782Z" transform="translate(-139.105 -69.517)"/><g class="bs" transform="translate(55.182)"><path class="e" d="M186.861,79.059c8.843,5.327,5.583,14.326-1.914,21.01-2.27,2.023-6.623-3.68-9.475-5.968s-10.452-3.584-4.941-9.669C177.281,76.967,179.475,74.612,186.861,79.059Z" transform="translate(-168.576 -76.815)"/><path class="f" d="M186.512,78.98c8.365,5.032,5.078,13.714-2.174,20.335-2.266,2.069-6.341-3.179-9.086-5.382s-9.859-3.472-4.532-9.333C177.269,77.387,179.565,74.8,186.512,78.98Z" transform="translate(-168.322 -76.627)"/><path class="g" d="M186.164,78.9c7.888,4.737,4.574,13.113-2.432,19.664-2.262,2.115-6.062-2.681-8.7-4.8s-9.267-3.363-4.126-9C177.258,77.812,179.655,74.989,186.164,78.9Z" transform="translate(-168.068 -76.445)"/><path class="h" d="M185.815,78.836c7.412,4.44,4.075,12.51-2.69,18.989-2.257,2.161-5.78-2.179-8.314-4.211s-8.671-3.251-3.713-8.662C177.25,78.242,179.745,75.185,185.815,78.836Z" transform="translate(-167.815 -76.268)"/><path class="i" d="M185.469,78.772c6.936,4.147,3.577,11.911-2.95,18.318-2.249,2.207-5.5-1.68-7.926-3.627s-8.076-3.14-3.306-8.325C177.238,78.68,179.836,75.389,185.469,78.772Z" transform="translate(-167.563 -76.096)"/><path class="j" d="M185.126,78.717c6.459,3.85,3.083,11.319-3.208,17.645-2.246,2.257-5.218-1.18-7.539-3.044s-7.486-3.026-2.9-7.989C177.231,79.121,179.932,75.6,185.126,78.717Z" transform="translate(-167.313 -75.932)"/><path class="k" d="M184.783,78.667c5.981,3.555,2.592,10.727-3.468,16.972-2.24,2.305-4.936-.68-7.154-2.458s-6.89-2.915-2.485-7.655C177.227,79.573,180.026,75.815,184.783,78.667Z" transform="translate(-167.065 -75.774)"/><path class="l" d="M184.445,78.624c5.493,3.271,2.1,10.139-3.732,16.3-2.227,2.356-4.652-.179-6.763-1.873s-6.3-2.806-2.076-7.32C177.223,80.029,180.119,76.045,184.445,78.624Z" transform="translate(-166.819 -75.622)"/><path class="m" d="M184.108,78.588c5.013,2.978,1.613,9.553-3.992,15.628-2.218,2.406-4.37.319-6.376-1.289s-5.7-2.694-1.665-6.982C177.223,80.491,180.216,76.281,184.108,78.588Z" transform="translate(-166.575 -75.48)"/><path class="n" d="M183.772,78.563c4.539,2.683,1.132,8.972-4.248,14.953-2.209,2.458-4.091.822-5.989-.7s-5.111-2.583-1.256-6.647C177.225,80.967,180.319,76.52,183.772,78.563Z" transform="translate(-166.335 -75.345)"/><path class="o" d="M183.443,78.546c4.06,2.391.649,8.391-4.508,14.282-2.2,2.509-3.809,1.32-5.6-.12s-4.519-2.471-.85-6.311C177.235,81.45,180.427,76.769,183.443,78.546Z" transform="translate(-166.1 -75.221)"/><path class="p" d="M183.12,78.536c3.581,2.1.173,7.814-4.768,13.609-2.185,2.565-3.527,1.822-5.216.468s-3.922-2.362-.437-5.976C177.248,81.941,180.541,77.029,183.12,78.536Z" transform="translate(-165.871 -75.105)"/><path class="q" d="M182.8,78.538c3.1,1.8-.3,7.239-5.026,12.936-2.172,2.62-3.247,2.321-4.829,1.051s-3.33-2.248-.028-5.64C177.269,82.441,180.663,77.295,182.8,78.538Z" transform="translate(-165.649 -74.997)"/><path class="r" d="M182.5,78.548c2.626,1.508-.776,6.665-5.286,12.265-2.157,2.675-2.967,2.821-4.44,1.635s-2.738-2.137.378-5.306C177.3,82.951,180.794,77.571,182.5,78.548Z" transform="translate(-165.438 -74.9)"/><path class="s" d="M182.206,78.568c2.15,1.211-1.243,6.09-5.544,11.59-2.139,2.734-2.683,3.321-4.056,2.22s-2.141-2.026.793-4.967C177.347,83.47,180.943,77.856,182.206,78.568Z" transform="translate(-165.242 -74.811)"/><path class="t" d="M181.935,78.6c1.674.916-1.709,5.522-5.8,10.919-2.12,2.793-2.4,3.822-3.669,2.8s-1.549-1.914,1.2-4.632C177.412,84,181.111,78.149,181.935,78.6Z" transform="translate(-165.064 -74.733)"/><path class="u" d="M181.688,78.636c1.206.6-2.172,4.952-6.064,10.244-2.1,2.854-2.12,4.322-3.28,3.389s-.955-1.8,1.611-4.3C177.5,84.536,181.305,78.444,181.688,78.636Z" transform="translate(-164.911 -74.663)"/></g><g class="bt" transform="translate(6.076 73.896)"><path class="e" d="M150.516,129.3c14.276,10.5,16.823,1.982,20.4-7.4,1.084-2.843-5.8-4.879-8.948-6.726s-7.069-8.5-10.795-1.178C146.6,122.957,142.828,123.652,150.516,129.3Z" transform="translate(-146.104 -110.633)"/><path class="f" d="M150.39,129.139c13.434,9.886,16,1.571,19.609-7.563,1.128-2.854-5.229-4.794-8.264-6.571s-6.722-7.965-10.336-.913C146.9,122.832,143.166,123.827,150.39,129.139Z" transform="translate(-145.839 -110.443)"/><path class="g" d="M150.271,128.978c12.591,9.269,15.187,1.162,18.814-7.718,1.171-2.867-4.663-4.711-7.578-6.42s-6.378-7.432-9.879-.651C147.2,122.707,143.5,124,150.271,128.978Z" transform="translate(-145.577 -110.253)"/><path class="h" d="M150.15,128.818c11.749,8.657,14.372.752,18.019-7.877,1.217-2.876-4.095-4.624-6.894-6.265s-6.031-6.9-9.416-.389C147.5,122.584,143.846,124.177,150.15,128.818Z" transform="translate(-145.316 -110.065)"/><path class="i" d="M150.031,128.659c10.906,8.041,13.561.347,17.225-8.035,1.263-2.889-3.529-4.539-6.21-6.112s-5.668-6.359-8.959-.125C147.822,122.473,144.186,124.352,150.031,128.659Z" transform="translate(-145.056 -109.877)"/><path class="j" d="M149.919,128.5c10.063,7.429,12.757-.057,16.43-8.192,1.309-2.9-2.961-4.455-5.528-5.959s-5.319-5.826-8.5.138C148.135,122.354,144.53,124.532,149.919,128.5Z" transform="translate(-144.801 -109.693)"/><path class="k" d="M149.809,128.35c9.217,6.816,11.955-.463,15.635-8.349,1.357-2.911-2.395-4.37-4.844-5.808s-4.969-5.292-8.037.4C148.448,122.24,144.882,124.714,149.809,128.35Z" transform="translate(-144.549 -109.512)"/><path class="l" d="M149.7,128.2c8.376,6.2,11.162-.865,14.842-8.507,1.407-2.919-1.827-4.287-4.158-5.653s-4.626-4.761-7.58.664C148.763,122.125,145.236,124.9,149.7,128.2Z" transform="translate(-144.303 -109.333)"/><path class="m" d="M149.6,128.051c7.534,5.59,10.368-1.263,14.046-8.662,1.455-2.93-1.259-4.2-3.477-5.5s-4.279-4.228-7.117.929C149.086,122.018,145.6,125.09,149.6,128.051Z" transform="translate(-144.06 -109.158)"/><path class="n" d="M149.506,127.912c6.693,4.973,9.575-1.667,13.253-8.824,1.51-2.941-.691-4.115-2.793-5.345s-3.929-3.7-6.658,1.191C149.415,121.914,145.96,125.284,149.506,127.912Z" transform="translate(-143.825 -108.989)"/><path class="o" d="M149.419,127.778c5.847,4.359,8.789-2.065,12.457-8.981,1.562-2.946-.122-4.029-2.107-5.192s-3.588-3.166-6.2,1.453C149.747,121.812,146.332,125.486,149.419,127.778Z" transform="translate(-143.596 -108.826)"/><path class="p" d="M149.338,127.648c5.006,3.748,8.006-2.458,11.664-9.136,1.617-2.954.444-3.946-1.425-5.039s-3.238-2.633-5.738,1.717C150.086,121.722,146.714,125.692,149.338,127.648Z" transform="translate(-143.375 -108.67)"/><path class="q" d="M149.27,127.534c4.163,3.134,7.226-2.854,10.869-9.3,1.676-2.961,1.012-3.863-.741-4.886s-2.9-2.1-5.279,1.98C150.437,121.64,147.1,125.912,149.27,127.534Z" transform="translate(-143.165 -108.525)"/><path class="r" d="M149.215,127.431c3.317,2.517,6.448-3.243,10.074-9.453,1.733-2.967,1.58-3.778-.055-4.733s-2.552-1.573-4.82,2.244C150.8,121.572,147.508,126.144,149.215,127.431Z" transform="translate(-142.967 -108.394)"/><path class="s" d="M149.174,127.342c2.482,1.9,5.67-3.634,9.278-9.61,1.794-2.97,2.148-3.689.629-4.58s-2.207-1.04-4.359,2.511C151.173,121.519,147.93,126.392,149.174,127.342Z" transform="translate(-142.787 -108.279)"/><path class="t" d="M149.158,127.278c1.635,1.289,4.9-4.023,8.485-9.77,1.853-2.972,2.714-3.605,1.313-4.425s-1.875-.516-3.9,2.771C151.559,121.478,148.369,126.661,149.158,127.278Z" transform="translate(-142.629 -108.184)"/><path class="u" d="M149.169,127.23c.793.675,4.126-4.41,7.692-9.927,1.916-2.976,3.282-3.522,2-4.272s-1.527.015-3.442,3.033C151.994,121.465,148.843,126.95,149.169,127.23Z" transform="translate(-142.5 -108.108)"/></g></g><g transform="translate(33.302 48.314)"><path class="bu" d="M151.891,116.986v-21.9h4.574c5.865,0,7.263,2.117,7.263,7.093v7.178c0,5.111-1.01,7.628-7.312,7.628Zm4.427-3.1h.1c2.262,0,2.882-.133,2.882-2.093V100c0-1.532-.937-1.787-2.81-1.8h-.17Z" transform="translate(-151.891 -95.087)"/><path class="bv" d="M158.371,116.986v-21.9h9.136v3.044H162.8v5.961h3.335v3.116H162.8v6.739h4.709v3.04Z" transform="translate(-144.211 -95.087)"/><path class="bv" d="M162.824,116.986l4.731-21.9h3.92l4.72,21.9h-4.37l-.9-4.683h-2.858l-.852,4.683Zm5.546-7.408h2.266l-1.106-8.127Z" transform="translate(-138.934 -95.087)"/><path class="bv" d="M169.639,116.986v-21.9h4.427v18.86h4.355v3.04Z" transform="translate(-130.857 -95.087)"/></g><g transform="translate(43.651 28.748)"><path class="bw" d="M156.627,87.453l2.384-.6c1.541-.391,2.784-.208,3.129,1.16a1.68,1.68,0,0,1-.865,1.94l.013.044a1.769,1.769,0,0,1,2.109,1.346c.376,1.495-.667,2.5-2.307,2.913l-2.574.651Zm3.05,2.515c1.038-.262,1.381-.771,1.206-1.468s-.736-.843-1.7-.6l-.968.245.52,2.063Zm1.016,3.3c1.095-.278,1.606-.843,1.394-1.687-.2-.776-.883-.99-2-.708l-1.119.282.607,2.395Z" transform="translate(-156.627 -85.495)"/><path class="bx" d="M160.241,86.424l4.624-.291.07,1.149-3.26.2.125,1.96,2.756-.175.072,1.152-2.758.173.144,2.262,3.378-.212.072,1.149-4.737.3Z" transform="translate(-152.344 -86.133)"/><path class="by" d="M163.894,91.883a3.047,3.047,0,0,0,1.89,1.082c.867.1,1.377-.238,1.442-.837.07-.629-.4-.883-1.058-1.25l-1-.573a2.214,2.214,0,0,1-1.32-2.2,2.336,2.336,0,0,1,2.806-1.87,3.387,3.387,0,0,1,2.242,1.228l-.782.789a2.5,2.5,0,0,0-1.589-.835c-.728-.081-1.241.205-1.3.769-.066.594.492.881,1.1,1.206l.994.546a2.155,2.155,0,0,1,1.315,2.238c-.135,1.239-1.276,2.155-3,1.967A3.967,3.967,0,0,1,163,92.72Z" transform="translate(-149.076 -86.038)"/><path class="by" d="M168.5,88.268l-2.133-.616.321-1.108,5.576,1.608-.317,1.108-2.137-.616-1.809,6.278-1.311-.378Z" transform="translate(-145.078 -85.646)"/></g><g transform="translate(28.874 34.634)"><path class="bz" d="M154.3,88.849c-.011-.024-.037-.033-.046-.009l-.258,2a.121.121,0,0,1-.057.072l-1.772.885c-.018.026-.018.026.011.037l1.79.872a.138.138,0,0,1,.046.061l.3,1.964c.007.017.031.024.031,0l1.381-1.431a.1.1,0,0,1,.092-.018l1.954.317c.011,0,.033-.02.028-.035l-.951-1.752a.228.228,0,0,1-.007-.092l.924-1.757c.013-.031.009-.05-.026-.052l-1.964.358c-.026.015-.046,0-.07,0Z" transform="translate(-147.151 -88.826)"/><path class="ca" d="M153.814,94.58c.013.009,0,.022-.015.022l-1.342.07c-.013-.011-.039,0-.048.026l-.7,1.128c-.007.009-.028.013-.026-.009l-.476-1.239c0-.015-.022-.031-.031-.039l-1.294-.317c-.022,0-.011-.011-.011-.028l1.044-.824c.018-.02.026-.048.013-.057l-.1-1.331c0-.02.02-.026.033-.013l1.112.741c.011.009.033,0,.059-.009l1.235-.5c.015,0,.026.007.018.015l-.358,1.291a.415.415,0,0,0,.018.063Z" transform="translate(-149.865 -85.111)"/></g><g transform="translate(73.299 34.022)"><path class="cb" d="M173.7,88.569c.015-.024.037-.033.048-.007l.256,2a.113.113,0,0,0,.061.074l1.768.885c.015.026.015.026-.009.035l-1.792.872a.153.153,0,0,0-.042.063l-.3,1.964c-.011.017-.035.024-.035,0l-1.381-1.433a.09.09,0,0,0-.09-.015l-1.951.315c-.013,0-.039-.018-.031-.033l.953-1.752a.286.286,0,0,0,0-.092l-.926-1.759c-.013-.028,0-.048.028-.05l1.962.358c.028.013.046,0,.072,0Z" transform="translate(-170.195 -88.547)"/><path class="cc" d="M173.262,94.3c-.011.007,0,.022.02.022l1.342.068c.013-.009.037,0,.046.028l.706,1.125c0,.011.022.015.022-.007l.479-1.241a.286.286,0,0,1,.033-.039l1.294-.317c.02,0,.007-.009.007-.024l-1.042-.824c-.017-.022-.026-.048-.009-.059l.1-1.333a.021.021,0,0,0-.037-.011l-1.11.739c-.007.009-.033,0-.057-.007l-1.235-.5c-.015,0-.026.007-.015.015l.356,1.294a.264.264,0,0,1-.02.059Z" transform="translate(-166.565 -84.832)"/></g></g><g transform="translate(22.694 21.855)"><path class="cd" d="M152.966,97.758a33.937,33.937,0,1,0,47.171-8.852A33.935,33.935,0,0,0,152.966,97.758Z" transform="translate(-147.036 -82.978)"/><path class="ce" d="M214.464,112.45a33.934,33.934,0,0,0-67.427,1.311,100.021,100.021,0,0,1,35.548-6.311A101.387,101.387,0,0,1,214.464,112.45Z" transform="translate(-147.036 -82.977)"/></g></svg>