<svg xmlns="http://www.w3.org/2000/svg" xmlns:xlink="http://www.w3.org/1999/xlink" width="168.377" height="104.057" viewBox="0 0 168.377 104.057"><defs><style>.a{fill:url(#a);}.b{fill:url(#b);}.c{fill:url(#c);}.d{fill:url(#d);}.e{fill:#a47a1e;}.f{fill:url(#e);}.g{fill:url(#f);}.h{fill:url(#g);}.i{fill:url(#h);}.j{fill:url(#i);}.k{fill:url(#j);}.l{fill:url(#k);}.m{fill:url(#l);}.n{fill:url(#m);}.o{fill:url(#n);}.p{fill:url(#o);}.q{fill:url(#p);}.r{fill:url(#q);}.s{fill:url(#r);}.t{fill:#3c2415;}</style><linearGradient id="a" x1="0.492" y1="0.776" x2="0.434" y2="0.201" gradientUnits="objectBoundingBox"><stop offset="0" stop-color="#956d13"/><stop offset="0.5" stop-color="#e6be69"/><stop offset="1" stop-color="#ffec94"/></linearGradient><linearGradient id="b" x1="0.447" y1="0.524" x2="1.08" y2="0.495" xlink:href="#a"/><linearGradient id="c" x1="0.258" y1="0.696" x2="0.739" y2="0.326" xlink:href="#a"/><linearGradient id="d" x1="0.477" y1="0.614" x2="0.395" y2="1.147" xlink:href="#a"/><linearGradient id="e" x1="-62.452" y1="0.946" x2="-64.803" y2="-1.898" gradientUnits="objectBoundingBox"><stop offset="0" stop-color="#a47a1e"/><stop offset="0.228" stop-color="#d3a84c"/><stop offset="0.414" stop-color="#ffec94"/><stop offset="0.586" stop-color="#e6be69"/><stop offset="0.772" stop-color="#ffd87c"/><stop offset="1" stop-color="#956d13"/><stop offset="1" stop-color="#b58f3e"/></linearGradient><linearGradient id="f" x1="-64.815" y1="0.565" x2="-67.267" y2="-2.072" xlink:href="#e"/><linearGradient id="g" x1="-66.946" y1="1.447" x2="-69.46" y2="-1.964" xlink:href="#e"/><linearGradient id="h" x1="-67.921" y1="2.053" x2="-70.471" y2="-1.922" xlink:href="#e"/><linearGradient id="i" x1="-70.757" y1="2.687" x2="-73.417" y2="-1.732" xlink:href="#e"/><linearGradient id="j" x1="-82.302" y1="3.587" x2="-85.405" y2="-1.667" xlink:href="#e"/><linearGradient id="k" x1="-93.178" y1="4.035" x2="-96.705" y2="-1.291" xlink:href="#e"/><linearGradient id="l" x1="-115.768" y1="4.735" x2="-120.167" y2="-1.175" xlink:href="#e"/><linearGradient id="m" x1="-124.641" y1="4.96" x2="-129.399" y2="-0.951" xlink:href="#e"/><linearGradient id="n" x1="-134.338" y1="5.169" x2="-139.492" y2="-0.827" xlink:href="#e"/><linearGradient id="o" x1="-177.11" y1="6.26" x2="-183.93" y2="-1.037" xlink:href="#e"/><linearGradient id="p" x1="-163.695" y1="6.987" x2="-170.039" y2="-1.44" xlink:href="#e"/><linearGradient id="q" x1="0.458" y1="2.586" x2="0.297" y2="1.186" xlink:href="#a"/><linearGradient id="r" x1="0" y1="0.5" x2="1" y2="0.5" xlink:href="#a"/></defs><g transform="translate(0 0)"><path class="a" d="M2125.308,1470.466l-1.723-17.6c-24.979-.378-40.5-7.421-40.5-7.421l10.242,14.028-10.6,7.491s23.55,10.688,59.324,6.437A84.621,84.621,0,0,1,2125.308,1470.466Z" transform="translate(-2082.731 -1374.606)"/><path class="b" d="M2127.777,1464.81s15.61,2.621,22.7-.954l1.347,13.213Z" transform="translate(-2109.62 -1385.596)"/><path class="c" d="M2392.746,1443.522l1.723,17.6c24.978.378,40.5,7.422,40.5,7.422l-10.241-14.028,10.6-7.492s-16.122-7.317-41.952-7.434a2.014,2.014,0,0,0-.627,3.932Z" transform="translate(-2266.946 -1371.111)"/><path class="d" d="M2419.806,1472.489s-8.276-2.571-22.7.953l-1.348-13.213Z" transform="translate(-2269.585 -1383.432)"/><g transform="translate(28.07)"><path class="e" d="M2187.067,1431.786c-1.108-3.225-2.985-11.239,3.945-15.1,0,0,5.3,12-3.192,16.375-7.938,5.313-15.875-5.129-15.875-5.129C2178.676,1423.736,2184.781,1429.256,2187.067,1431.786Z" transform="translate(-2164.054 -1357.441)"/><path class="e" d="M2207.24,1449.088c-1.732-2.938-5.178-10.412.838-15.582,0,0,7.6,10.693.156,16.682-6.711,6.8-16.581-1.842-16.581-1.842C2197.405,1442.883,2204.492,1447.068,2207.24,1449.088Z" transform="translate(-2175.818 -1367.48)"/><path class="e" d="M2175.286,1413.179c-.488-3.069-.917-10.555,5.909-12.931,0,0,2.873,11.6-5.433,14.2-7.958,3.523-13.444-7.094-13.444-7.094C2169.017,1404.638,2173.63,1410.55,2175.286,1413.179Z" transform="translate(-2158.308 -1347.627)"/><path class="e" d="M2166.045,1393.974c.048-2.989.89-10.155,7.754-11.27,0,0,.79,11.472-7.514,12.548-8.128,2.013-11.558-8.962-11.558-8.962C2161.527,1384.836,2164.914,1391.207,2166.045,1393.974Z" transform="translate(-2153.776 -1337.155)"/><path class="e" d="M2162.579,1372.957c.244-2.828,1.515-9.56,8.091-10.16,0,0-.011,10.917-7.948,11.387-7.832,1.368-10.353-9.254-10.353-9.254C2158.906,1364,2161.692,1370.26,2162.579,1372.957Z" transform="translate(-2152.369 -1325.271)"/><path class="e" d="M2165.85,1351.488c.713-2.32,2.987-7.718,8.592-7.038,0,0-1.974,9.124-8.693,8.089-6.793-.265-6.99-9.6-6.99-9.6C2164.391,1343.342,2165.594,1349.075,2165.85,1351.488Z" transform="translate(-2156.184 -1313.42)"/><path class="e" d="M2170.555,1331.942c.9-1.979,3.526-6.515,8.425-5.276,0,0-2.784,7.878-8.633,6.2-6-1-5.12-9.313-5.12-9.313C2170.181,1324.544,2170.6,1329.77,2170.555,1331.942Z" transform="translate(-2160.017 -1301.845)"/><path class="e" d="M2177.938,1316.2c.968-1.493,3.653-4.843,7.468-3.238,0,0-3.222,6.037-7.751,3.959-4.737-1.55-3-8.17-3-8.17C2178.543,1310.161,2178.24,1314.444,2177.938,1316.2Z" transform="translate(-2165.485 -1293.009)"/><path class="e" d="M2184.528,1302.192c1.068-1.288,3.944-4.123,7.333-2.206,0,0-3.672,5.286-7.675,2.848-4.254-1.967-1.909-7.96-1.909-7.96C2185.755,1296.62,2185,1300.588,2184.528,1302.192Z" transform="translate(-2169.836 -1284.727)"/><path class="e" d="M2192.368,1290.078c1.129-1.1,4.106-3.456,7.08-1.32,0,0-3.969,4.571-7.466,1.886-3.779-2.27-.979-7.637-.979-7.637C2194.08,1284.991,2192.975,1288.625,2192.368,1290.078Z" transform="translate(-2174.834 -1277.643)"/><path class="e" d="M2201.088,1281.752c1-.719,3.563-2.206,5.618-.22,0,0-3.582,3.083-5.979.614-2.663-2.181.106-6.01.106-6.01C2202.985,1278.016,2201.721,1280.7,2201.088,1281.752Z" transform="translate(-2180.544 -1273.542)"/><path class="e" d="M2207.909,1275.686s4.342.989,7.672-5.933C2215.581,1269.753,2209.89,1268.732,2207.909,1275.686Z" transform="translate(-2185.522 -1269.7)"/><g transform="translate(76.557)"><path class="f" d="M2365.472,1431.786c1.108-3.225,2.985-11.239-3.945-15.1,0,0-5.3,12,3.192,16.375,7.938,5.313,15.875-5.129,15.875-5.129C2373.864,1423.736,2367.76,1429.256,2365.472,1431.786Z" transform="translate(-2352.803 -1357.441)"/><path class="g" d="M2346.561,1449.088c1.732-2.938,5.178-10.412-.838-15.582,0,0-7.6,10.693-.156,16.682,6.711,6.8,16.581-1.842,16.581-1.842C2356.4,1442.883,2349.309,1447.068,2346.561,1449.088Z" transform="translate(-2342.3 -1367.48)"/><path class="h" d="M2379.242,1413.179c.488-3.069.916-10.555-5.91-12.931,0,0-2.873,11.6,5.433,14.2,7.958,3.523,13.444-7.094,13.444-7.094C2385.51,1404.638,2380.9,1410.55,2379.242,1413.179Z" transform="translate(-2360.537 -1347.627)"/><path class="i" d="M2388.876,1393.974c-.048-2.989-.889-10.155-7.754-11.27,0,0-.791,11.472,7.514,12.548,8.128,2.013,11.558-8.962,11.558-8.962C2393.394,1384.836,2390.007,1391.207,2388.876,1393.974Z" transform="translate(-2365.462 -1337.155)"/><path class="j" d="M2393.512,1372.957c-.244-2.828-1.516-9.56-8.091-10.16,0,0,.011,10.917,7.948,11.387,7.833,1.368,10.354-9.254,10.354-9.254C2397.185,1364,2394.4,1370.26,2393.512,1372.957Z" transform="translate(-2368.04 -1325.271)"/><path class="k" d="M2394.121,1351.488c-.713-2.32-2.987-7.718-8.591-7.038,0,0,1.973,9.124,8.692,8.089,6.793-.265,6.99-9.6,6.99-9.6C2395.581,1343.342,2394.378,1349.075,2394.121,1351.488Z" transform="translate(-2368.105 -1313.42)"/><path class="l" d="M2392.2,1331.942c-.9-1.979-3.525-6.515-8.424-5.276,0,0,2.785,7.878,8.634,6.2,6-1,5.12-9.313,5.12-9.313C2392.578,1324.544,2392.159,1329.77,2392.2,1331.942Z" transform="translate(-2367.061 -1301.845)"/><path class="m" d="M2388.872,1316.2c-.968-1.493-3.654-4.843-7.469-3.238,0,0,3.221,6.037,7.751,3.959,4.736-1.55,3-8.17,3-8.17C2388.266,1310.161,2388.569,1314.444,2388.872,1316.2Z" transform="translate(-2365.641 -1293.009)"/><path class="n" d="M2383.52,1302.192c-1.068-1.288-3.944-4.123-7.333-2.206,0,0,3.672,5.286,7.675,2.848,4.254-1.967,1.909-7.96,1.909-7.96C2382.292,1296.62,2383.044,1300.588,2383.52,1302.192Z" transform="translate(-2362.528 -1284.727)"/><path class="o" d="M2376.842,1290.078c-1.129-1.1-4.107-3.456-7.08-1.32,0,0,3.969,4.571,7.465,1.886,3.78-2.27.98-7.637.98-7.637C2375.13,1284.991,2376.235,1288.625,2376.842,1290.078Z" transform="translate(-2358.693 -1277.643)"/><path class="p" d="M2371.538,1281.752c-1-.719-3.562-2.206-5.618-.22,0,0,3.581,3.083,5.979.614,2.663-2.181-.106-6.01-.106-6.01C2369.641,1278.016,2370.905,1280.7,2371.538,1281.752Z" transform="translate(-2356.399 -1273.542)"/><path class="q" d="M2363.924,1275.686s-4.341.989-7.671-5.933C2356.253,1269.753,2361.943,1268.732,2363.924,1275.686Z" transform="translate(-2350.629 -1269.7)"/></g></g><g transform="translate(18.157 65.63)"><path class="r" d="M2127.777,1446.106s28.635,9.235,68.127-2.633,50.655-12.745,61.841-8.938l2.1,21.42c-11.185-3.806-22.349-2.93-61.841,8.938s-68.127,2.633-68.127,2.633Z" transform="translate(-2127.777 -1432.523)"/></g></g><path class="s" d="M.342-19.786a6.216,6.216,0,0,1,1.255-4.1,4.291,4.291,0,0,1,3.491-1.51,3.765,3.765,0,0,1,2.079.51,2.215,2.215,0,0,1,.981,1.491,3.436,3.436,0,0,0-2.589,1.2,4.754,4.754,0,0,0-.863,3.04,4.016,4.016,0,0,0,.726,2.628,2.783,2.783,0,0,0,2.255.863,4.81,4.81,0,0,0,3.9-1.922A7.26,7.26,0,0,0,13.129-22.3a7.85,7.85,0,0,0-1.373-4.55A7.518,7.518,0,0,0,7.912-29.71a9.546,9.546,0,0,0,4.825-3.04,7.055,7.055,0,0,0,1.883-4.609,3.316,3.316,0,0,0-.8-2.353,2.831,2.831,0,0,0-2.177-.863,3.048,3.048,0,0,0-2.255.843,3,3,0,0,0-.843,2.216,3.983,3.983,0,0,0,.392,1.8,1.75,1.75,0,0,0,1.1.981,5.154,5.154,0,0,1-1.471,1,3.758,3.758,0,0,1-1.51.333,2.552,2.552,0,0,1-2.04-.922,3.594,3.594,0,0,1-.784-2.412A5.1,5.1,0,0,1,6.54-41.006a9.6,9.6,0,0,1,5.805-1.687A8.252,8.252,0,0,1,17.66-41.1a5.055,5.055,0,0,1,1.981,4.138,6.828,6.828,0,0,1-1.432,4.079,10.67,10.67,0,0,1-3.942,3.216A7.279,7.279,0,0,1,17.934-27.2a6.446,6.446,0,0,1,1.275,4,8.9,8.9,0,0,1-.922,3.883,10.531,10.531,0,0,1-2.569,3.373,10.823,10.823,0,0,1-3.471,2.1,11.612,11.612,0,0,1-4.1.726,8.772,8.772,0,0,1-5.727-1.706A6.048,6.048,0,0,1,.342-19.786Zm23.3,6.472H17.993l4.158-19.612H27.8l-.51,2.432a15.073,15.073,0,0,1,2.726-1.942,4.549,4.549,0,0,1,2.02-.49A2.491,2.491,0,0,1,34-32.083a3.054,3.054,0,0,1,.745,2.1,2.843,2.843,0,0,1-.785,2.04,2.689,2.689,0,0,1-2.04.824,1.566,1.566,0,0,1-1.039-.314,2.144,2.144,0,0,1-.53-1.294,1.882,1.882,0,0,0-.275-.8.548.548,0,0,0-.431-.177,2.932,2.932,0,0,0-1.255.275,7.261,7.261,0,0,0-1.608,1.216Zm14.631-6.629a4.8,4.8,0,0,0,.431,2.295,1.6,1.6,0,0,0,1.53.765,2.767,2.767,0,0,0,1.922-.922,4.824,4.824,0,0,0,1.294-2.334v-.2l1.922-8.982a1.734,1.734,0,0,0-.53-1,1.546,1.546,0,0,0-1.079-.373q-2.157,0-3.824,3.609A16.922,16.922,0,0,0,38.272-19.943Zm7.453-11.179v.157l1.922-9.022,5.805-.784L48.942-19.59q-.078.353-.118.647a4.6,4.6,0,0,0-.039.608,1.439,1.439,0,0,0,.373,1.118,1.838,1.838,0,0,0,1.236.333,2.455,2.455,0,0,0,1.844-.9,6.665,6.665,0,0,0,1.334-2.55h1.647a12.534,12.534,0,0,1-3.158,5.256,6.774,6.774,0,0,1-4.727,1.765,3.8,3.8,0,0,1-2.608-.883,3.951,3.951,0,0,1-1.236-2.491,8.693,8.693,0,0,1-2.628,2.707,5.9,5.9,0,0,1-3.177.9,4.741,4.741,0,0,1-3.824-1.647,7.029,7.029,0,0,1-1.392-4.668,17.085,17.085,0,0,1,.667-4.589,17.6,17.6,0,0,1,1.844-4.354,11.17,11.17,0,0,1,3.373-3.55,7.609,7.609,0,0,1,4.2-1.236,4.358,4.358,0,0,1,2.353.53A1.66,1.66,0,0,1,45.725-31.122Z" transform="translate(57.342 68.085)"/><g transform="matrix(1, -0.017, 0.017, 1, 27.837, 73.576)"><path class="t" d="M9.2,0,12.1.817l.1.163a1.1,1.1,0,0,1-.435.705l.139,9.919.224.255a1.116,1.116,0,0,1-.034.8l-2.549-.717c-.065-.018-.13-.039-.2-.063s-.146-.052-.234-.087a1.521,1.521,0,0,1-.065-.24c-.017-.084-.03-.176-.041-.278a.9.9,0,0,1,.337-.3c0-.078,0-.278-.008-.6S9.323,9.6,9.305,9.038l-.407-.4a3.647,3.647,0,0,0-1.717-.1l-.961,1.519a.647.647,0,0,1,.044.53,1.458,1.458,0,0,1-.469.3l-2.673-.752-.155-.132a.8.8,0,0,1,.678-.726l.378-.663Q-.425,8.135.045,4.939A.859.859,0,0,1,.63,4.911,6.239,6.239,0,0,0,5.089,6.935q.125-.128,1.083-1.618T8.925.973L9.016.807A.712.712,0,0,1,9.2,0Zm0,5.3L8.311,6.732l-.095.18-.155.237q.434.137.742.253a5.4,5.4,0,0,1,.5.215q-.035.02-.045-2.157Z" transform="translate(0 11.849)"/><path class="t" d="M.734,0,3.575.191a2.205,2.205,0,0,1,.128.864A3.353,3.353,0,0,1,6.776.549,2.54,2.54,0,0,1,8.062,3.7L7.93,5.678a2.811,2.811,0,0,0,.012.458l-.064.952a.61.61,0,0,1,.474.8L8.2,8.008,4.706,7.773a.887.887,0,0,1-.16-.6,1.062,1.062,0,0,1,.674-.269l.288-4.276a1.642,1.642,0,0,0-.146-.595,1.149,1.149,0,0,0-1.782.18l-.307,4.56a.567.567,0,0,1,.549.751.433.433,0,0,1-.2.173L.132,7.466,0,7.272Q-.044,6.683.661,6.6L1.043.92A.865.865,0,0,1,.555.53.693.693,0,0,1,.734,0Z" transform="translate(14.247 17.19)"/><path class="t" d="M.139.156,2.985.045A2.21,2.21,0,0,1,3.2.892a3.353,3.353,0,0,1,3-.829,2.541,2.541,0,0,1,1.612,3l.077,1.977a2.872,2.872,0,0,0,.06.454l.037.953a.61.61,0,0,1,.556.748L8.41,7.33l-3.5.136a.881.881,0,0,1-.222-.576,1.065,1.065,0,0,1,.642-.338L5.165,2.269a1.625,1.625,0,0,0-.208-.577A1.148,1.148,0,0,0,3.2,2.061l.176,4.567a.567.567,0,0,1,.625.688.423.423,0,0,1-.178.192l-3.5.136-.15-.18q-.108-.579.584-.734L.543,1.038A.862.862,0,0,1,.018.7.688.688,0,0,1,.139.156Z" transform="translate(24.812 17.614)"/><path class="t" d="M.8.173a1.649,1.649,0,0,1,2.3.869A1.489,1.489,0,0,1,2.158,2.68,1.723,1.723,0,0,1,.122,2.129,1.538,1.538,0,0,1,.8.173ZM.345,3.505,2.96,3.084l.248.018.171.073c.043.147.082.306.12.478a4.47,4.47,0,0,1,.08.586l.855,5.3a1.184,1.184,0,0,1,.689.25A1.381,1.381,0,0,1,5.1,10.3a4.615,4.615,0,0,1-1.1.221l-2.5.4a.564.564,0,0,1-.334-.191.676.676,0,0,1,.529-.749L.8,4.442a1.1,1.1,0,0,1-.687-.235A.787.787,0,0,1,.345,3.505Z" transform="translate(34.226 13.682)"/><path class="t" d="M.2,2.966,0,2.135,4.636,1.012a1.658,1.658,0,0,1,.156.885,2.13,2.13,0,0,0-.728.381,1.755,1.755,0,0,0,.3.4L6.256,5.161l.13.115q.023-.386.492-3.049l.006-.222L6.868,1.76a1.652,1.652,0,0,0-.956-.135l-.12-.073L5.614.819A4,4,0,0,1,6.725.506L8.815,0l.211.871a1.981,1.981,0,0,0-.765.654l-.109.393q-.011.077-.3,1.618t-.84,4.576l-1.647.4L1.455,3.482l-.209-.258A2.924,2.924,0,0,0,.2,2.966Z" transform="translate(40.281 14.114)"/><path class="t" d="M.7,6.242Q-1.157,2.794,1.918.529,4.612-.763,6.4,1.1a3.622,3.622,0,0,1,.7,1.828,3.456,3.456,0,0,1-1.009.355l-3.184.931a3.649,3.649,0,0,0,.836,1.536q2.215,1.133,3.17-1.432l.218-.064a.991.991,0,0,1,.726.6A3.986,3.986,0,0,1,4.8,7.7,3.574,3.574,0,0,1,.7,6.242ZM4.023,2.2A1.147,1.147,0,0,0,2.9,1.192,2.011,2.011,0,0,0,2.581,3.2l1.6-.467A1.807,1.807,0,0,0,4.023,2.2Z" transform="translate(51.442 12.232)"/><path class="t" d="M3.441,1.462A3.38,3.38,0,0,1,4.721.147,2.507,2.507,0,0,1,5.949.025a1.9,1.9,0,0,1,1.117,2A1.476,1.476,0,0,1,5.837,3.111a1.362,1.362,0,0,1-1.558-1.1,3.278,3.278,0,0,0-.5.718L5.105,7.043a.658.658,0,0,1,.788.577.734.734,0,0,1-.46.349l-3.158.967-.195-.149a.7.7,0,0,1,.37-.932L.8,2.465q-.665.115-.8-.618L.136,1.61l2.7-.825.244-.03A1.963,1.963,0,0,1,3.441,1.462Z" transform="translate(59.373 9.317)"/><path class="t" d="M2.074.659A4.871,4.871,0,0,1,4.189.475,1.152,1.152,0,0,1,5.088,0a1.61,1.61,0,0,1,.318.173l.767,2.474A.866.866,0,0,1,5.091,3.1l-.747-.862-.32-.276L3.931,1.9,3.7,1.793a1.2,1.2,0,0,0-1.373.276.688.688,0,0,0,.386,1,4.081,4.081,0,0,0,.413.063q.206.02.445.023l.274.023.536,0a.655.655,0,0,0,.315.011.7.7,0,0,0,.274.022l.564.1.2.029a2.825,2.825,0,0,1,.726.393l.194.15.06.056a2.741,2.741,0,0,1,.635,2.129Q6.4,8.732,3.065,8.624A1.213,1.213,0,0,1,2.715,8.6a1.079,1.079,0,0,1-1.208.434L.65,6.15a1.58,1.58,0,0,1,.933-.308,2.59,2.59,0,0,1,.392.418l.215.174.121.157.444.344q1.618,1.093,2.372-.365a.8.8,0,0,0-.506-.8A1.37,1.37,0,0,0,4.268,5.7c-.126-.007-.258-.01-.4-.009l-.116-.039Q.654,6.014.02,3.634-.2,1.648,2.074.659Z" transform="translate(68.515 6.525)"/><path class="t" d="M.139,3.365Q-.5,1.592,1.819.581q4.574-1.959,5.139,2.7L7.479,5.2l.108.237a2.14,2.14,0,0,0,1.095-.046l.226.838q-1.962,1.579-3.6.533A3.169,3.169,0,0,1,3.27,8.123,2.093,2.093,0,0,1,.914,7.374Q-.017,5.134,2.441,3.8l1.216-.742c.05-.033.109-.077.179-.13l.226-.171a2.675,2.675,0,0,0-.224-.721A.918.918,0,0,0,2.721,1.3a1.63,1.63,0,0,0-.36.3A1.725,1.725,0,0,1,2.6,3.245,1.612,1.612,0,0,1,.139,3.365Zm4.272.688-.076-.171A1.983,1.983,0,0,0,3.313,5.663q.568,1.4,1.525.075l-.4-1.484Z" transform="translate(76.981 4.723)"/><path class="t" d="M3.46,1.313A3.386,3.386,0,0,1,4.831.094,2.51,2.51,0,0,1,6.065.06a1.9,1.9,0,0,1,.971,2.071,1.475,1.475,0,0,1-1.3,1A1.363,1.363,0,0,1,4.256,1.92a3.253,3.253,0,0,0-.545.679L4.718,7a.659.659,0,0,1,.744.634.736.736,0,0,1-.484.315l-3.219.737-.183-.162a.7.7,0,0,1,.435-.9L.753,2.123Q.081,2.189,0,1.448l.153-.225L2.9.594,3.146.582A1.944,1.944,0,0,1,3.46,1.313Z" transform="translate(85.981 2.028)"/><path class="t" d="M0,1.523,3.84.834A1.1,1.1,0,0,1,4.465.766a1.868,1.868,0,0,1,.151.841c-.124.06-.248.124-.371.189a3.579,3.579,0,0,0-.378.234L5.989,5.237q.533-3.48.523-3.536a2.886,2.886,0,0,0-1-.255L5.361.6A3.084,3.084,0,0,1,6.432.369L8.493,0l.158.882a2.469,2.469,0,0,0-.748.67L6.1,10.107,5.721,11l-.065.2-.335.552a1.128,1.128,0,0,1-.272.339l-.171.174a2.565,2.565,0,0,1-1.92.345,1.7,1.7,0,0,1-.676-2.4,1.67,1.67,0,0,1,2.424.289c.024-.082.078-.248.163-.5s.2-.583.349-1L5,8.568,1.156,2.806a1.8,1.8,0,0,0-.988-.344Z" transform="translate(94.173 0)"/></g></svg>