<svg xmlns="http://www.w3.org/2000/svg" width="32" height="32" viewBox="0 0 32 32">
  <g id="logo_getinsta_b" transform="translate(1640 333)">
    <path id="联合_121" data-name="联合 121" d="M-12527.685-204.291l.007-.006h-7.763a7.453,7.453,0,0,1-5.114-2.022l-.008.007a7.457,7.457,0,0,1-2.437-5.531v-15.4a7.751,7.751,0,0,1,7.754-7.753h15.4a7.453,7.453,0,0,1,5.338,2.238h0a7.435,7.435,0,0,1,2.216,5.314v15.4a7.755,7.755,0,0,1-7.753,7.753Z" transform="translate(10903.777 -97.046)" fill="#9d2fb0"/>
    <g id="组_197" data-name="组 197" transform="translate(-1640 -333)">
      <path id="follow_拷贝" data-name="follow 拷贝" d="M240.43,227.517h-.03a.845.845,0,0,1-.841.786H225.672c-.023,0-.045.007-.068.007a.78.78,0,0,1-.667-.377.835.835,0,0,1-.049-.868,7.847,7.847,0,0,1,4.639-5.99,5.492,5.492,0,1,1,6.2,0A7.849,7.849,0,0,1,240.43,227.517Z" transform="translate(-216.727 -203.465)" fill="none" fill-rule="evenodd"/>
      <g id="减去_8" data-name="减去 8">
        <path id="路径_43108" data-name="路径 43108" d="M24,32H8a8.009,8.009,0,0,1-8-8V8A8.009,8.009,0,0,1,8,0H24a8.009,8.009,0,0,1,8,8V24a8.009,8.009,0,0,1-8,8ZM8,2A6.007,6.007,0,0,0,2,8V24a6.007,6.007,0,0,0,6,6H24a6.006,6.006,0,0,0,6-6V8a6.007,6.007,0,0,0-6-6Z" fill="none"/>
        <path id="路径_43109" data-name="路径 43109" d="M24,32H8a8.009,8.009,0,0,1-8-8V8A8.009,8.009,0,0,1,8,0H24a8.009,8.009,0,0,1,8,8V24A8.009,8.009,0,0,1,24,32ZM8,2A6.007,6.007,0,0,0,2,8V24a6.007,6.007,0,0,0,6,6H24a6.006,6.006,0,0,0,6-6V8a6.007,6.007,0,0,0-6-6Z" fill="#fff"/>
      </g>
      <path id="联合_9" data-name="联合 9" d="M.1,19.629a.9.9,0,0,1-.1-.4,1.517,1.517,0,0,1,.043-.407,8.378,8.378,0,0,1,4.934-6.359A5.836,5.836,0,0,1,8.233,1.83,5.836,5.836,0,0,1,11.49,12.466,8.288,8.288,0,0,1,16.408,19.3H16.4a.892.892,0,0,1-.885.832H.932a.743.743,0,0,1-.077.008A.823.823,0,0,1,.1,19.629Zm1.793-1.3H14.576a6.6,6.6,0,0,0-5.99-4.864c-.117.007-.234.011-.353.011s-.235,0-.352-.011a6.6,6.6,0,0,0-5.992,4.864ZM4.109,7.658A4.123,4.123,0,1,0,8.232,3.5,4.123,4.123,0,0,0,4.109,7.658ZM15.7,4V2.6H14.315V1.4H15.7V0h1.186V1.4H18.27V2.6H16.886V4Z" transform="translate(7.624 5.119)" fill="#fff"/>
    </g>
  </g>
</svg>
