<svg xmlns="http://www.w3.org/2000/svg" xmlns:xlink="http://www.w3.org/1999/xlink" width="1440" height="689" viewBox="0 0 1440 689">
  <defs>
    <clipPath id="clip-path">
      <rect id="矩形_3529" data-name="矩形 3529" width="1440" height="689"/>
    </clipPath>
  </defs>
  <g id="snow" clip-path="url(#clip-path)">
    <g id="组_10692" data-name="组 10692" transform="translate(990.058 570.397)" opacity="0.273">
      <g id="组_10691" data-name="组 10691" transform="translate(-892.313 35.813)">
        <path id="路径_55123" data-name="路径 55123" d="M0-5.062A5.065,5.065,0,0,1,5.063,0,5.065,5.065,0,0,1,0,5.063,5.065,5.065,0,0,1-5.062,0,5.065,5.065,0,0,1,0-5.062Z" fill="#fff"/>
      </g>
    </g>
    <g id="组_10694" data-name="组 10694" transform="translate(937.803 159.287)" opacity="0.575">
      <g id="组_10693" data-name="组 10693" transform="translate(-892.313 35.813)">
        <path id="路径_55124" data-name="路径 55124" d="M0-5.062A5.065,5.065,0,0,1,5.063,0,5.065,5.065,0,0,1,0,5.063,5.065,5.065,0,0,1-5.062,0,5.065,5.065,0,0,1,0-5.062Z" fill="#fff"/>
      </g>
    </g>
    <g id="组_10696" data-name="组 10696" transform="translate(1080.895 112.444)" opacity="0.383">
      <g id="组_10695" data-name="组 10695" transform="translate(-892.313 35.813)">
        <path id="路径_55125" data-name="路径 55125" d="M0-5.062A5.065,5.065,0,0,1,5.063,0,5.065,5.065,0,0,1,0,5.063,5.065,5.065,0,0,1-5.062,0,5.065,5.065,0,0,1,0-5.062Z" fill="#fff"/>
      </g>
    </g>
    <g id="组_10698" data-name="组 10698" transform="translate(1164.503 -86.302)" opacity="0.083">
      <g id="组_10697" data-name="组 10697" transform="translate(-892.313 35.813)">
        <path id="路径_55126" data-name="路径 55126" d="M0-5.062A5.065,5.065,0,0,1,5.063,0,5.065,5.065,0,0,1,0,5.063,5.065,5.065,0,0,1-5.062,0,5.065,5.065,0,0,1,0-5.062Z" fill="#fff"/>
      </g>
    </g>
    <g id="组_10700" data-name="组 10700" transform="translate(987.503 -125.302)" opacity="0.083">
      <g id="组_10699" data-name="组 10699" transform="translate(-892.313 35.813)">
        <path id="路径_55127" data-name="路径 55127" d="M0-5.062A5.065,5.065,0,0,1,5.063,0,5.065,5.065,0,0,1,0,5.063,5.065,5.065,0,0,1-5.062,0,5.065,5.065,0,0,1,0-5.062Z" fill="#fff"/>
      </g>
    </g>
    <g id="组_10702" data-name="组 10702" transform="translate(1376.503 -60.302)" opacity="0.083">
      <g id="组_10701" data-name="组 10701" transform="translate(-892.313 35.813)">
        <path id="路径_55128" data-name="路径 55128" d="M0-5.062A5.065,5.065,0,0,1,5.063,0,5.065,5.065,0,0,1,0,5.063,5.065,5.065,0,0,1-5.062,0,5.065,5.065,0,0,1,0-5.062Z" fill="#fff"/>
      </g>
    </g>
    <g id="组_10706" data-name="组 10706" transform="translate(524.529 218.366)">
      <g id="组_10705" data-name="组 10705" transform="translate(-440.207 17.667)">
        <path id="路径_55130" data-name="路径 55130" d="M0-2.5A2.5,2.5,0,0,1,2.5,0,2.5,2.5,0,0,1,0,2.5,2.5,2.5,0,0,1-2.5,0,2.5,2.5,0,0,1,0-2.5Z" fill="#fff"/>
      </g>
    </g>
    <g id="组_10708" data-name="组 10708" transform="translate(1221.725 456.182)" opacity="0.273">
      <g id="组_10707" data-name="组 10707" transform="translate(-892.313 35.813)">
        <path id="路径_55131" data-name="路径 55131" d="M0-5.062A5.065,5.065,0,0,1,5.063,0,5.065,5.065,0,0,1,0,5.063,5.065,5.065,0,0,1-5.062,0,5.065,5.065,0,0,1,0-5.062Z" fill="#fff"/>
      </g>
    </g>
    <g id="组_10710" data-name="组 10710" transform="translate(1021.47 96.072)" opacity="0.575">
      <g id="组_10709" data-name="组 10709" transform="translate(-892.313 35.813)">
        <path id="路径_55132" data-name="路径 55132" d="M0-5.062A5.065,5.065,0,0,1,5.063,0,5.065,5.065,0,0,1,0,5.063,5.065,5.065,0,0,1-5.062,0,5.065,5.065,0,0,1,0-5.062Z" fill="#fff"/>
      </g>
    </g>
    <g id="组_10712" data-name="组 10712" transform="translate(1164.562 49.229)" opacity="0.383">
      <g id="组_10711" data-name="组 10711" transform="translate(-892.313 35.813)">
        <path id="路径_55133" data-name="路径 55133" d="M0-5.062A5.065,5.065,0,0,1,5.063,0,5.065,5.065,0,0,1,0,5.063,5.065,5.065,0,0,1-5.062,0,5.065,5.065,0,0,1,0-5.062Z" fill="#fff"/>
      </g>
    </g>
    <g id="组_10714" data-name="组 10714" transform="translate(964.711 325.009)">
      <g id="组_10713" data-name="组 10713" transform="translate(-892.313 35.813)">
        <path id="路径_55134" data-name="路径 55134" d="M0-5.062A5.065,5.065,0,0,1,5.063,0,5.065,5.065,0,0,1,0,5.063,5.065,5.065,0,0,1-5.062,0,5.065,5.065,0,0,1,0-5.062Z" fill="#fff"/>
      </g>
    </g>
    <g id="组_10716" data-name="组 10716" transform="translate(1283.075 193.696)">
      <g id="组_10715" data-name="组 10715" transform="translate(-892.313 35.813)">
        <path id="路径_55135" data-name="路径 55135" d="M0-5.062A5.065,5.065,0,0,1,5.063,0,5.065,5.065,0,0,1,0,5.063,5.065,5.065,0,0,1-5.062,0,5.065,5.065,0,0,1,0-5.062Z" fill="#fff"/>
      </g>
    </g>
    <g id="组_10718" data-name="组 10718" transform="translate(1567.33 239.993)">
      <g id="组_10717" data-name="组 10717" transform="translate(-1231.391 49.421)">
        <path id="路径_55136" data-name="路径 55136" d="M0-6.986A6.99,6.99,0,0,1,6.986,0,6.99,6.99,0,0,1,0,6.986,6.99,6.99,0,0,1-6.986,0,6.99,6.99,0,0,1,0-6.986Z" fill="#fff"/>
      </g>
    </g>
    <g id="组_10720" data-name="组 10720" transform="translate(1033.778 733.737)" opacity="0.273">
      <g id="组_10719" data-name="组 10719" transform="translate(-713.85 28.65)">
        <path id="路径_55137" data-name="路径 55137" d="M0-4.05A4.052,4.052,0,0,1,4.05,0,4.052,4.052,0,0,1,0,4.05,4.052,4.052,0,0,1-4.05,0,4.052,4.052,0,0,1,0-4.05Z" fill="#fff"/>
      </g>
    </g>
    <g id="组_10722" data-name="组 10722" transform="translate(1176.782 583.074)">
      <g id="组_10721" data-name="组 10721" transform="translate(-713.85 28.65)">
        <path id="路径_55138" data-name="路径 55138" d="M0-4.05A4.052,4.052,0,0,1,4.05,0,4.052,4.052,0,0,1,0,4.05,4.052,4.052,0,0,1-4.05,0,4.052,4.052,0,0,1,0-4.05Z" fill="#fff"/>
      </g>
    </g>
    <g id="组_10724" data-name="组 10724" transform="translate(1176.782 583.074)">
      <g id="组_10723" data-name="组 10723" transform="translate(-713.85 28.65)">
        <path id="路径_55139" data-name="路径 55139" d="M0-4.05A4.052,4.052,0,0,1,4.05,0,4.052,4.052,0,0,1,0,4.05,4.052,4.052,0,0,1-4.05,0,4.052,4.052,0,0,1,0-4.05Z" fill="#fff"/>
      </g>
    </g>
    <g id="组_10726" data-name="组 10726" transform="translate(1112.987 391.641)">
      <g id="组_10725" data-name="组 10725" transform="translate(-713.85 28.65)">
        <path id="路径_55140" data-name="路径 55140" d="M0-4.05A4.052,4.052,0,0,1,4.05,0,4.052,4.052,0,0,1,0,4.05,4.052,4.052,0,0,1-4.05,0,4.052,4.052,0,0,1,0-4.05Z" fill="#fff"/>
      </g>
    </g>
    <g id="组_10728" data-name="组 10728" transform="translate(932.57 427.964)">
      <g id="组_10727" data-name="组 10727" transform="translate(-892.313 35.813)">
        <path id="路径_55141" data-name="路径 55141" d="M0-5.062A5.065,5.065,0,0,1,5.063,0,5.065,5.065,0,0,1,0,5.063,5.065,5.065,0,0,1-5.062,0,5.065,5.065,0,0,1,0-5.062Z" fill="#fff"/>
      </g>
    </g>
    <g id="组_10730" data-name="组 10730" transform="translate(954.617 422.411)">
      <g id="组_10729" data-name="组 10729" transform="translate(-892.313 35.813)">
        <path id="路径_55142" data-name="路径 55142" d="M0-5.062A5.065,5.065,0,0,1,5.063,0,5.065,5.065,0,0,1,0,5.063,5.065,5.065,0,0,1-5.062,0,5.065,5.065,0,0,1,0-5.062Z" fill="#fff"/>
      </g>
    </g>
    <g id="组_10732" data-name="组 10732" transform="translate(1055.233 417.687)">
      <g id="组_10731" data-name="组 10731" transform="translate(-892.313 35.813)">
        <path id="路径_55143" data-name="路径 55143" d="M0-5.062A5.065,5.065,0,0,1,5.063,0,5.065,5.065,0,0,1,0,5.063,5.065,5.065,0,0,1-5.062,0,5.065,5.065,0,0,1,0-5.062Z" fill="#fff"/>
      </g>
    </g>
    <g id="组_10734" data-name="组 10734" transform="translate(1065.791 321.236)" opacity="0.545">
      <g id="组_10733" data-name="组 10733" transform="translate(-892.313 35.813)">
        <path id="路径_55144" data-name="路径 55144" d="M0-5.062A5.065,5.065,0,0,1,5.063,0,5.065,5.065,0,0,1,0,5.063,5.065,5.065,0,0,1-5.062,0,5.065,5.065,0,0,1,0-5.062Z" fill="#fff"/>
      </g>
    </g>
    <g id="组_10738" data-name="组 10738" transform="translate(897.122 242.614)" opacity="0.273">
      <g id="组_10737" data-name="组 10737" transform="translate(-713.85 28.65)">
        <path id="路径_55146" data-name="路径 55146" d="M0-4.05A4.052,4.052,0,0,1,4.05,0,4.052,4.052,0,0,1,0,4.05,4.052,4.052,0,0,1-4.05,0,4.052,4.052,0,0,1,0-4.05Z" fill="#fff"/>
      </g>
    </g>
    <g id="组_10742" data-name="组 10742" transform="translate(1343.186 406.444)">
      <g id="组_10741" data-name="组 10741" transform="translate(-713.85 28.65)">
        <path id="路径_55148" data-name="路径 55148" d="M0-4.05A4.052,4.052,0,0,1,4.05,0,4.052,4.052,0,0,1,0,4.05,4.052,4.052,0,0,1-4.05,0,4.052,4.052,0,0,1,0-4.05Z" fill="#fff"/>
      </g>
    </g>
    <g id="组_10744" data-name="组 10744" transform="translate(1524.987 360.641)">
      <g id="组_10743" data-name="组 10743" transform="translate(-713.85 28.65)">
        <path id="路径_55149" data-name="路径 55149" d="M0-4.05A4.052,4.052,0,0,1,4.05,0,4.052,4.052,0,0,1,0,4.05,4.052,4.052,0,0,1-4.05,0,4.052,4.052,0,0,1,0-4.05Z" fill="#fff"/>
      </g>
    </g>
    <g id="组_10746" data-name="组 10746" transform="translate(1614.71 477.933)" opacity="0.273">
      <g id="组_10745" data-name="组 10745" transform="translate(-892.313 35.813)">
        <path id="路径_55150" data-name="路径 55150" d="M0-5.062A5.065,5.065,0,0,1,5.063,0,5.065,5.065,0,0,1,0,5.063,5.065,5.065,0,0,1-5.062,0,5.065,5.065,0,0,1,0-5.062Z" fill="#fff"/>
      </g>
    </g>
    <g id="组_10748" data-name="组 10748" transform="translate(1852.434 338.169)" opacity="0.6">
      <g id="组_10747" data-name="组 10747" transform="translate(-897.375 30.75)">
        <path id="路径_55151" data-name="路径 55151" d="M-1.535-5.062A3.529,3.529,0,0,1,1.992-1.535,3.529,3.529,0,0,1-1.535,1.992,3.529,3.529,0,0,1-5.062-1.535,3.529,3.529,0,0,1-1.535-5.062Z" transform="translate(5.063 5.063)" fill="#fff"/>
      </g>
    </g>
    <g id="组_10750" data-name="组 10750" transform="translate(1615.586 295.051)">
      <g id="组_10749" data-name="组 10749" transform="translate(-892.313 35.813)">
        <path id="路径_55152" data-name="路径 55152" d="M0-5.062A5.065,5.065,0,0,1,5.063,0,5.065,5.065,0,0,1,0,5.063,5.065,5.065,0,0,1-5.062,0,5.065,5.065,0,0,1,0-5.062Z" fill="#fff"/>
      </g>
    </g>
    <g id="组_10752" data-name="组 10752" transform="translate(1566.57 179.964)">
      <g id="组_10751" data-name="组 10751" transform="translate(-892.313 35.813)">
        <path id="路径_55153" data-name="路径 55153" d="M0-5.062A5.065,5.065,0,0,1,5.063,0,5.065,5.065,0,0,1,0,5.063,5.065,5.065,0,0,1-5.062,0,5.065,5.065,0,0,1,0-5.062Z" fill="#fff"/>
      </g>
    </g>
    <g id="组_10754" data-name="组 10754" transform="translate(1959.664 570.397)" opacity="0.273">
      <g id="组_10753" data-name="组 10753" transform="translate(-892.313 35.813)">
        <path id="路径_55154" data-name="路径 55154" d="M0-5.062A5.065,5.065,0,0,1,5.063,0,5.065,5.065,0,0,1,0,5.063,5.065,5.065,0,0,1-5.062,0,5.065,5.065,0,0,1,0-5.062Z" fill="#fff"/>
      </g>
    </g>
    <g id="组_10758" data-name="组 10758" transform="translate(1907.409 159.287)" opacity="0.575">
      <g id="组_10757" data-name="组 10757" transform="translate(-892.313 35.813)">
        <path id="路径_55156" data-name="路径 55156" d="M0-5.062A5.065,5.065,0,0,1,5.063,0,5.065,5.065,0,0,1,0,5.063,5.065,5.065,0,0,1-5.062,0,5.065,5.065,0,0,1,0-5.062Z" fill="#fff"/>
      </g>
    </g>
    <g id="组_10760" data-name="组 10760" transform="translate(2050.501 112.444)" opacity="0.383">
      <g id="组_10759" data-name="组 10759" transform="translate(-892.313 35.813)">
        <path id="路径_55157" data-name="路径 55157" d="M0-5.062A5.065,5.065,0,0,1,5.063,0,5.065,5.065,0,0,1,0,5.063,5.065,5.065,0,0,1-5.062,0,5.065,5.065,0,0,1,0-5.062Z" fill="#fff"/>
      </g>
    </g>
    <g id="组_10762" data-name="组 10762" transform="translate(2043.331 507.182)" opacity="0.273">
      <g id="组_10761" data-name="组 10761" transform="translate(-892.313 35.813)">
        <path id="路径_55158" data-name="路径 55158" d="M0-5.062A5.065,5.065,0,0,1,5.063,0,5.065,5.065,0,0,1,0,5.063,5.065,5.065,0,0,1-5.062,0,5.065,5.065,0,0,1,0-5.062Z" fill="#fff"/>
      </g>
    </g>
    <g id="组_10764" data-name="组 10764" transform="translate(1753.331 246.182)" opacity="0.273">
      <g id="组_10763" data-name="组 10763" transform="translate(-892.313 35.813)">
        <path id="路径_55159" data-name="路径 55159" d="M0-5.062A5.065,5.065,0,0,1,5.063,0,5.065,5.065,0,0,1,0,5.063,5.065,5.065,0,0,1-5.062,0,5.065,5.065,0,0,1,0-5.062Z" fill="#fff"/>
      </g>
    </g>
    <g id="组_10766" data-name="组 10766" transform="translate(2131.53 -80.377)" opacity="0.108">
      <g id="组_10765" data-name="组 10765" transform="translate(-892.313 35.813)">
        <path id="路径_55160" data-name="路径 55160" d="M0-5.062A5.065,5.065,0,0,1,5.063,0,5.065,5.065,0,0,1,0,5.063,5.065,5.065,0,0,1-5.062,0,5.065,5.065,0,0,1,0-5.062Z" fill="#fff"/>
      </g>
    </g>
    <g id="组_10768" data-name="组 10768" transform="translate(1991.076 96.072)" opacity="0.575">
      <g id="组_10767" data-name="组 10767" transform="translate(-892.313 35.813)">
        <path id="路径_55161" data-name="路径 55161" d="M0-5.062A5.065,5.065,0,0,1,5.063,0,5.065,5.065,0,0,1,0,5.063,5.065,5.065,0,0,1-5.062,0,5.065,5.065,0,0,1,0-5.062Z" fill="#fff"/>
      </g>
    </g>
    <g id="组_10770" data-name="组 10770" transform="translate(2312.63 42.066)" opacity="0.383">
      <g id="组_10769" data-name="组 10769" transform="translate(-1070.775 42.975)">
        <path id="路径_55162" data-name="路径 55162" d="M0-6.075A6.078,6.078,0,0,1,6.075,0,6.078,6.078,0,0,1,0,6.075,6.078,6.078,0,0,1-6.075,0,6.078,6.078,0,0,1,0-6.075Z" fill="#fff"/>
      </g>
    </g>
    <g id="组_10772" data-name="组 10772" transform="translate(1934.317 325.009)">
      <g id="组_10771" data-name="组 10771" transform="translate(-892.313 35.813)">
        <path id="路径_55163" data-name="路径 55163" d="M0-5.062A5.065,5.065,0,0,1,5.063,0,5.065,5.065,0,0,1,0,5.063,5.065,5.065,0,0,1-5.062,0,5.065,5.065,0,0,1,0-5.062Z" fill="#fff"/>
      </g>
    </g>
    <g id="组_10774" data-name="组 10774" transform="translate(2217.681 368.696)">
      <g id="组_10773" data-name="组 10773" transform="translate(-892.313 35.813)">
        <path id="路径_55164" data-name="路径 55164" d="M0-5.062A5.065,5.065,0,0,1,5.063,0,5.065,5.065,0,0,1,0,5.063,5.065,5.065,0,0,1-5.062,0,5.065,5.065,0,0,1,0-5.062Z" fill="#fff"/>
      </g>
    </g>
    <g id="组_10778" data-name="组 10778" transform="translate(2003.384 733.737)" opacity="0.273">
      <g id="组_10777" data-name="组 10777" transform="translate(-713.85 28.65)">
        <path id="路径_55166" data-name="路径 55166" d="M0-4.05A4.052,4.052,0,0,1,4.05,0,4.052,4.052,0,0,1,0,4.05,4.052,4.052,0,0,1-4.05,0,4.052,4.052,0,0,1,0-4.05Z" fill="#fff"/>
      </g>
    </g>
    <g id="组_10780" data-name="组 10780" transform="translate(1578.384 569.737)" opacity="0.273">
      <g id="组_10779" data-name="组 10779" transform="translate(-713.85 28.65)">
        <path id="路径_55167" data-name="路径 55167" d="M0-4.05A4.052,4.052,0,0,1,4.05,0,4.052,4.052,0,0,1,0,4.05,4.052,4.052,0,0,1-4.05,0,4.052,4.052,0,0,1,0-4.05Z" fill="#fff"/>
      </g>
    </g>
    <g id="组_10786" data-name="组 10786" transform="translate(2080.668 433.508)">
      <g id="组_10785" data-name="组 10785" transform="translate(-713.85 28.65)">
        <path id="路径_55170" data-name="路径 55170" d="M0-4.05A4.052,4.052,0,0,1,4.05,0,4.052,4.052,0,0,1,0,4.05,4.052,4.052,0,0,1-4.05,0,4.052,4.052,0,0,1,0-4.05Z" fill="#fff"/>
      </g>
    </g>
    <g id="组_10788" data-name="组 10788" transform="translate(1902.176 427.964)">
      <g id="组_10787" data-name="组 10787" transform="translate(-892.313 35.813)">
        <path id="路径_55171" data-name="路径 55171" d="M0-5.062A5.065,5.065,0,0,1,5.063,0,5.065,5.065,0,0,1,0,5.063,5.065,5.065,0,0,1-5.062,0,5.065,5.065,0,0,1,0-5.062Z" fill="#fff"/>
      </g>
    </g>
    <g id="组_10792" data-name="组 10792" transform="translate(2239.223 130.411)">
      <g id="组_10791" data-name="组 10791" transform="translate(-892.313 35.813)">
        <path id="路径_55173" data-name="路径 55173" d="M0-5.062A5.065,5.065,0,0,1,5.063,0,5.065,5.065,0,0,1,0,5.063,5.065,5.065,0,0,1-5.062,0,5.065,5.065,0,0,1,0-5.062Z" fill="#fff"/>
      </g>
    </g>
    <g id="组_10794" data-name="组 10794" transform="translate(1688.375 465.75)">
      <g id="组_10793" data-name="组 10793" transform="translate(-410.464 16.474)">
        <path id="路径_55174" data-name="路径 55174" d="M0-2.329A2.33,2.33,0,0,1,2.329,0,2.33,2.33,0,0,1,0,2.329,2.33,2.33,0,0,1-2.329,0,2.33,2.33,0,0,1,0-2.329Z" fill="#fff"/>
      </g>
    </g>
    <g id="组_10796" data-name="组 10796" transform="translate(2030.317 351.933)" opacity="0.273">
      <g id="组_10795" data-name="组 10795" transform="translate(-892.313 35.813)">
        <path id="路径_55175" data-name="路径 55175" d="M0-5.062A5.065,5.065,0,0,1,5.063,0,5.065,5.065,0,0,1,0,5.063,5.065,5.065,0,0,1-5.062,0,5.065,5.065,0,0,1,0-5.062Z" fill="#fff"/>
      </g>
    </g>
    <g id="组_10798" data-name="组 10798" transform="translate(1914.848 317.004)">
      <g id="组_10797" data-name="组 10797" transform="translate(-713.85 28.65)">
        <path id="路径_55176" data-name="路径 55176" d="M0-4.05A4.052,4.052,0,0,1,4.05,0,4.052,4.052,0,0,1,0,4.05,4.052,4.052,0,0,1-4.05,0,4.052,4.052,0,0,1,0-4.05Z" fill="#fff"/>
      </g>
    </g>
    <g id="组_10800" data-name="组 10800" transform="translate(1866.728 242.614)" opacity="0.273">
      <g id="组_10799" data-name="组 10799" transform="translate(-713.85 28.65)">
        <path id="路径_55177" data-name="路径 55177" d="M0-4.05A4.052,4.052,0,0,1,4.05,0,4.052,4.052,0,0,1,0,4.05,4.052,4.052,0,0,1-4.05,0,4.052,4.052,0,0,1,0-4.05Z" fill="#fff"/>
      </g>
    </g>
    <g id="组_10801" data-name="组 10801" transform="translate(1289.534 276.932)">
      <path id="路径_47649" data-name="路径 47649" d="M452.722,333.767c.04-3.307.355-6.671.255-9.968a.18.18,0,0,0-.353-.044c-1.051,2.916-.829,6.412-.857,9.467-.031,3.365-.376,6.614-.651,9.95-.039.5.7.555.832.111C452.864,340.306,452.685,336.845,452.722,333.767Z" transform="translate(-441.513 -319.97)" fill="#fff"/>
      <path id="路径_47650" data-name="路径 47650" d="M460.68,325.466c-1.894,1.323-3.473,3.182-5.229,4.691-1.669,1.435-3.334,2.88-5.034,4.281-.532.437-6.313,4.964-4.9,5.626.637.3,1.215-.84,1.547-1.192a44.483,44.483,0,0,1,3.9-3.484c1.623-1.363,3.176-2.8,4.756-4.209,1.8-1.6,4.089-3.334,5.109-5.571C460.86,325.523,460.772,325.4,460.68,325.466Z" transform="translate(-441.752 -319.896)" fill="#fff"/>
      <path id="路径_47651" data-name="路径 47651" d="M461.277,339.807c-1.3-1.08-2.693-2.015-3.959-3.14-1.392-1.231-2.686-2.573-3.971-3.916-2.148-2.248-4.447-5.4-7.338-6.708-.107-.048-.255.06-.175.179a26.036,26.036,0,0,0,2.992,3.265c1.275,1.327,2.522,2.68,3.782,4.02,2.359,2.5,4.988,5.478,8.094,7.063C461.167,340.8,461.712,340.174,461.277,339.807Z" transform="translate(-441.73 -319.872)" fill="#fff"/>
      <path id="路径_47652" data-name="路径 47652" d="M455.026,323.223a8.464,8.464,0,0,0-2.227,2.5c-.417-.7-.708-1.454-1.152-2.142a.324.324,0,0,0-.588.252,7.908,7.908,0,0,0,1.368,2.869.433.433,0,0,0,.738-.008c.733-1,1.823-2.048,2.115-3.283A.173.173,0,0,0,455.026,323.223Z" transform="translate(-441.516 -319.988)" fill="#fff"/>
      <path id="路径_47653" data-name="路径 47653" d="M460.583,327.268a15.683,15.683,0,0,1-1.834.033,8.634,8.634,0,0,0,.089-2.555c-.028-.191-.278-.137-.332,0a20.423,20.423,0,0,0-.718,2.851.462.462,0,0,0,.434.568,9.827,9.827,0,0,0,2.359.038C461.17,328.139,461.191,327.227,460.583,327.268Z" transform="translate(-441.24 -319.93)" fill="#fff"/>
      <path id="路径_47654" data-name="路径 47654" d="M447.494,324.994c-.234-.471-.859-.114-.787.332a13.088,13.088,0,0,1,.6,2.556,13.263,13.263,0,0,0-2.213.157.127.127,0,0,0-.03.233,4.939,4.939,0,0,0,2.619.4.426.426,0,0,0,.4-.309A5.442,5.442,0,0,0,447.494,324.994Z" transform="translate(-441.763 -319.923)" fill="#fff"/>
      <path id="路径_47655" data-name="路径 47655" d="M447.4,339.393c.041-.65.155-1.291.219-1.937a.416.416,0,0,0-.414-.415,13.6,13.6,0,0,0-1.527.14c-.458.071-1.288.359-1.727.147a.054.054,0,0,0-.052.095,4.95,4.95,0,0,0,2.807.439c-.191.944-.463,2.1.033,2.861a.231.231,0,0,0,.392,0A3.3,3.3,0,0,0,447.4,339.393Z" transform="translate(-441.81 -319.421)" fill="#fff"/>
      <path id="路径_47656" data-name="路径 47656" d="M454.609,341.641a3.5,3.5,0,0,0-2.89-1.749,2.891,2.891,0,0,0-2.431,2.034c0,.025.021.035.041.033.965-.179,1.486-1.4,2.6-1.215.935.153,1.522,1.09,2.454,1.191A.234.234,0,0,0,454.609,341.641Z" transform="translate(-441.588 -319.304)" fill="#fff"/>
      <path id="路径_47657" data-name="路径 47657" d="M461.664,337.628c-.809-.254-2.279-.407-2.94.271a1.791,1.791,0,0,0-.38,1.081,4.2,4.2,0,0,0,0,1.835.116.116,0,0,0,.209.029c.444-.662.156-1.727.733-2.314.162-.165.478-.12.683-.12.526,0,1.056.15,1.578.112A.457.457,0,0,0,461.664,337.628Z" transform="translate(-441.221 -319.405)" fill="#fff"/>
      <path id="路径_47658" data-name="路径 47658" d="M462.057,332.507a64.34,64.34,0,0,0-9-.054c-1.567.031-3.131.024-4.694-.068-1.608-.1-3.285-.594-4.889-.448a.147.147,0,0,0-.07.272c2.164,1.62,6.047,1.308,8.6,1.316,3.358.008,6.7-.15,10.055.051C462.757,333.619,462.722,332.588,462.057,332.507Z" transform="translate(-441.832 -319.631)" fill="#fff"/>
      <path id="路径_47659" data-name="路径 47659" d="M446.117,332.108a2.46,2.46,0,0,0-.942-.857c-.322-.22-.774-.579-1.188-.458a.07.07,0,0,0-.05.049c-.124.614.765,1.043,1.149,1.365.094.078.385.262.307.4-.213.382-.817.453-1.1.769a.306.306,0,0,0,.218.516C445.368,333.919,446.538,333.043,446.117,332.108Z" transform="translate(-441.808 -319.678)" fill="#fff"/>
      <path id="路径_47660" data-name="路径 47660" d="M461.077,331.088a2.456,2.456,0,0,0-2.441,1.678c-.331.967.856,2.5,1.875,2.013a.341.341,0,0,0,.119-.462c-.266-.6-1.279-.559-1.071-1.421.19-.771,1.1-1,1.611-1.473A.2.2,0,0,0,461.077,331.088Z" transform="translate(-441.207 -319.666)" fill="#fff"/>
      <path id="路径_47661" data-name="路径 47661" d="M462.724,332.479c-.646-.078-.642.935,0,1.011S463.364,332.552,462.724,332.479Z" transform="translate(-441.057 -319.608)" fill="#fff"/>
      <path id="路径_47662" data-name="路径 47662" d="M442.7,331.636a.436.436,0,0,0-.8.222.662.662,0,0,0,.069.277.3.3,0,0,0,.261.147h.024A.437.437,0,0,0,442.7,331.636Z" transform="translate(-441.891 -319.65)" fill="#fff"/>
      <path id="路径_47663" data-name="路径 47663" d="M445.248,325.167a.431.431,0,0,0-.521.523.424.424,0,1,0,.521-.523Z" transform="translate(-441.775 -319.908)" fill="#fff"/>
      <path id="路径_47664" data-name="路径 47664" d="M443.79,324.078c-.448-.049-.443.647,0,.7S444.23,324.132,443.79,324.078Z" transform="translate(-441.827 -319.952)" fill="#fff"/>
      <path id="路径_47665" data-name="路径 47665" d="M453.317,322.521v-.036a.508.508,0,0,0-1-.132.128.128,0,0,0-.01.036.511.511,0,1,0,1.005.132Z" transform="translate(-441.465 -320.038)" fill="#fff"/>
      <path id="路径_47666" data-name="路径 47666" d="M452.94,320.117c-.453-.053-.45.661,0,.711S453.392,320.171,452.94,320.117Z" transform="translate(-441.452 -320.114)" fill="#fff"/>
      <path id="路径_47667" data-name="路径 47667" d="M461.172,324.421a.426.426,0,0,0-.5.07c-.006,0-.012.012-.022.015a.382.382,0,0,0-.056.462l.019.021a.43.43,0,0,0,.354.2.41.41,0,0,0,.4-.3A.415.415,0,0,0,461.172,324.421Z" transform="translate(-441.127 -319.94)" fill="#fff"/>
      <path id="路径_47668" data-name="路径 47668" d="M462.35,323.2c-.461-.057-.456.662,0,.714S462.806,323.252,462.35,323.2Z" transform="translate(-441.067 -319.988)" fill="#fff"/>
      <path id="路径_47669" data-name="路径 47669" d="M444.931,340.161a.435.435,0,0,0-.425-.428.428.428,0,0,0-.431.425.437.437,0,0,0,.428.43A.428.428,0,0,0,444.931,340.161Z" transform="translate(-441.802 -319.31)" fill="#fff"/>
      <path id="路径_47670" data-name="路径 47670" d="M452.137,344.009a.6.6,0,0,0-.577-.58.579.579,0,0,0-.58.577.586.586,0,0,0,.576.576A.575.575,0,0,0,452.137,344.009Z" transform="translate(-441.519 -319.159)" fill="#fff"/>
      <path id="路径_47671" data-name="路径 47671" d="M451.041,345.427c-.492-.053-.487.71,0,.77S451.526,345.487,451.041,345.427Z" transform="translate(-441.531 -319.077)" fill="#fff"/>
      <path id="路径_47672" data-name="路径 47672" d="M462.183,340.714a.572.572,0,0,0-.56-.557.556.556,0,0,0-.562.555.578.578,0,0,0,.558.564A.564.564,0,0,0,462.183,340.714Z" transform="translate(-441.105 -319.293)" fill="#fff"/>
      <path id="路径_47673" data-name="路径 47673" d="M454.638,337.349a9.665,9.665,0,0,0-1.167-2.193c-.082-.1-.269-.051-.228.1.217.8.568,1.554.857,2.326a6.081,6.081,0,0,0,.812,1.872c.11.126.3.012.3-.131A4.667,4.667,0,0,0,454.638,337.349Z" transform="translate(-441.426 -319.5)" fill="#fff"/>
      <path id="路径_47674" data-name="路径 47674" d="M450.113,331.928c-.168-.06-.36-.332-.478-.464-.25-.269-.5-.533-.753-.807-.354-.387-.715-1.122-1.272-1.166a.114.114,0,0,0-.116.088c-.084.613.718,1.172,1.12,1.562a2.5,2.5,0,0,0,1.49.849A.032.032,0,0,0,450.113,331.928Z" transform="translate(-441.662 -319.73)" fill="#fff"/>
      <path id="路径_47675" data-name="路径 47675" d="M451.181,328.407a3.582,3.582,0,0,0-.442-1.586.166.166,0,0,0-.3.039,3.148,3.148,0,0,0,.147,1.471c.132.586.278,1.176.454,1.752a.119.119,0,0,0,.233-.033A6.438,6.438,0,0,0,451.181,328.407Z" transform="translate(-441.543 -319.843)" fill="#fff"/>
      <path id="路径_47676" data-name="路径 47676" d="M453.628,330.407c-.007,0-.008.013,0,.013S453.638,330.407,453.628,330.407Z" transform="translate(-441.41 -319.693)" fill="#fff"/>
      <path id="路径_47677" data-name="路径 47677" d="M455.234,327.266a11.511,11.511,0,0,0-1.8,3.163c-.125.272.262.508.413.232.575-1.046,1.242-2.023,1.842-3.048A.29.29,0,0,0,455.234,327.266Z" transform="translate(-441.419 -319.825)" fill="#fff"/>
      <path id="路径_47678" data-name="路径 47678" d="M457.985,330.477a6.112,6.112,0,0,0-2.906,1.058c-.114.1.016.235.13.222a29.31,29.31,0,0,0,2.915-.77C458.462,330.9,458.316,330.42,457.985,330.477Z" transform="translate(-441.352 -319.69)" fill="#fff"/>
      <path id="路径_47679" data-name="路径 47679" d="M449.254,333.764c-.479.252-.962.49-1.437.745-.358.19-.966.423-1.053.859a.179.179,0,0,0,.171.221.726.726,0,0,0,.527-.2c.248-.167.509-.316.773-.461a9.21,9.21,0,0,0,1.29-.816C449.731,333.943,449.465,333.651,449.254,333.764Z" transform="translate(-441.691 -319.556)" fill="#fff"/>
      <path id="路径_47680" data-name="路径 47680" d="M451.321,335.157a.179.179,0,0,0-.333-.088,8.519,8.519,0,0,0-.649,1.449c-.187.414-.5.859-.366,1.326a.143.143,0,0,0,.211.085c.449-.2.587-.742.761-1.165A3.379,3.379,0,0,0,451.321,335.157Z" transform="translate(-441.561 -319.505)" fill="#fff"/>
      <path id="路径_47681" data-name="路径 47681" d="M458.438,334.945a2.974,2.974,0,0,0-1.291-.631,4.357,4.357,0,0,0-1.754-.48.047.047,0,0,0-.031.08,8.678,8.678,0,0,0,1.563.941c.43.224.972.529,1.45.332A.147.147,0,0,0,458.438,334.945Z" transform="translate(-441.34 -319.552)" fill="#fff"/>
    </g>
    <g id="组_10806" data-name="组 10806" transform="translate(900.553 76.1) rotate(19)" opacity="0.46">
      <path id="路径_47649-2" data-name="路径 47649" d="M452.365,331.513c.031-2.572.276-5.188.2-7.752a.14.14,0,0,0-.274-.034c-.817,2.268-.644,4.987-.666,7.362-.024,2.617-.292,5.144-.506,7.738-.031.387.541.431.647.086C452.475,336.6,452.336,333.907,452.365,331.513Z" transform="translate(-443.648 -320.783)" fill="#fff"/>
      <path id="路径_47650-2" data-name="路径 47650" d="M457.259,325.462c-1.473,1.029-2.7,2.475-4.066,3.648-1.3,1.116-2.593,2.24-3.915,3.329-.414.34-4.91,3.86-3.813,4.376.5.233.945-.653,1.2-.927a34.593,34.593,0,0,1,3.03-2.71c1.262-1.06,2.47-2.179,3.7-3.273,1.4-1.246,3.18-2.593,3.973-4.333C457.4,325.506,457.331,325.412,457.259,325.462Z" transform="translate(-442.539 -321.13)" fill="#fff"/>
      <path id="路径_47651-2" data-name="路径 47651" d="M457.839,336.744c-1.007-.84-2.094-1.567-3.079-2.442-1.082-.958-2.089-2-3.089-3.045-1.67-1.748-3.458-4.2-5.706-5.217-.083-.037-.2.047-.136.139a20.246,20.246,0,0,0,2.327,2.539c.992,1.032,1.961,2.085,2.941,3.126,1.834,1.948,3.879,4.26,6.294,5.493C457.753,337.52,458.177,337.03,457.839,336.744Z" transform="translate(-442.638 -321.241)" fill="#fff"/>
      <path id="路径_47652-2" data-name="路径 47652" d="M454.142,323.217a6.582,6.582,0,0,0-1.732,1.948c-.325-.545-.55-1.131-.9-1.666a.252.252,0,0,0-.458.2,6.151,6.151,0,0,0,1.064,2.231.337.337,0,0,0,.574-.007,8.022,8.022,0,0,0,1.645-2.553A.134.134,0,0,0,454.142,323.217Z" transform="translate(-443.635 -320.701)" fill="#fff"/>
      <path id="路径_47653-2" data-name="路径 47653" d="M459.959,326.68a12.2,12.2,0,0,1-1.426.026,6.713,6.713,0,0,0,.069-1.987c-.022-.149-.216-.107-.258,0a15.884,15.884,0,0,0-.558,2.217.359.359,0,0,0,.338.442,7.643,7.643,0,0,0,1.834.029C460.414,327.358,460.432,326.648,459.959,326.68Z" transform="translate(-444.916 -320.973)" fill="#fff"/>
      <path id="路径_47654-2" data-name="路径 47654" d="M446.94,324.944c-.182-.366-.668-.088-.612.258a10.181,10.181,0,0,1,.469,1.988,10.313,10.313,0,0,0-1.721.122.1.1,0,0,0-.023.181,3.841,3.841,0,0,0,2.037.311.331.331,0,0,0,.31-.24A4.232,4.232,0,0,0,446.94,324.944Z" transform="translate(-442.484 -321.001)" fill="#fff"/>
      <path id="路径_47655-2" data-name="路径 47655" d="M446.619,338.869c.032-.505.121-1,.17-1.506a.324.324,0,0,0-.322-.323,10.577,10.577,0,0,0-1.188.109c-.356.055-1,.279-1.343.114a.042.042,0,0,0-.041.074,3.849,3.849,0,0,0,2.183.342,3.173,3.173,0,0,0,.026,2.225.179.179,0,0,0,.305,0A2.562,2.562,0,0,0,446.619,338.869Z" transform="translate(-442.269 -323.338)" fill="#fff"/>
      <path id="路径_47656-2" data-name="路径 47656" d="M453.426,341.252a2.722,2.722,0,0,0-2.247-1.36,2.248,2.248,0,0,0-1.89,1.582c0,.019.016.028.032.026.75-.139,1.156-1.088,2.021-.945.727.119,1.184.848,1.908.926A.182.182,0,0,0,453.426,341.252Z" transform="translate(-443.3 -323.881)" fill="#fff"/>
      <path id="路径_47657-2" data-name="路径 47657" d="M460.9,337.581a2.537,2.537,0,0,0-2.286.211,1.393,1.393,0,0,0-.3.84,3.264,3.264,0,0,0,0,1.427.09.09,0,0,0,.163.023c.345-.515.122-1.343.57-1.8.126-.129.372-.093.531-.093.409,0,.821.117,1.227.087A.355.355,0,0,0,460.9,337.581Z" transform="translate(-445.004 -323.409)" fill="#fff"/>
      <path id="路径_47658-2" data-name="路径 47658" d="M457.894,332.375a50.037,50.037,0,0,0-7-.042c-1.218.024-2.435.019-3.65-.053a25.946,25.946,0,0,0-3.8-.348.114.114,0,0,0-.054.211c1.683,1.26,4.7,1.018,6.689,1.023,2.612.006,5.209-.117,7.82.04C458.438,333.24,458.411,332.437,457.894,332.375Z" transform="translate(-442.165 -322.361)" fill="#fff"/>
      <path id="路径_47659-2" data-name="路径 47659" d="M445.63,331.81a1.913,1.913,0,0,0-.733-.666c-.25-.171-.6-.45-.924-.356a.055.055,0,0,0-.039.038c-.1.478.6.811.894,1.061.073.061.3.2.239.313-.166.3-.635.352-.859.6a.238.238,0,0,0,.169.4C445.047,333.219,445.957,332.537,445.63,331.81Z" transform="translate(-442.278 -322.143)" fill="#fff"/>
      <path id="路径_47660-2" data-name="路径 47660" d="M460.522,331.082a1.91,1.91,0,0,0-1.9,1.305c-.257.752.665,1.94,1.458,1.566a.265.265,0,0,0,.092-.359c-.207-.469-.995-.435-.833-1.1.148-.6.854-.775,1.253-1.146A.158.158,0,0,0,460.522,331.082Z" transform="translate(-445.069 -322.199)" fill="#fff"/>
      <path id="路径_47661-2" data-name="路径 47661" d="M462.617,332.478c-.5-.061-.5.727,0,.786S463.114,332.535,462.617,332.478Z" transform="translate(-445.767 -322.468)" fill="#fff"/>
      <path id="路径_47662-2" data-name="路径 47662" d="M442.518,331.591a.339.339,0,0,0-.626.172.514.514,0,0,0,.054.215.237.237,0,0,0,.2.114h.019A.34.34,0,0,0,442.518,331.591Z" transform="translate(-441.891 -322.27)" fill="#fff"/>
      <path id="路径_47663-2" data-name="路径 47663" d="M445.129,325.164a.335.335,0,0,0-.4.406.33.33,0,1,0,.4-.406Z" transform="translate(-442.428 -321.074)" fill="#fff"/>
      <path id="路径_47664-2" data-name="路径 47664" d="M443.716,324.078c-.348-.038-.345.5,0,.544S444.058,324.12,443.716,324.078Z" transform="translate(-442.189 -320.869)" fill="#fff"/>
      <path id="路径_47665-2" data-name="路径 47665" d="M453.09,322.4v-.028a.4.4,0,0,0-.774-.1.1.1,0,0,0-.008.028.4.4,0,1,0,.782.1Z" transform="translate(-443.872 -320.471)" fill="#fff"/>
      <path id="路径_47666-2" data-name="路径 47666" d="M452.865,320.117c-.352-.041-.35.514,0,.553S453.216,320.159,452.865,320.117Z" transform="translate(-443.931 -320.114)" fill="#fff"/>
      <path id="路径_47667-2" data-name="路径 47667" d="M461.032,324.409a.331.331,0,0,0-.388.054s-.01.01-.017.011a.3.3,0,0,0-.044.359l.015.016a.334.334,0,0,0,.275.156.319.319,0,0,0,.308-.236A.323.323,0,0,0,461.032,324.409Z" transform="translate(-445.443 -320.925)" fill="#fff"/>
      <path id="路径_47668-2" data-name="路径 47668" d="M462.273,323.2c-.359-.045-.355.515,0,.555S462.628,323.24,462.273,323.2Z" transform="translate(-445.722 -320.702)" fill="#fff"/>
      <path id="路径_47669-2" data-name="路径 47669" d="M444.74,340.065a.338.338,0,0,0-.33-.333.333.333,0,0,0-.335.33.34.34,0,0,0,.333.334A.333.333,0,0,0,444.74,340.065Z" transform="translate(-442.307 -323.85)" fill="#fff"/>
      <path id="路径_47670-2" data-name="路径 47670" d="M451.879,343.879a.462.462,0,0,0-.448-.451.45.45,0,0,0-.451.448.456.456,0,0,0,.448.448A.447.447,0,0,0,451.879,343.879Z" transform="translate(-443.622 -324.554)" fill="#fff"/>
      <path id="路径_47671-2" data-name="路径 47671" d="M450.959,345.427c-.383-.041-.379.552,0,.6S451.336,345.473,450.959,345.427Z" transform="translate(-443.563 -324.935)" fill="#fff"/>
      <path id="路径_47672-2" data-name="路径 47672" d="M461.934,340.589a.445.445,0,0,0-.435-.433.432.432,0,0,0-.437.431.45.45,0,0,0,.434.439A.439.439,0,0,0,461.934,340.589Z" transform="translate(-445.542 -323.931)" fill="#fff"/>
      <path id="路径_47673-2" data-name="路径 47673" d="M454.327,336.85a7.516,7.516,0,0,0-.907-1.706c-.064-.08-.209-.04-.177.078.168.619.442,1.209.666,1.809a4.73,4.73,0,0,0,.632,1.456c.086.1.23.009.237-.1A3.629,3.629,0,0,0,454.327,336.85Z" transform="translate(-444.052 -322.969)" fill="#fff"/>
      <path id="路径_47674-2" data-name="路径 47674" d="M449.53,331.386c-.13-.047-.28-.258-.372-.361-.194-.209-.393-.414-.585-.627-.275-.3-.556-.873-.989-.907a.089.089,0,0,0-.09.068c-.065.477.559.911.871,1.215a1.947,1.947,0,0,0,1.158.661A.025.025,0,0,0,449.53,331.386Z" transform="translate(-442.957 -321.9)" fill="#fff"/>
      <path id="路径_47675-2" data-name="路径 47675" d="M451.005,328.036a2.786,2.786,0,0,0-.344-1.234.129.129,0,0,0-.235.031,2.448,2.448,0,0,0,.114,1.144c.1.456.216.915.353,1.362a.093.093,0,0,0,.181-.026A5.007,5.007,0,0,0,451.005,328.036Z" transform="translate(-443.51 -321.376)" fill="#fff"/>
      <path id="路径_47676-2" data-name="路径 47676" d="M453.627,330.407c-.006,0-.006.01,0,.01S453.634,330.407,453.627,330.407Z" transform="translate(-444.125 -322.074)" fill="#fff"/>
      <path id="路径_47677-2" data-name="路径 47677" d="M454.828,327.248a8.952,8.952,0,0,0-1.4,2.46c-.1.211.2.4.322.18.447-.814.966-1.573,1.433-2.37A.225.225,0,0,0,454.828,327.248Z" transform="translate(-444.084 -321.46)" fill="#fff"/>
      <path id="路径_47678-2" data-name="路径 47678" d="M457.329,330.476a4.753,4.753,0,0,0-2.26.823c-.088.075.012.183.1.172a22.8,22.8,0,0,0,2.267-.6C457.7,330.808,457.587,330.432,457.329,330.476Z" transform="translate(-444.394 -322.087)" fill="#fff"/>
      <path id="路径_47679-2" data-name="路径 47679" d="M448.7,333.758c-.373.2-.748.381-1.117.58-.278.147-.751.329-.819.668a.139.139,0,0,0,.133.172.564.564,0,0,0,.41-.159c.193-.13.4-.246.6-.358a7.159,7.159,0,0,0,1-.635C449.071,333.9,448.864,333.67,448.7,333.758Z" transform="translate(-442.818 -322.709)" fill="#fff"/>
      <path id="路径_47680-2" data-name="路径 47680" d="M451.014,335.118a.139.139,0,0,0-.259-.069,6.623,6.623,0,0,0-.5,1.127c-.146.322-.391.668-.285,1.031a.111.111,0,0,0,.164.066c.349-.152.457-.577.592-.906A2.628,2.628,0,0,0,451.014,335.118Z" transform="translate(-443.424 -322.946)" fill="#fff"/>
      <path id="路径_47681-2" data-name="路径 47681" d="M457.75,334.7a2.313,2.313,0,0,0-1-.491,3.388,3.388,0,0,0-1.364-.373.037.037,0,0,0-.024.062,6.75,6.75,0,0,0,1.215.732c.334.174.756.411,1.128.258A.114.114,0,0,0,457.75,334.7Z" transform="translate(-444.454 -322.727)" fill="#fff"/>
    </g>
    <g id="组_10807" data-name="组 10807" transform="matrix(0.848, 0.53, -0.53, 0.848, 1413.777, 586.072)">
      <path id="路径_47649-3" data-name="路径 47649" d="M452.833,334.465c.042-3.535.379-7.13.273-10.654a.192.192,0,0,0-.377-.047c-1.123,3.116-.886,6.853-.916,10.118-.034,3.6-.4,7.07-.7,10.635-.042.532.743.593.889.119C452.984,341.454,452.793,337.755,452.833,334.465Z" transform="translate(-440.852 -319.719)" fill="#fff"/>
      <path id="路径_47650-3" data-name="路径 47650" d="M461.739,325.467c-2.024,1.414-3.712,3.4-5.589,5.013-1.784,1.534-3.564,3.079-5.381,4.575-.568.467-6.748,5.305-5.24,6.014.681.32,1.3-.9,1.653-1.274a47.555,47.555,0,0,1,4.165-3.724c1.734-1.456,3.395-3,5.083-4.5,1.919-1.712,4.37-3.564,5.461-5.955C461.931,325.528,461.838,325.4,461.739,325.467Z" transform="translate(-441.508 -319.514)" fill="#fff"/>
      <path id="路径_47651-3" data-name="路径 47651" d="M462.341,340.755c-1.384-1.155-2.878-2.154-4.231-3.356-1.488-1.316-2.871-2.75-4.245-4.185-2.3-2.4-4.753-5.776-7.843-7.17-.115-.051-.273.065-.187.191a27.826,27.826,0,0,0,3.2,3.489c1.363,1.418,2.7,2.865,4.042,4.3,2.521,2.677,5.332,5.855,8.651,7.549C462.223,341.821,462.806,341.147,462.341,340.755Z" transform="translate(-441.45 -319.448)" fill="#fff"/>
      <path id="路径_47652-3" data-name="路径 47652" d="M455.3,323.225a9.046,9.046,0,0,0-2.38,2.677c-.446-.749-.757-1.554-1.232-2.29a.347.347,0,0,0-.629.269,8.453,8.453,0,0,0,1.462,3.067.463.463,0,0,0,.789-.009c.783-1.069,1.948-2.189,2.261-3.509A.185.185,0,0,0,455.3,323.225Z" transform="translate(-440.859 -319.767)" fill="#fff"/>
      <path id="路径_47653-3" data-name="路径 47653" d="M460.777,327.45a16.767,16.767,0,0,1-1.96.036,9.227,9.227,0,0,0,.095-2.73c-.03-.2-.3-.147-.355,0a21.831,21.831,0,0,0-.768,3.048.493.493,0,0,0,.464.607,10.507,10.507,0,0,0,2.521.04C461.4,328.381,461.427,327.406,460.777,327.45Z" transform="translate(-440.103 -319.607)" fill="#fff"/>
      <path id="路径_47654-3" data-name="路径 47654" d="M447.666,325.009c-.251-.5-.918-.121-.841.355a13.993,13.993,0,0,1,.644,2.732,14.17,14.17,0,0,0-2.365.168.136.136,0,0,0-.032.249,5.279,5.279,0,0,0,2.8.427.455.455,0,0,0,.426-.33A5.816,5.816,0,0,0,447.666,325.009Z" transform="translate(-441.541 -319.59)" fill="#fff"/>
      <path id="路径_47655-3" data-name="路径 47655" d="M447.647,339.554c.043-.694.166-1.38.234-2.07a.445.445,0,0,0-.443-.444,14.533,14.533,0,0,0-1.632.15c-.49.076-1.376.384-1.846.157a.058.058,0,0,0-.056.1,5.29,5.29,0,0,0,3,.469c-.2,1.009-.495,2.24.036,3.057a.246.246,0,0,0,.419,0A3.521,3.521,0,0,0,447.647,339.554Z" transform="translate(-441.667 -318.208)" fill="#fff"/>
      <path id="路径_47656-3" data-name="路径 47656" d="M454.975,341.761a3.741,3.741,0,0,0-3.089-1.869,3.09,3.09,0,0,0-2.6,2.174c0,.027.022.038.043.036,1.031-.191,1.589-1.5,2.777-1.3,1,.164,1.627,1.165,2.622,1.273A.25.25,0,0,0,454.975,341.761Z" transform="translate(-441.058 -317.887)" fill="#fff"/>
      <path id="路径_47657-3" data-name="路径 47657" d="M461.9,337.643c-.865-.271-2.436-.435-3.142.289a1.915,1.915,0,0,0-.406,1.155,4.486,4.486,0,0,0,0,1.961.124.124,0,0,0,.224.031c.474-.708.167-1.846.783-2.473.174-.177.511-.128.73-.128.562,0,1.128.16,1.687.12A.488.488,0,0,0,461.9,337.643Z" transform="translate(-440.051 -318.166)" fill="#fff"/>
      <path id="路径_47658-3" data-name="路径 47658" d="M463.346,332.548a68.763,68.763,0,0,0-9.624-.058c-1.675.033-3.347.026-5.017-.072-1.719-.1-3.511-.635-5.226-.478a.157.157,0,0,0-.075.29c2.313,1.731,6.463,1.4,9.193,1.406,3.589.009,7.159-.16,10.747.054C464.094,333.737,464.057,332.634,463.346,332.548Z" transform="translate(-441.729 -318.786)" fill="#fff"/>
      <path id="路径_47659-3" data-name="路径 47659" d="M446.268,332.2a2.63,2.63,0,0,0-1.007-.915c-.344-.235-.827-.619-1.27-.49a.075.075,0,0,0-.053.052c-.132.656.818,1.115,1.228,1.458.1.083.412.28.328.429-.228.409-.873.484-1.18.822a.327.327,0,0,0,.233.552C445.467,334.136,446.718,333.2,446.268,332.2Z" transform="translate(-441.662 -318.914)" fill="#fff"/>
      <path id="路径_47660-3" data-name="路径 47660" d="M461.249,331.09a2.625,2.625,0,0,0-2.609,1.794c-.354,1.034.914,2.667,2,2.152a.364.364,0,0,0,.127-.494c-.285-.644-1.367-.6-1.145-1.519.2-.825,1.174-1.065,1.722-1.574A.217.217,0,0,0,461.249,331.09Z" transform="translate(-440.012 -318.881)" fill="#fff"/>
      <path id="路径_47661-3" data-name="路径 47661" d="M462.757,332.48c-.691-.084-.687,1,0,1.08S463.442,332.557,462.757,332.48Z" transform="translate(-439.599 -318.722)" fill="#fff"/>
      <path id="路径_47662-3" data-name="路径 47662" d="M442.752,331.65a.466.466,0,0,0-.86.237.707.707,0,0,0,.074.3.326.326,0,0,0,.279.157h.026A.467.467,0,0,0,442.752,331.65Z" transform="translate(-441.891 -318.839)" fill="#fff"/>
      <path id="路径_47663-3" data-name="路径 47663" d="M445.285,325.168a.46.46,0,0,0-.556.559.453.453,0,1,0,.556-.559Z" transform="translate(-441.573 -319.547)" fill="#fff"/>
      <path id="路径_47664-3" data-name="路径 47664" d="M443.813,324.078c-.478-.052-.474.691,0,.748S444.284,324.136,443.813,324.078Z" transform="translate(-441.715 -319.668)" fill="#fff"/>
      <path id="路径_47665-3" data-name="路径 47665" d="M453.388,322.558v-.039a.543.543,0,0,0-1.064-.141.138.138,0,0,0-.011.039.547.547,0,1,0,1.075.141Z" transform="translate(-440.719 -319.903)" fill="#fff"/>
      <path id="路径_47666-3" data-name="路径 47666" d="M452.964,320.117c-.484-.057-.481.706,0,.76S453.446,320.175,452.964,320.117Z" transform="translate(-440.685 -320.114)" fill="#fff"/>
      <path id="路径_47667-3" data-name="路径 47667" d="M461.215,324.425a.456.456,0,0,0-.533.075c-.007,0-.013.013-.023.016a.408.408,0,0,0-.06.494l.02.022a.46.46,0,0,0,.378.215.438.438,0,0,0,.423-.325A.444.444,0,0,0,461.215,324.425Z" transform="translate(-439.791 -319.635)" fill="#fff"/>
      <path id="路径_47668-3" data-name="路径 47668" d="M462.373,323.2c-.493-.061-.487.708,0,.763S462.861,323.256,462.373,323.2Z" transform="translate(-439.626 -319.767)" fill="#fff"/>
      <path id="路径_47669-3" data-name="路径 47669" d="M444.99,340.191a.465.465,0,0,0-.454-.457.458.458,0,0,0-.46.454.467.467,0,0,0,.457.459A.457.457,0,0,0,444.99,340.191Z" transform="translate(-441.645 -317.905)" fill="#fff"/>
      <path id="路径_47670-3" data-name="路径 47670" d="M452.216,344.049a.636.636,0,0,0-.616-.62.619.619,0,0,0-.62.616.627.627,0,0,0,.615.615A.615.615,0,0,0,452.216,344.049Z" transform="translate(-440.868 -317.489)" fill="#fff"/>
      <path id="路径_47671-3" data-name="路径 47671" d="M451.066,345.427c-.526-.057-.521.759,0,.823S451.584,345.491,451.066,345.427Z" transform="translate(-440.902 -317.264)" fill="#fff"/>
      <path id="路径_47672-3" data-name="路径 47672" d="M462.26,340.752a.612.612,0,0,0-.6-.6.594.594,0,0,0-.6.593.618.618,0,0,0,.6.6A.6.6,0,0,0,462.26,340.752Z" transform="translate(-439.732 -317.858)" fill="#fff"/>
      <path id="路径_47673-3" data-name="路径 47673" d="M454.735,337.5a10.33,10.33,0,0,0-1.247-2.344c-.088-.11-.287-.055-.244.107.231.85.608,1.661.916,2.486a6.5,6.5,0,0,0,.868,2c.118.135.316.012.326-.14A4.987,4.987,0,0,0,454.735,337.5Z" transform="translate(-440.613 -318.426)" fill="#fff"/>
      <path id="路径_47674-3" data-name="路径 47674" d="M450.294,332.1c-.179-.065-.385-.355-.511-.5-.267-.287-.54-.57-.8-.862-.378-.414-.764-1.2-1.36-1.246a.122.122,0,0,0-.124.094c-.09.655.768,1.253,1.2,1.67a2.677,2.677,0,0,0,1.592.908A.034.034,0,0,0,450.294,332.1Z" transform="translate(-441.26 -319.058)" fill="#fff"/>
      <path id="路径_47675-3" data-name="路径 47675" d="M451.236,328.521a3.829,3.829,0,0,0-.473-1.7.178.178,0,0,0-.323.042,3.364,3.364,0,0,0,.157,1.572c.141.626.3,1.257.485,1.872a.128.128,0,0,0,.249-.036A6.882,6.882,0,0,0,451.236,328.521Z" transform="translate(-440.934 -319.368)" fill="#fff"/>
      <path id="路径_47676-3" data-name="路径 47676" d="M453.629,330.407c-.008,0-.009.014,0,.014S453.639,330.407,453.629,330.407Z" transform="translate(-440.57 -318.955)" fill="#fff"/>
      <path id="路径_47677-3" data-name="路径 47677" d="M455.36,327.272a12.3,12.3,0,0,0-1.926,3.381c-.133.29.28.543.442.248.614-1.118,1.327-2.162,1.969-3.258A.309.309,0,0,0,455.36,327.272Z" transform="translate(-440.594 -319.319)" fill="#fff"/>
      <path id="路径_47678-3" data-name="路径 47678" d="M458.188,330.478a6.532,6.532,0,0,0-3.106,1.131c-.121.1.017.251.139.237a31.333,31.333,0,0,0,3.115-.823C458.7,330.934,458.542,330.416,458.188,330.478Z" transform="translate(-440.411 -318.948)" fill="#fff"/>
      <path id="路径_47679-3" data-name="路径 47679" d="M449.426,333.766c-.512.269-1.028.524-1.536.8-.383.2-1.032.452-1.126.918a.192.192,0,0,0,.182.236.775.775,0,0,0,.563-.218c.265-.179.544-.338.827-.493a9.835,9.835,0,0,0,1.379-.872C449.935,333.957,449.651,333.645,449.426,333.766Z" transform="translate(-441.343 -318.58)" fill="#fff"/>
      <path id="路径_47680-3" data-name="路径 47680" d="M451.416,335.169a.191.191,0,0,0-.356-.094,9.1,9.1,0,0,0-.693,1.549c-.2.443-.538.918-.392,1.417a.153.153,0,0,0,.226.091c.479-.209.628-.793.814-1.245A3.612,3.612,0,0,0,451.416,335.169Z" transform="translate(-440.985 -318.44)" fill="#fff"/>
      <path id="路径_47681-3" data-name="路径 47681" d="M458.65,335.021a3.178,3.178,0,0,0-1.38-.674,4.657,4.657,0,0,0-1.875-.513.05.05,0,0,0-.033.086,9.277,9.277,0,0,0,1.67,1.006c.459.239,1.039.565,1.55.355A.157.157,0,0,0,458.65,335.021Z" transform="translate(-440.376 -318.569)" fill="#fff"/>
    </g>
    <g id="组_10808" data-name="组 10808" transform="matrix(0.848, 0.53, -0.53, 0.848, 1352.306, 23.858)" opacity="0.1">
      <path id="路径_47649-4" data-name="路径 47649" d="M451.927,328.747c.02-1.67.179-3.368.129-5.033a.091.091,0,0,0-.178-.022,14.847,14.847,0,0,0-.433,4.78c-.016,1.7-.19,3.34-.329,5.024-.02.251.351.28.42.056A17.452,17.452,0,0,0,451.927,328.747Z" transform="translate(-446.267 -321.78)" fill="#fff"/>
      <path id="路径_47650-4" data-name="路径 47650" d="M453.062,325.457c-.956.668-1.754,1.607-2.64,2.368-.843.725-1.684,1.454-2.542,2.161-.269.221-3.188,2.506-2.476,2.841.322.151.613-.424.781-.6a22.46,22.46,0,0,1,1.967-1.759c.819-.688,1.6-1.415,2.4-2.125a9.7,9.7,0,0,0,2.58-2.813C453.153,325.486,453.109,325.425,453.062,325.457Z" transform="translate(-443.505 -322.644)" fill="#fff"/>
      <path id="路径_47651-4" data-name="路径 47651" d="M453.62,332.987c-.654-.546-1.36-1.018-2-1.585-.7-.622-1.356-1.3-2.005-1.977-1.084-1.135-2.245-2.728-3.705-3.387-.054-.024-.129.03-.088.09a13.145,13.145,0,0,0,1.511,1.648c.644.67,1.273,1.353,1.91,2.03a16.522,16.522,0,0,0,4.087,3.566C453.565,333.491,453.84,333.172,453.62,332.987Z" transform="translate(-443.751 -322.921)" fill="#fff"/>
      <path id="路径_47652-4" data-name="路径 47652" d="M453.057,323.21a4.273,4.273,0,0,0-1.124,1.265c-.211-.354-.357-.734-.582-1.082a.164.164,0,0,0-.3.127,3.993,3.993,0,0,0,.691,1.449.219.219,0,0,0,.373,0,5.208,5.208,0,0,0,1.068-1.658A.087.087,0,0,0,453.057,323.21Z" transform="translate(-446.236 -321.576)" fill="#fff"/>
      <path id="路径_47653-4" data-name="路径 47653" d="M459.192,325.959a7.916,7.916,0,0,1-.926.017,4.359,4.359,0,0,0,.045-1.29c-.014-.1-.14-.069-.168,0a10.311,10.311,0,0,0-.363,1.44.233.233,0,0,0,.219.287,4.963,4.963,0,0,0,1.191.019C459.488,326.4,459.5,325.938,459.192,325.959Z" transform="translate(-449.425 -322.253)" fill="#fff"/>
      <path id="路径_47654-4" data-name="路径 47654" d="M446.261,324.884c-.118-.238-.434-.057-.4.168a6.614,6.614,0,0,1,.3,1.29,6.69,6.69,0,0,0-1.117.079.064.064,0,0,0-.015.118,2.494,2.494,0,0,0,1.322.2.215.215,0,0,0,.2-.156A2.747,2.747,0,0,0,446.261,324.884Z" transform="translate(-443.367 -322.324)" fill="#fff"/>
      <path id="路径_47655-4" data-name="路径 47655" d="M445.657,338.228c.021-.328.078-.652.11-.978a.21.21,0,0,0-.209-.21,6.863,6.863,0,0,0-.771.071c-.231.036-.65.181-.872.074a.027.027,0,0,0-.026.048,2.5,2.5,0,0,0,1.418.222,2.06,2.06,0,0,0,.017,1.444.116.116,0,0,0,.2,0A1.664,1.664,0,0,0,445.657,338.228Z" transform="translate(-442.832 -328.143)" fill="#fff"/>
      <path id="路径_47656-4" data-name="路径 47656" d="M451.975,340.775a1.768,1.768,0,0,0-1.459-.883,1.46,1.46,0,0,0-1.227,1.027c0,.013.011.018.021.017.487-.09.751-.706,1.312-.613.472.077.768.55,1.239.6A.118.118,0,0,0,451.975,340.775Z" transform="translate(-445.4 -329.496)" fill="#fff"/>
      <path id="路径_47657-4" data-name="路径 47657" d="M459.966,337.522a1.647,1.647,0,0,0-1.484.137.9.9,0,0,0-.192.546,2.119,2.119,0,0,0,0,.927.058.058,0,0,0,.106.015c.224-.334.079-.872.37-1.168.082-.084.241-.06.345-.06.265,0,.533.076.8.057A.231.231,0,0,0,459.966,337.522Z" transform="translate(-449.644 -328.321)" fill="#fff"/>
      <path id="路径_47658-4" data-name="路径 47658" d="M452.786,332.212a32.485,32.485,0,0,0-4.547-.027c-.791.016-1.581.012-2.37-.034a16.843,16.843,0,0,0-2.469-.226.074.074,0,0,0-.035.137c1.093.818,3.053.661,4.343.664,1.7,0,3.382-.076,5.077.026C453.14,332.774,453.122,332.253,452.786,332.212Z" transform="translate(-442.574 -325.71)" fill="#fff"/>
      <path id="路径_47659-4" data-name="路径 47659" d="M445.032,331.445a1.242,1.242,0,0,0-.476-.432c-.163-.111-.391-.292-.6-.231a.035.035,0,0,0-.025.025c-.063.31.386.527.58.689.047.039.194.132.155.2-.108.193-.413.229-.558.388a.155.155,0,0,0,.11.261C444.654,332.359,445.245,331.917,445.032,331.445Z" transform="translate(-442.856 -325.169)" fill="#fff"/>
      <path id="路径_47660-4" data-name="路径 47660" d="M459.841,331.075a1.24,1.24,0,0,0-1.233.847c-.167.488.432,1.26.947,1.017a.172.172,0,0,0,.06-.233c-.135-.3-.646-.282-.541-.717.1-.39.555-.5.814-.744A.1.1,0,0,0,459.841,331.075Z" transform="translate(-449.808 -325.307)" fill="#fff"/>
      <path id="路径_47661-4" data-name="路径 47661" d="M462.485,332.477c-.326-.039-.324.472,0,.51S462.808,332.514,462.485,332.477Z" transform="translate(-451.544 -325.978)" fill="#fff"/>
      <path id="路径_47662-4" data-name="路径 47662" d="M442.3,331.537a.22.22,0,0,0-.406.112.334.334,0,0,0,.035.14.154.154,0,0,0,.132.074h.012A.22.22,0,0,0,442.3,331.537Z" transform="translate(-441.891 -325.485)" fill="#fff"/>
      <path id="路径_47663-4" data-name="路径 47663" d="M444.983,325.16a.218.218,0,0,0-.263.264.214.214,0,1,0,.263-.264Z" transform="translate(-443.229 -322.504)" fill="#fff"/>
      <path id="路径_47664-4" data-name="路径 47664" d="M443.625,324.077c-.226-.025-.224.327,0,.353S443.847,324.1,443.625,324.077Z" transform="translate(-442.633 -321.993)" fill="#fff"/>
      <path id="路径_47665-4" data-name="路径 47665" d="M452.811,322.257v-.018a.257.257,0,0,0-.5-.067.063.063,0,0,0-.005.018.258.258,0,1,0,.508.067Z" transform="translate(-446.826 -321.003)" fill="#fff"/>
      <path id="路径_47666-4" data-name="路径 47666" d="M452.773,320.116c-.229-.027-.227.334,0,.359S453,320.143,452.773,320.116Z" transform="translate(-446.972 -320.114)" fill="#fff"/>
      <path id="路径_47667-4" data-name="路径 47667" d="M460.86,324.395a.215.215,0,0,0-.252.035s-.006.006-.011.007a.193.193,0,0,0-.028.233l.009.011a.217.217,0,0,0,.179.1.207.207,0,0,0,.2-.153A.21.21,0,0,0,460.86,324.395Z" transform="translate(-450.738 -322.132)" fill="#fff"/>
      <path id="路径_47668-4" data-name="路径 47668" d="M462.179,323.2c-.233-.029-.23.334,0,.361S462.409,323.225,462.179,323.2Z" transform="translate(-451.433 -321.577)" fill="#fff"/>
      <path id="路径_47669-4" data-name="路径 47669" d="M444.507,339.948a.219.219,0,0,0-.215-.216.216.216,0,0,0-.217.214.221.221,0,0,0,.216.217A.216.216,0,0,0,444.507,339.948Z" transform="translate(-442.927 -329.42)" fill="#fff"/>
      <path id="路径_47670-4" data-name="路径 47670" d="M451.564,343.721a.3.3,0,0,0-.291-.293.292.292,0,0,0-.293.291.3.3,0,0,0,.291.291A.29.29,0,0,0,451.564,343.721Z" transform="translate(-446.203 -331.173)" fill="#fff"/>
      <path id="路径_47671-4" data-name="路径 47671" d="M450.858,345.426c-.249-.027-.246.358,0,.389S451.1,345.456,450.858,345.426Z" transform="translate(-446.057 -332.121)" fill="#fff"/>
      <path id="路径_47672-4" data-name="路径 47672" d="M461.628,340.437a.289.289,0,0,0-.283-.281.281.281,0,0,0-.284.28.292.292,0,0,0,.282.285A.285.285,0,0,0,461.628,340.437Z" transform="translate(-450.985 -329.621)" fill="#fff"/>
      <path id="路径_47673-4" data-name="路径 47673" d="M453.945,336.237a4.878,4.878,0,0,0-.589-1.108c-.042-.052-.136-.026-.115.05.109.4.287.785.433,1.174a3.07,3.07,0,0,0,.41.945c.056.064.149.006.154-.066A2.356,2.356,0,0,0,453.945,336.237Z" transform="translate(-447.273 -327.224)" fill="#fff"/>
      <path id="路径_47674-4" data-name="路径 47674" d="M448.814,330.721c-.085-.03-.182-.168-.241-.234-.126-.136-.255-.269-.38-.407-.179-.2-.361-.567-.642-.589a.058.058,0,0,0-.058.044c-.043.31.363.592.566.789a1.264,1.264,0,0,0,.752.429A.016.016,0,0,0,448.814,330.721Z" transform="translate(-444.547 -324.562)" fill="#fff"/>
      <path id="路径_47675-4" data-name="路径 47675" d="M450.789,327.582a1.809,1.809,0,0,0-.223-.8.084.084,0,0,0-.152.02,1.589,1.589,0,0,0,.074.743c.067.3.14.594.229.885a.06.06,0,0,0,.118-.017A3.252,3.252,0,0,0,450.789,327.582Z" transform="translate(-445.923 -323.258)" fill="#fff"/>
      <path id="路径_47676-4" data-name="路径 47676" d="M453.625,330.407s0,.007,0,.007S453.63,330.407,453.625,330.407Z" transform="translate(-447.456 -324.997)" fill="#fff"/>
      <path id="路径_47677-4" data-name="路径 47677" d="M454.33,327.224a5.813,5.813,0,0,0-.91,1.6c-.063.137.132.257.209.117.29-.528.627-1.021.93-1.539A.146.146,0,0,0,454.33,327.224Z" transform="translate(-447.354 -323.467)" fill="#fff"/>
      <path id="路径_47678-4" data-name="路径 47678" d="M456.524,330.475a3.086,3.086,0,0,0-1.467.534c-.057.049.008.119.066.112a14.805,14.805,0,0,0,1.472-.389C456.765,330.69,456.692,330.446,456.524,330.475Z" transform="translate(-448.126 -325.028)" fill="#fff"/>
      <path id="路径_47679-4" data-name="路径 47679" d="M448.02,333.751c-.242.127-.486.248-.725.376-.181.1-.488.213-.532.434a.091.091,0,0,0,.086.111.367.367,0,0,0,.266-.1c.125-.085.257-.16.391-.233a4.639,4.639,0,0,0,.651-.412C448.26,333.842,448.126,333.694,448.02,333.751Z" transform="translate(-444.201 -326.577)" fill="#fff"/>
      <path id="路径_47680-4" data-name="路径 47680" d="M450.638,335.069a.09.09,0,0,0-.168-.045,4.3,4.3,0,0,0-.327.732c-.095.209-.254.434-.185.67a.072.072,0,0,0,.107.043c.227-.1.3-.375.384-.588A1.706,1.706,0,0,0,450.638,335.069Z" transform="translate(-445.709 -327.166)" fill="#fff"/>
      <path id="路径_47681-4" data-name="路径 47681" d="M456.907,334.394a1.5,1.5,0,0,0-.652-.318,2.2,2.2,0,0,0-.886-.242.024.024,0,0,0-.016.04,4.386,4.386,0,0,0,.789.475c.217.113.491.267.732.168A.074.074,0,0,0,456.907,334.394Z" transform="translate(-448.274 -326.622)" fill="#fff"/>
    </g>
    <g id="组_10809" data-name="组 10809" transform="translate(594.461 319.893) rotate(74)" opacity="0.32">
      <path id="路径_47649-5" data-name="路径 47649" d="M451.927,328.747c.02-1.67.179-3.368.129-5.033a.091.091,0,0,0-.178-.022,14.847,14.847,0,0,0-.433,4.78c-.016,1.7-.19,3.34-.329,5.024-.02.251.351.28.42.056A17.452,17.452,0,0,0,451.927,328.747Z" transform="translate(-446.267 -321.78)" fill="#fff"/>
      <path id="路径_47650-5" data-name="路径 47650" d="M453.062,325.457c-.956.668-1.754,1.607-2.64,2.368-.843.725-1.684,1.454-2.542,2.161-.269.221-3.188,2.506-2.476,2.841.322.151.613-.424.781-.6a22.46,22.46,0,0,1,1.967-1.759c.819-.688,1.6-1.415,2.4-2.125a9.7,9.7,0,0,0,2.58-2.813C453.153,325.486,453.109,325.425,453.062,325.457Z" transform="translate(-443.505 -322.644)" fill="#fff"/>
      <path id="路径_47651-5" data-name="路径 47651" d="M453.62,332.987c-.654-.546-1.36-1.018-2-1.585-.7-.622-1.356-1.3-2.005-1.977-1.084-1.135-2.245-2.728-3.705-3.387-.054-.024-.129.03-.088.09a13.145,13.145,0,0,0,1.511,1.648c.644.67,1.273,1.353,1.91,2.03a16.522,16.522,0,0,0,4.087,3.566C453.565,333.491,453.84,333.172,453.62,332.987Z" transform="translate(-443.751 -322.921)" fill="#fff"/>
      <path id="路径_47652-5" data-name="路径 47652" d="M453.057,323.21a4.273,4.273,0,0,0-1.124,1.265c-.211-.354-.357-.734-.582-1.082a.164.164,0,0,0-.3.127,3.993,3.993,0,0,0,.691,1.449.219.219,0,0,0,.373,0,5.208,5.208,0,0,0,1.068-1.658A.087.087,0,0,0,453.057,323.21Z" transform="translate(-446.236 -321.576)" fill="#fff"/>
      <path id="路径_47653-5" data-name="路径 47653" d="M459.192,325.959a7.916,7.916,0,0,1-.926.017,4.359,4.359,0,0,0,.045-1.29c-.014-.1-.14-.069-.168,0a10.311,10.311,0,0,0-.363,1.44.233.233,0,0,0,.219.287,4.963,4.963,0,0,0,1.191.019C459.488,326.4,459.5,325.938,459.192,325.959Z" transform="translate(-449.425 -322.253)" fill="#fff"/>
      <path id="路径_47654-5" data-name="路径 47654" d="M446.261,324.884c-.118-.238-.434-.057-.4.168a6.614,6.614,0,0,1,.3,1.29,6.69,6.69,0,0,0-1.117.079.064.064,0,0,0-.015.118,2.494,2.494,0,0,0,1.322.2.215.215,0,0,0,.2-.156A2.747,2.747,0,0,0,446.261,324.884Z" transform="translate(-443.367 -322.324)" fill="#fff"/>
      <path id="路径_47655-5" data-name="路径 47655" d="M445.657,338.228c.021-.328.078-.652.11-.978a.21.21,0,0,0-.209-.21,6.863,6.863,0,0,0-.771.071c-.231.036-.65.181-.872.074a.027.027,0,0,0-.026.048,2.5,2.5,0,0,0,1.418.222,2.06,2.06,0,0,0,.017,1.444.116.116,0,0,0,.2,0A1.664,1.664,0,0,0,445.657,338.228Z" transform="translate(-442.832 -328.143)" fill="#fff"/>
      <path id="路径_47656-5" data-name="路径 47656" d="M451.975,340.775a1.768,1.768,0,0,0-1.459-.883,1.46,1.46,0,0,0-1.227,1.027c0,.013.011.018.021.017.487-.09.751-.706,1.312-.613.472.077.768.55,1.239.6A.118.118,0,0,0,451.975,340.775Z" transform="translate(-445.4 -329.496)" fill="#fff"/>
      <path id="路径_47657-5" data-name="路径 47657" d="M459.966,337.522a1.647,1.647,0,0,0-1.484.137.9.9,0,0,0-.192.546,2.119,2.119,0,0,0,0,.927.058.058,0,0,0,.106.015c.224-.334.079-.872.37-1.168.082-.084.241-.06.345-.06.265,0,.533.076.8.057A.231.231,0,0,0,459.966,337.522Z" transform="translate(-449.644 -328.321)" fill="#fff"/>
      <path id="路径_47658-5" data-name="路径 47658" d="M452.786,332.212a32.485,32.485,0,0,0-4.547-.027c-.791.016-1.581.012-2.37-.034a16.843,16.843,0,0,0-2.469-.226.074.074,0,0,0-.035.137c1.093.818,3.053.661,4.343.664,1.7,0,3.382-.076,5.077.026C453.14,332.774,453.122,332.253,452.786,332.212Z" transform="translate(-442.574 -325.71)" fill="#fff"/>
      <path id="路径_47659-5" data-name="路径 47659" d="M445.032,331.445a1.242,1.242,0,0,0-.476-.432c-.163-.111-.391-.292-.6-.231a.035.035,0,0,0-.025.025c-.063.31.386.527.58.689.047.039.194.132.155.2-.108.193-.413.229-.558.388a.155.155,0,0,0,.11.261C444.654,332.359,445.245,331.917,445.032,331.445Z" transform="translate(-442.856 -325.169)" fill="#fff"/>
      <path id="路径_47660-5" data-name="路径 47660" d="M459.841,331.075a1.24,1.24,0,0,0-1.233.847c-.167.488.432,1.26.947,1.017a.172.172,0,0,0,.06-.233c-.135-.3-.646-.282-.541-.717.1-.39.555-.5.814-.744A.1.1,0,0,0,459.841,331.075Z" transform="translate(-449.808 -325.307)" fill="#fff"/>
      <path id="路径_47661-5" data-name="路径 47661" d="M462.485,332.477c-.326-.039-.324.472,0,.51S462.808,332.514,462.485,332.477Z" transform="translate(-451.544 -325.978)" fill="#fff"/>
      <path id="路径_47662-5" data-name="路径 47662" d="M442.3,331.537a.22.22,0,0,0-.406.112.334.334,0,0,0,.035.14.154.154,0,0,0,.132.074h.012A.22.22,0,0,0,442.3,331.537Z" transform="translate(-441.891 -325.485)" fill="#fff"/>
      <path id="路径_47663-5" data-name="路径 47663" d="M444.983,325.16a.218.218,0,0,0-.263.264.214.214,0,1,0,.263-.264Z" transform="translate(-443.229 -322.504)" fill="#fff"/>
      <path id="路径_47664-5" data-name="路径 47664" d="M443.625,324.077c-.226-.025-.224.327,0,.353S443.847,324.1,443.625,324.077Z" transform="translate(-442.633 -321.993)" fill="#fff"/>
      <path id="路径_47665-5" data-name="路径 47665" d="M452.811,322.257v-.018a.257.257,0,0,0-.5-.067.063.063,0,0,0-.005.018.258.258,0,1,0,.508.067Z" transform="translate(-446.826 -321.003)" fill="#fff"/>
      <path id="路径_47666-5" data-name="路径 47666" d="M452.773,320.116c-.229-.027-.227.334,0,.359S453,320.143,452.773,320.116Z" transform="translate(-446.972 -320.114)" fill="#fff"/>
      <path id="路径_47667-5" data-name="路径 47667" d="M460.86,324.395a.215.215,0,0,0-.252.035s-.006.006-.011.007a.193.193,0,0,0-.028.233l.009.011a.217.217,0,0,0,.179.1.207.207,0,0,0,.2-.153A.21.21,0,0,0,460.86,324.395Z" transform="translate(-450.738 -322.132)" fill="#fff"/>
      <path id="路径_47668-5" data-name="路径 47668" d="M462.179,323.2c-.233-.029-.23.334,0,.361S462.409,323.225,462.179,323.2Z" transform="translate(-451.433 -321.577)" fill="#fff"/>
      <path id="路径_47669-5" data-name="路径 47669" d="M444.507,339.948a.219.219,0,0,0-.215-.216.216.216,0,0,0-.217.214.221.221,0,0,0,.216.217A.216.216,0,0,0,444.507,339.948Z" transform="translate(-442.927 -329.42)" fill="#fff"/>
      <path id="路径_47670-5" data-name="路径 47670" d="M451.564,343.721a.3.3,0,0,0-.291-.293.292.292,0,0,0-.293.291.3.3,0,0,0,.291.291A.29.29,0,0,0,451.564,343.721Z" transform="translate(-446.203 -331.173)" fill="#fff"/>
      <path id="路径_47671-5" data-name="路径 47671" d="M450.858,345.426c-.249-.027-.246.358,0,.389S451.1,345.456,450.858,345.426Z" transform="translate(-446.057 -332.121)" fill="#fff"/>
      <path id="路径_47672-5" data-name="路径 47672" d="M461.628,340.437a.289.289,0,0,0-.283-.281.281.281,0,0,0-.284.28.292.292,0,0,0,.282.285A.285.285,0,0,0,461.628,340.437Z" transform="translate(-450.985 -329.621)" fill="#fff"/>
      <path id="路径_47673-5" data-name="路径 47673" d="M453.945,336.237a4.878,4.878,0,0,0-.589-1.108c-.042-.052-.136-.026-.115.05.109.4.287.785.433,1.174a3.07,3.07,0,0,0,.41.945c.056.064.149.006.154-.066A2.356,2.356,0,0,0,453.945,336.237Z" transform="translate(-447.273 -327.224)" fill="#fff"/>
      <path id="路径_47674-5" data-name="路径 47674" d="M448.814,330.721c-.085-.03-.182-.168-.241-.234-.126-.136-.255-.269-.38-.407-.179-.2-.361-.567-.642-.589a.058.058,0,0,0-.058.044c-.043.31.363.592.566.789a1.264,1.264,0,0,0,.752.429A.016.016,0,0,0,448.814,330.721Z" transform="translate(-444.547 -324.562)" fill="#fff"/>
      <path id="路径_47675-5" data-name="路径 47675" d="M450.789,327.582a1.809,1.809,0,0,0-.223-.8.084.084,0,0,0-.152.02,1.589,1.589,0,0,0,.074.743c.067.3.14.594.229.885a.06.06,0,0,0,.118-.017A3.252,3.252,0,0,0,450.789,327.582Z" transform="translate(-445.923 -323.258)" fill="#fff"/>
      <path id="路径_47676-5" data-name="路径 47676" d="M453.625,330.407s0,.007,0,.007S453.63,330.407,453.625,330.407Z" transform="translate(-447.456 -324.997)" fill="#fff"/>
      <path id="路径_47677-5" data-name="路径 47677" d="M454.33,327.224a5.813,5.813,0,0,0-.91,1.6c-.063.137.132.257.209.117.29-.528.627-1.021.93-1.539A.146.146,0,0,0,454.33,327.224Z" transform="translate(-447.354 -323.467)" fill="#fff"/>
      <path id="路径_47678-5" data-name="路径 47678" d="M456.524,330.475a3.086,3.086,0,0,0-1.467.534c-.057.049.008.119.066.112a14.805,14.805,0,0,0,1.472-.389C456.765,330.69,456.692,330.446,456.524,330.475Z" transform="translate(-448.126 -325.028)" fill="#fff"/>
      <path id="路径_47679-5" data-name="路径 47679" d="M448.02,333.751c-.242.127-.486.248-.725.376-.181.1-.488.213-.532.434a.091.091,0,0,0,.086.111.367.367,0,0,0,.266-.1c.125-.085.257-.16.391-.233a4.639,4.639,0,0,0,.651-.412C448.26,333.842,448.126,333.694,448.02,333.751Z" transform="translate(-444.201 -326.577)" fill="#fff"/>
      <path id="路径_47680-5" data-name="路径 47680" d="M450.638,335.069a.09.09,0,0,0-.168-.045,4.3,4.3,0,0,0-.327.732c-.095.209-.254.434-.185.67a.072.072,0,0,0,.107.043c.227-.1.3-.375.384-.588A1.706,1.706,0,0,0,450.638,335.069Z" transform="translate(-445.709 -327.166)" fill="#fff"/>
      <path id="路径_47681-5" data-name="路径 47681" d="M456.907,334.394a1.5,1.5,0,0,0-.652-.318,2.2,2.2,0,0,0-.886-.242.024.024,0,0,0-.016.04,4.386,4.386,0,0,0,.789.475c.217.113.491.267.732.168A.074.074,0,0,0,456.907,334.394Z" transform="translate(-448.274 -326.622)" fill="#fff"/>
    </g>
    <g id="组_10802" data-name="组 10802" transform="translate(193.645 469.933)" opacity="0.7">
      <path id="路径_47649-6" data-name="路径 47649" d="M452.722,333.767c.04-3.307.355-6.671.255-9.968a.18.18,0,0,0-.353-.044c-1.051,2.916-.829,6.412-.857,9.467-.031,3.365-.376,6.614-.651,9.95-.039.5.7.555.832.111C452.864,340.306,452.685,336.845,452.722,333.767Z" transform="translate(-441.513 -319.97)" fill="#fff"/>
      <path id="路径_47650-6" data-name="路径 47650" d="M460.68,325.466c-1.894,1.323-3.473,3.182-5.229,4.691-1.669,1.435-3.334,2.88-5.034,4.281-.532.437-6.313,4.964-4.9,5.626.637.3,1.215-.84,1.547-1.192a44.483,44.483,0,0,1,3.9-3.484c1.623-1.363,3.176-2.8,4.756-4.209,1.8-1.6,4.089-3.334,5.109-5.571C460.86,325.523,460.772,325.4,460.68,325.466Z" transform="translate(-441.752 -319.896)" fill="#fff"/>
      <path id="路径_47651-6" data-name="路径 47651" d="M461.277,339.807c-1.3-1.08-2.693-2.015-3.959-3.14-1.392-1.231-2.686-2.573-3.971-3.916-2.148-2.248-4.447-5.4-7.338-6.708-.107-.048-.255.06-.175.179a26.036,26.036,0,0,0,2.992,3.265c1.275,1.327,2.522,2.68,3.782,4.02,2.359,2.5,4.988,5.478,8.094,7.063C461.167,340.8,461.712,340.174,461.277,339.807Z" transform="translate(-441.73 -319.872)" fill="#fff"/>
      <path id="路径_47652-6" data-name="路径 47652" d="M455.026,323.223a8.464,8.464,0,0,0-2.227,2.5c-.417-.7-.708-1.454-1.152-2.142a.324.324,0,0,0-.588.252,7.908,7.908,0,0,0,1.368,2.869.433.433,0,0,0,.738-.008c.733-1,1.823-2.048,2.115-3.283A.173.173,0,0,0,455.026,323.223Z" transform="translate(-441.516 -319.988)" fill="#fff"/>
      <path id="路径_47653-6" data-name="路径 47653" d="M460.583,327.268a15.683,15.683,0,0,1-1.834.033,8.634,8.634,0,0,0,.089-2.555c-.028-.191-.278-.137-.332,0a20.423,20.423,0,0,0-.718,2.851.462.462,0,0,0,.434.568,9.827,9.827,0,0,0,2.359.038C461.17,328.139,461.191,327.227,460.583,327.268Z" transform="translate(-441.24 -319.93)" fill="#fff"/>
      <path id="路径_47654-6" data-name="路径 47654" d="M447.494,324.994c-.234-.471-.859-.114-.787.332a13.088,13.088,0,0,1,.6,2.556,13.263,13.263,0,0,0-2.213.157.127.127,0,0,0-.03.233,4.939,4.939,0,0,0,2.619.4.426.426,0,0,0,.4-.309A5.442,5.442,0,0,0,447.494,324.994Z" transform="translate(-441.763 -319.923)" fill="#fff"/>
      <path id="路径_47655-6" data-name="路径 47655" d="M447.4,339.393c.041-.65.155-1.291.219-1.937a.416.416,0,0,0-.414-.415,13.6,13.6,0,0,0-1.527.14c-.458.071-1.288.359-1.727.147a.054.054,0,0,0-.052.095,4.95,4.95,0,0,0,2.807.439c-.191.944-.463,2.1.033,2.861a.231.231,0,0,0,.392,0A3.3,3.3,0,0,0,447.4,339.393Z" transform="translate(-441.81 -319.421)" fill="#fff"/>
      <path id="路径_47656-6" data-name="路径 47656" d="M454.609,341.641a3.5,3.5,0,0,0-2.89-1.749,2.891,2.891,0,0,0-2.431,2.034c0,.025.021.035.041.033.965-.179,1.486-1.4,2.6-1.215.935.153,1.522,1.09,2.454,1.191A.234.234,0,0,0,454.609,341.641Z" transform="translate(-441.588 -319.304)" fill="#fff"/>
      <path id="路径_47657-6" data-name="路径 47657" d="M461.664,337.628c-.809-.254-2.279-.407-2.94.271a1.791,1.791,0,0,0-.38,1.081,4.2,4.2,0,0,0,0,1.835.116.116,0,0,0,.209.029c.444-.662.156-1.727.733-2.314.162-.165.478-.12.683-.12.526,0,1.056.15,1.578.112A.457.457,0,0,0,461.664,337.628Z" transform="translate(-441.221 -319.405)" fill="#fff"/>
      <path id="路径_47658-6" data-name="路径 47658" d="M462.057,332.507a64.34,64.34,0,0,0-9-.054c-1.567.031-3.131.024-4.694-.068-1.608-.1-3.285-.594-4.889-.448a.147.147,0,0,0-.07.272c2.164,1.62,6.047,1.308,8.6,1.316,3.358.008,6.7-.15,10.055.051C462.757,333.619,462.722,332.588,462.057,332.507Z" transform="translate(-441.832 -319.631)" fill="#fff"/>
      <path id="路径_47659-6" data-name="路径 47659" d="M446.117,332.108a2.46,2.46,0,0,0-.942-.857c-.322-.22-.774-.579-1.188-.458a.07.07,0,0,0-.05.049c-.124.614.765,1.043,1.149,1.365.094.078.385.262.307.4-.213.382-.817.453-1.1.769a.306.306,0,0,0,.218.516C445.368,333.919,446.538,333.043,446.117,332.108Z" transform="translate(-441.808 -319.678)" fill="#fff"/>
      <path id="路径_47660-6" data-name="路径 47660" d="M461.077,331.088a2.456,2.456,0,0,0-2.441,1.678c-.331.967.856,2.5,1.875,2.013a.341.341,0,0,0,.119-.462c-.266-.6-1.279-.559-1.071-1.421.19-.771,1.1-1,1.611-1.473A.2.2,0,0,0,461.077,331.088Z" transform="translate(-441.207 -319.666)" fill="#fff"/>
      <path id="路径_47661-6" data-name="路径 47661" d="M462.724,332.479c-.646-.078-.642.935,0,1.011S463.364,332.552,462.724,332.479Z" transform="translate(-441.057 -319.608)" fill="#fff"/>
      <path id="路径_47662-6" data-name="路径 47662" d="M442.7,331.636a.436.436,0,0,0-.8.222.662.662,0,0,0,.069.277.3.3,0,0,0,.261.147h.024A.437.437,0,0,0,442.7,331.636Z" transform="translate(-441.891 -319.65)" fill="#fff"/>
      <path id="路径_47663-6" data-name="路径 47663" d="M445.248,325.167a.431.431,0,0,0-.521.523.424.424,0,1,0,.521-.523Z" transform="translate(-441.775 -319.908)" fill="#fff"/>
      <path id="路径_47664-6" data-name="路径 47664" d="M443.79,324.078c-.448-.049-.443.647,0,.7S444.23,324.132,443.79,324.078Z" transform="translate(-441.827 -319.952)" fill="#fff"/>
      <path id="路径_47665-6" data-name="路径 47665" d="M453.317,322.521v-.036a.508.508,0,0,0-1-.132.128.128,0,0,0-.01.036.511.511,0,1,0,1.005.132Z" transform="translate(-441.465 -320.038)" fill="#fff"/>
      <path id="路径_47666-6" data-name="路径 47666" d="M452.94,320.117c-.453-.053-.45.661,0,.711S453.392,320.171,452.94,320.117Z" transform="translate(-441.452 -320.114)" fill="#fff"/>
      <path id="路径_47667-6" data-name="路径 47667" d="M461.172,324.421a.426.426,0,0,0-.5.07c-.006,0-.012.012-.022.015a.382.382,0,0,0-.056.462l.019.021a.43.43,0,0,0,.354.2.41.41,0,0,0,.4-.3A.415.415,0,0,0,461.172,324.421Z" transform="translate(-441.127 -319.94)" fill="#fff"/>
      <path id="路径_47668-6" data-name="路径 47668" d="M462.35,323.2c-.461-.057-.456.662,0,.714S462.806,323.252,462.35,323.2Z" transform="translate(-441.067 -319.988)" fill="#fff"/>
      <path id="路径_47669-6" data-name="路径 47669" d="M444.931,340.161a.435.435,0,0,0-.425-.428.428.428,0,0,0-.431.425.437.437,0,0,0,.428.43A.428.428,0,0,0,444.931,340.161Z" transform="translate(-441.802 -319.31)" fill="#fff"/>
      <path id="路径_47670-6" data-name="路径 47670" d="M452.137,344.009a.6.6,0,0,0-.577-.58.579.579,0,0,0-.58.577.586.586,0,0,0,.576.576A.575.575,0,0,0,452.137,344.009Z" transform="translate(-441.519 -319.159)" fill="#fff"/>
      <path id="路径_47671-6" data-name="路径 47671" d="M451.041,345.427c-.492-.053-.487.71,0,.77S451.526,345.487,451.041,345.427Z" transform="translate(-441.531 -319.077)" fill="#fff"/>
      <path id="路径_47672-6" data-name="路径 47672" d="M462.183,340.714a.572.572,0,0,0-.56-.557.556.556,0,0,0-.562.555.578.578,0,0,0,.558.564A.564.564,0,0,0,462.183,340.714Z" transform="translate(-441.105 -319.293)" fill="#fff"/>
      <path id="路径_47673-6" data-name="路径 47673" d="M454.638,337.349a9.665,9.665,0,0,0-1.167-2.193c-.082-.1-.269-.051-.228.1.217.8.568,1.554.857,2.326a6.081,6.081,0,0,0,.812,1.872c.11.126.3.012.3-.131A4.667,4.667,0,0,0,454.638,337.349Z" transform="translate(-441.426 -319.5)" fill="#fff"/>
      <path id="路径_47674-6" data-name="路径 47674" d="M450.113,331.928c-.168-.06-.36-.332-.478-.464-.25-.269-.5-.533-.753-.807-.354-.387-.715-1.122-1.272-1.166a.114.114,0,0,0-.116.088c-.084.613.718,1.172,1.12,1.562a2.5,2.5,0,0,0,1.49.849A.032.032,0,0,0,450.113,331.928Z" transform="translate(-441.662 -319.73)" fill="#fff"/>
      <path id="路径_47675-6" data-name="路径 47675" d="M451.181,328.407a3.582,3.582,0,0,0-.442-1.586.166.166,0,0,0-.3.039,3.148,3.148,0,0,0,.147,1.471c.132.586.278,1.176.454,1.752a.119.119,0,0,0,.233-.033A6.438,6.438,0,0,0,451.181,328.407Z" transform="translate(-441.543 -319.843)" fill="#fff"/>
      <path id="路径_47676-6" data-name="路径 47676" d="M453.628,330.407c-.007,0-.008.013,0,.013S453.638,330.407,453.628,330.407Z" transform="translate(-441.41 -319.693)" fill="#fff"/>
      <path id="路径_47677-6" data-name="路径 47677" d="M455.234,327.266a11.511,11.511,0,0,0-1.8,3.163c-.125.272.262.508.413.232.575-1.046,1.242-2.023,1.842-3.048A.29.29,0,0,0,455.234,327.266Z" transform="translate(-441.419 -319.825)" fill="#fff"/>
      <path id="路径_47678-6" data-name="路径 47678" d="M457.985,330.477a6.112,6.112,0,0,0-2.906,1.058c-.114.1.016.235.13.222a29.31,29.31,0,0,0,2.915-.77C458.462,330.9,458.316,330.42,457.985,330.477Z" transform="translate(-441.352 -319.69)" fill="#fff"/>
      <path id="路径_47679-6" data-name="路径 47679" d="M449.254,333.764c-.479.252-.962.49-1.437.745-.358.19-.966.423-1.053.859a.179.179,0,0,0,.171.221.726.726,0,0,0,.527-.2c.248-.167.509-.316.773-.461a9.21,9.21,0,0,0,1.29-.816C449.731,333.943,449.465,333.651,449.254,333.764Z" transform="translate(-441.691 -319.556)" fill="#fff"/>
      <path id="路径_47680-6" data-name="路径 47680" d="M451.321,335.157a.179.179,0,0,0-.333-.088,8.519,8.519,0,0,0-.649,1.449c-.187.414-.5.859-.366,1.326a.143.143,0,0,0,.211.085c.449-.2.587-.742.761-1.165A3.379,3.379,0,0,0,451.321,335.157Z" transform="translate(-441.561 -319.505)" fill="#fff"/>
      <path id="路径_47681-6" data-name="路径 47681" d="M458.438,334.945a2.974,2.974,0,0,0-1.291-.631,4.357,4.357,0,0,0-1.754-.48.047.047,0,0,0-.031.08,8.678,8.678,0,0,0,1.563.941c.43.224.972.529,1.45.332A.147.147,0,0,0,458.438,334.945Z" transform="translate(-441.34 -319.552)" fill="#fff"/>
    </g>
    <g id="组_10803" data-name="组 10803" transform="matrix(0.819, 0.574, -0.574, 0.819, 133.807, 231.546)">
      <path id="路径_47649-7" data-name="路径 47649" d="M452.722,333.767c.04-3.307.355-6.671.255-9.968a.18.18,0,0,0-.353-.044c-1.051,2.916-.829,6.412-.857,9.467-.031,3.365-.376,6.614-.651,9.95-.039.5.7.555.832.111C452.864,340.306,452.685,336.845,452.722,333.767Z" transform="translate(-441.513 -319.97)" fill="#fff"/>
      <path id="路径_47650-7" data-name="路径 47650" d="M460.68,325.466c-1.894,1.323-3.473,3.182-5.229,4.691-1.669,1.435-3.334,2.88-5.034,4.281-.532.437-6.313,4.964-4.9,5.626.637.3,1.215-.84,1.547-1.192a44.483,44.483,0,0,1,3.9-3.484c1.623-1.363,3.176-2.8,4.756-4.209,1.8-1.6,4.089-3.334,5.109-5.571C460.86,325.523,460.772,325.4,460.68,325.466Z" transform="translate(-441.752 -319.896)" fill="#fff"/>
      <path id="路径_47651-7" data-name="路径 47651" d="M461.277,339.807c-1.3-1.08-2.693-2.015-3.959-3.14-1.392-1.231-2.686-2.573-3.971-3.916-2.148-2.248-4.447-5.4-7.338-6.708-.107-.048-.255.06-.175.179a26.036,26.036,0,0,0,2.992,3.265c1.275,1.327,2.522,2.68,3.782,4.02,2.359,2.5,4.988,5.478,8.094,7.063C461.167,340.8,461.712,340.174,461.277,339.807Z" transform="translate(-441.73 -319.872)" fill="#fff"/>
      <path id="路径_47652-7" data-name="路径 47652" d="M455.026,323.223a8.464,8.464,0,0,0-2.227,2.5c-.417-.7-.708-1.454-1.152-2.142a.324.324,0,0,0-.588.252,7.908,7.908,0,0,0,1.368,2.869.433.433,0,0,0,.738-.008c.733-1,1.823-2.048,2.115-3.283A.173.173,0,0,0,455.026,323.223Z" transform="translate(-441.516 -319.988)" fill="#fff"/>
      <path id="路径_47653-7" data-name="路径 47653" d="M460.583,327.268a15.683,15.683,0,0,1-1.834.033,8.634,8.634,0,0,0,.089-2.555c-.028-.191-.278-.137-.332,0a20.423,20.423,0,0,0-.718,2.851.462.462,0,0,0,.434.568,9.827,9.827,0,0,0,2.359.038C461.17,328.139,461.191,327.227,460.583,327.268Z" transform="translate(-441.24 -319.93)" fill="#fff"/>
      <path id="路径_47654-7" data-name="路径 47654" d="M447.494,324.994c-.234-.471-.859-.114-.787.332a13.088,13.088,0,0,1,.6,2.556,13.263,13.263,0,0,0-2.213.157.127.127,0,0,0-.03.233,4.939,4.939,0,0,0,2.619.4.426.426,0,0,0,.4-.309A5.442,5.442,0,0,0,447.494,324.994Z" transform="translate(-441.763 -319.923)" fill="#fff"/>
      <path id="路径_47655-7" data-name="路径 47655" d="M447.4,339.393c.041-.65.155-1.291.219-1.937a.416.416,0,0,0-.414-.415,13.6,13.6,0,0,0-1.527.14c-.458.071-1.288.359-1.727.147a.054.054,0,0,0-.052.095,4.95,4.95,0,0,0,2.807.439c-.191.944-.463,2.1.033,2.861a.231.231,0,0,0,.392,0A3.3,3.3,0,0,0,447.4,339.393Z" transform="translate(-441.81 -319.421)" fill="#fff"/>
      <path id="路径_47656-7" data-name="路径 47656" d="M454.609,341.641a3.5,3.5,0,0,0-2.89-1.749,2.891,2.891,0,0,0-2.431,2.034c0,.025.021.035.041.033.965-.179,1.486-1.4,2.6-1.215.935.153,1.522,1.09,2.454,1.191A.234.234,0,0,0,454.609,341.641Z" transform="translate(-441.588 -319.304)" fill="#fff"/>
      <path id="路径_47657-7" data-name="路径 47657" d="M461.664,337.628c-.809-.254-2.279-.407-2.94.271a1.791,1.791,0,0,0-.38,1.081,4.2,4.2,0,0,0,0,1.835.116.116,0,0,0,.209.029c.444-.662.156-1.727.733-2.314.162-.165.478-.12.683-.12.526,0,1.056.15,1.578.112A.457.457,0,0,0,461.664,337.628Z" transform="translate(-441.221 -319.405)" fill="#fff"/>
      <path id="路径_47658-7" data-name="路径 47658" d="M462.057,332.507a64.34,64.34,0,0,0-9-.054c-1.567.031-3.131.024-4.694-.068-1.608-.1-3.285-.594-4.889-.448a.147.147,0,0,0-.07.272c2.164,1.62,6.047,1.308,8.6,1.316,3.358.008,6.7-.15,10.055.051C462.757,333.619,462.722,332.588,462.057,332.507Z" transform="translate(-441.832 -319.631)" fill="#fff"/>
      <path id="路径_47659-7" data-name="路径 47659" d="M446.117,332.108a2.46,2.46,0,0,0-.942-.857c-.322-.22-.774-.579-1.188-.458a.07.07,0,0,0-.05.049c-.124.614.765,1.043,1.149,1.365.094.078.385.262.307.4-.213.382-.817.453-1.1.769a.306.306,0,0,0,.218.516C445.368,333.919,446.538,333.043,446.117,332.108Z" transform="translate(-441.808 -319.678)" fill="#fff"/>
      <path id="路径_47660-7" data-name="路径 47660" d="M461.077,331.088a2.456,2.456,0,0,0-2.441,1.678c-.331.967.856,2.5,1.875,2.013a.341.341,0,0,0,.119-.462c-.266-.6-1.279-.559-1.071-1.421.19-.771,1.1-1,1.611-1.473A.2.2,0,0,0,461.077,331.088Z" transform="translate(-441.207 -319.666)" fill="#fff"/>
      <path id="路径_47661-7" data-name="路径 47661" d="M462.724,332.479c-.646-.078-.642.935,0,1.011S463.364,332.552,462.724,332.479Z" transform="translate(-441.057 -319.608)" fill="#fff"/>
      <path id="路径_47662-7" data-name="路径 47662" d="M442.7,331.636a.436.436,0,0,0-.8.222.662.662,0,0,0,.069.277.3.3,0,0,0,.261.147h.024A.437.437,0,0,0,442.7,331.636Z" transform="translate(-441.891 -319.65)" fill="#fff"/>
      <path id="路径_47663-7" data-name="路径 47663" d="M445.248,325.167a.431.431,0,0,0-.521.523.424.424,0,1,0,.521-.523Z" transform="translate(-441.775 -319.908)" fill="#fff"/>
      <path id="路径_47664-7" data-name="路径 47664" d="M443.79,324.078c-.448-.049-.443.647,0,.7S444.23,324.132,443.79,324.078Z" transform="translate(-441.827 -319.952)" fill="#fff"/>
      <path id="路径_47665-7" data-name="路径 47665" d="M453.317,322.521v-.036a.508.508,0,0,0-1-.132.128.128,0,0,0-.01.036.511.511,0,1,0,1.005.132Z" transform="translate(-441.465 -320.038)" fill="#fff"/>
      <path id="路径_47666-7" data-name="路径 47666" d="M452.94,320.117c-.453-.053-.45.661,0,.711S453.392,320.171,452.94,320.117Z" transform="translate(-441.452 -320.114)" fill="#fff"/>
      <path id="路径_47667-7" data-name="路径 47667" d="M461.172,324.421a.426.426,0,0,0-.5.07c-.006,0-.012.012-.022.015a.382.382,0,0,0-.056.462l.019.021a.43.43,0,0,0,.354.2.41.41,0,0,0,.4-.3A.415.415,0,0,0,461.172,324.421Z" transform="translate(-441.127 -319.94)" fill="#fff"/>
      <path id="路径_47668-7" data-name="路径 47668" d="M462.35,323.2c-.461-.057-.456.662,0,.714S462.806,323.252,462.35,323.2Z" transform="translate(-441.067 -319.988)" fill="#fff"/>
      <path id="路径_47669-7" data-name="路径 47669" d="M444.931,340.161a.435.435,0,0,0-.425-.428.428.428,0,0,0-.431.425.437.437,0,0,0,.428.43A.428.428,0,0,0,444.931,340.161Z" transform="translate(-441.802 -319.31)" fill="#fff"/>
      <path id="路径_47670-7" data-name="路径 47670" d="M452.137,344.009a.6.6,0,0,0-.577-.58.579.579,0,0,0-.58.577.586.586,0,0,0,.576.576A.575.575,0,0,0,452.137,344.009Z" transform="translate(-441.519 -319.159)" fill="#fff"/>
      <path id="路径_47671-7" data-name="路径 47671" d="M451.041,345.427c-.492-.053-.487.71,0,.77S451.526,345.487,451.041,345.427Z" transform="translate(-441.531 -319.077)" fill="#fff"/>
      <path id="路径_47672-7" data-name="路径 47672" d="M462.183,340.714a.572.572,0,0,0-.56-.557.556.556,0,0,0-.562.555.578.578,0,0,0,.558.564A.564.564,0,0,0,462.183,340.714Z" transform="translate(-441.105 -319.293)" fill="#fff"/>
      <path id="路径_47673-7" data-name="路径 47673" d="M454.638,337.349a9.665,9.665,0,0,0-1.167-2.193c-.082-.1-.269-.051-.228.1.217.8.568,1.554.857,2.326a6.081,6.081,0,0,0,.812,1.872c.11.126.3.012.3-.131A4.667,4.667,0,0,0,454.638,337.349Z" transform="translate(-441.426 -319.5)" fill="#fff"/>
      <path id="路径_47674-7" data-name="路径 47674" d="M450.113,331.928c-.168-.06-.36-.332-.478-.464-.25-.269-.5-.533-.753-.807-.354-.387-.715-1.122-1.272-1.166a.114.114,0,0,0-.116.088c-.084.613.718,1.172,1.12,1.562a2.5,2.5,0,0,0,1.49.849A.032.032,0,0,0,450.113,331.928Z" transform="translate(-441.662 -319.73)" fill="#fff"/>
      <path id="路径_47675-7" data-name="路径 47675" d="M451.181,328.407a3.582,3.582,0,0,0-.442-1.586.166.166,0,0,0-.3.039,3.148,3.148,0,0,0,.147,1.471c.132.586.278,1.176.454,1.752a.119.119,0,0,0,.233-.033A6.438,6.438,0,0,0,451.181,328.407Z" transform="translate(-441.543 -319.843)" fill="#fff"/>
      <path id="路径_47676-7" data-name="路径 47676" d="M453.628,330.407c-.007,0-.008.013,0,.013S453.638,330.407,453.628,330.407Z" transform="translate(-441.41 -319.693)" fill="#fff"/>
      <path id="路径_47677-7" data-name="路径 47677" d="M455.234,327.266a11.511,11.511,0,0,0-1.8,3.163c-.125.272.262.508.413.232.575-1.046,1.242-2.023,1.842-3.048A.29.29,0,0,0,455.234,327.266Z" transform="translate(-441.419 -319.825)" fill="#fff"/>
      <path id="路径_47678-7" data-name="路径 47678" d="M457.985,330.477a6.112,6.112,0,0,0-2.906,1.058c-.114.1.016.235.13.222a29.31,29.31,0,0,0,2.915-.77C458.462,330.9,458.316,330.42,457.985,330.477Z" transform="translate(-441.352 -319.69)" fill="#fff"/>
      <path id="路径_47679-7" data-name="路径 47679" d="M449.254,333.764c-.479.252-.962.49-1.437.745-.358.19-.966.423-1.053.859a.179.179,0,0,0,.171.221.726.726,0,0,0,.527-.2c.248-.167.509-.316.773-.461a9.21,9.21,0,0,0,1.29-.816C449.731,333.943,449.465,333.651,449.254,333.764Z" transform="translate(-441.691 -319.556)" fill="#fff"/>
      <path id="路径_47680-7" data-name="路径 47680" d="M451.321,335.157a.179.179,0,0,0-.333-.088,8.519,8.519,0,0,0-.649,1.449c-.187.414-.5.859-.366,1.326a.143.143,0,0,0,.211.085c.449-.2.587-.742.761-1.165A3.379,3.379,0,0,0,451.321,335.157Z" transform="translate(-441.561 -319.505)" fill="#fff"/>
      <path id="路径_47681-7" data-name="路径 47681" d="M458.438,334.945a2.974,2.974,0,0,0-1.291-.631,4.357,4.357,0,0,0-1.754-.48.047.047,0,0,0-.031.08,8.678,8.678,0,0,0,1.563.941c.43.224.972.529,1.45.332A.147.147,0,0,0,458.438,334.945Z" transform="translate(-441.34 -319.552)" fill="#fff"/>
    </g>
    <g id="组_10804" data-name="组 10804" transform="matrix(0.819, 0.574, -0.574, 0.819, 367.066, 43.507)" opacity="0.8">
      <path id="路径_47649-8" data-name="路径 47649" d="M453.331,337.607c.055-4.56.489-9.2.352-13.743a.248.248,0,0,0-.486-.06c-1.448,4.02-1.142,8.84-1.181,13.051-.043,4.638-.518,9.119-.9,13.717-.054.686.959.765,1.147.153C453.526,346.622,453.279,341.851,453.331,337.607Z" transform="translate(-437.877 -318.586)" fill="#fff"/>
      <path id="路径_47650-8" data-name="路径 47650" d="M466.507,325.472c-2.611,1.824-4.788,4.387-7.209,6.467-2.3,1.979-4.6,3.971-6.941,5.9-.733.6-8.7,6.843-6.76,7.757.878.413,1.675-1.158,2.133-1.643a61.316,61.316,0,0,1,5.372-4.8c2.237-1.878,4.379-3.863,6.557-5.8,2.476-2.209,5.638-4.6,7.044-7.681C466.755,325.551,466.634,325.385,466.507,325.472Z" transform="translate(-440.411 -317.793)" fill="#fff"/>
      <path id="路径_47651-8" data-name="路径 47651" d="M467.133,345.023c-1.785-1.49-3.713-2.779-5.458-4.329-1.919-1.7-3.7-3.548-5.475-5.4-2.961-3.1-6.131-7.45-10.116-9.248-.148-.066-.352.083-.241.247a35.9,35.9,0,0,0,4.125,4.5c1.758,1.83,3.477,3.7,5.214,5.543,3.252,3.453,6.877,7.552,11.158,9.737C466.981,346.4,467.733,345.529,467.133,345.023Z" transform="translate(-440.185 -317.54)" fill="#fff"/>
      <path id="路径_47652-8" data-name="路径 47652" d="M456.531,323.233a11.669,11.669,0,0,0-3.07,3.453c-.575-.966-.976-2-1.589-2.954a.447.447,0,0,0-.811.347,10.9,10.9,0,0,0,1.886,3.956.6.6,0,0,0,1.018-.012c1.01-1.379,2.513-2.823,2.916-4.527A.238.238,0,0,0,456.531,323.233Z" transform="translate(-437.905 -318.773)" fill="#fff"/>
      <path id="路径_47653-8" data-name="路径 47653" d="M461.648,328.27a21.63,21.63,0,0,1-2.529.046,11.9,11.9,0,0,0,.122-3.522c-.039-.264-.383-.19-.458,0a28.158,28.158,0,0,0-.99,3.931.636.636,0,0,0,.6.784,13.546,13.546,0,0,0,3.252.052C462.456,329.471,462.486,328.212,461.648,328.27Z" transform="translate(-434.98 -318.152)" fill="#fff"/>
      <path id="路径_47654-8" data-name="路径 47654" d="M448.438,325.078c-.323-.649-1.184-.157-1.085.457.2,1.224.871,2.269.831,3.524a18.286,18.286,0,0,0-3.051.217.176.176,0,0,0-.041.321,6.81,6.81,0,0,0,3.611.551.587.587,0,0,0,.55-.426A7.5,7.5,0,0,0,448.438,325.078Z" transform="translate(-440.537 -318.088)" fill="#fff"/>
      <path id="路径_47655-8" data-name="路径 47655" d="M448.74,340.283c.056-.9.214-1.78.3-2.671a.574.574,0,0,0-.571-.573,18.756,18.756,0,0,0-2.105.194c-.631.1-1.775.5-2.381.2a.075.075,0,0,0-.072.131,6.824,6.824,0,0,0,3.871.606c-.263,1.3-.638,2.889.046,3.944a.318.318,0,0,0,.541,0A4.543,4.543,0,0,0,448.74,340.283Z" transform="translate(-441.027 -312.749)" fill="#fff"/>
      <path id="路径_47656-8" data-name="路径 47656" d="M456.623,342.3a4.826,4.826,0,0,0-3.984-2.411,3.985,3.985,0,0,0-3.351,2.8c0,.035.029.049.056.046,1.33-.247,2.049-1.929,3.582-1.675,1.289.211,2.1,1.5,3.383,1.642A.322.322,0,0,0,456.623,342.3Z" transform="translate(-438.672 -311.508)" fill="#fff"/>
      <path id="路径_47657-8" data-name="路径 47657" d="M462.963,337.71c-1.115-.35-3.142-.561-4.053.373a2.47,2.47,0,0,0-.524,1.49,5.787,5.787,0,0,0-.006,2.53.159.159,0,0,0,.288.04c.612-.913.215-2.381,1.01-3.19.224-.228.659-.165.941-.165.725,0,1.455.207,2.176.155A.63.63,0,0,0,462.963,337.71Z" transform="translate(-434.779 -312.587)" fill="#fff"/>
      <path id="路径_47658-8" data-name="路径 47658" d="M469.148,332.733c-4.1-.5-8.3-.159-12.414-.075-2.16.043-4.317.033-6.471-.093-2.217-.132-4.529-.82-6.741-.617a.2.2,0,0,0-.1.375c2.984,2.233,8.337,1.8,11.857,1.814,4.63.011,9.234-.207,13.862.07C470.113,334.266,470.065,332.844,469.148,332.733Z" transform="translate(-441.264 -314.981)" fill="#fff"/>
      <path id="路径_47659-8" data-name="路径 47659" d="M446.947,332.615a3.392,3.392,0,0,0-1.3-1.181c-.444-.3-1.067-.8-1.638-.632a.1.1,0,0,0-.069.068c-.171.847,1.055,1.438,1.584,1.881.129.108.531.362.423.554-.294.527-1.126.624-1.523,1.061a.422.422,0,0,0,.3.712C445.914,335.112,447.527,333.9,446.947,332.615Z" transform="translate(-441.005 -315.478)" fill="#fff"/>
      <path id="路径_47660-8" data-name="路径 47660" d="M462.023,331.1c-1.412-.28-2.933,1.05-3.365,2.314-.456,1.333,1.18,3.44,2.585,2.776a.47.47,0,0,0,.164-.637c-.367-.831-1.764-.771-1.477-1.959.263-1.064,1.514-1.373,2.222-2.031A.28.28,0,0,0,462.023,331.1Z" transform="translate(-434.629 -315.351)" fill="#fff"/>
      <path id="路径_47661-8" data-name="路径 47661" d="M462.907,332.481c-.891-.108-.886,1.289,0,1.393S463.79,332.581,462.907,332.481Z" transform="translate(-433.036 -314.735)" fill="#fff"/>
      <path id="路径_47662-8" data-name="路径 47662" d="M443,331.712a.6.6,0,0,0-1.11.306.912.912,0,0,0,.095.382.42.42,0,0,0,.36.2h.033A.6.6,0,0,0,443,331.712Z" transform="translate(-441.891 -315.188)" fill="#fff"/>
      <path id="路径_47663-8" data-name="路径 47663" d="M445.451,325.172a.594.594,0,0,0-.718.721.585.585,0,1,0,.718-.721Z" transform="translate(-440.663 -317.922)" fill="#fff"/>
      <path id="路径_47664-8" data-name="路径 47664" d="M443.917,324.079c-.617-.067-.611.891,0,.965S444.524,324.154,443.917,324.079Z" transform="translate(-441.21 -318.39)" fill="#fff"/>
      <path id="路径_47665-8" data-name="路径 47665" d="M453.7,322.723v-.05a.7.7,0,0,0-1.372-.182.18.18,0,0,0-.014.05.705.705,0,1,0,1.386.182Z" transform="translate(-437.364 -319.299)" fill="#fff"/>
      <path id="路径_47666-8" data-name="路径 47666" d="M453.068,320.118c-.624-.073-.62.911,0,.98S453.691,320.193,453.068,320.118Z" transform="translate(-437.23 -320.114)" fill="#fff"/>
      <path id="路径_47667-8" data-name="路径 47667" d="M461.411,324.441a.588.588,0,0,0-.687.1c-.008.006-.017.017-.03.02a.526.526,0,0,0-.078.637l.026.029a.593.593,0,0,0,.488.277.566.566,0,0,0,.545-.419A.573.573,0,0,0,461.411,324.441Z" transform="translate(-433.775 -318.263)" fill="#fff"/>
      <path id="路径_47668-8" data-name="路径 47668" d="M462.48,323.2c-.636-.079-.629.913,0,.984S463.109,323.273,462.48,323.2Z" transform="translate(-433.138 -318.772)" fill="#fff"/>
      <path id="路径_47669-8" data-name="路径 47669" d="M445.255,340.324a.6.6,0,0,0-.586-.59.591.591,0,0,0-.594.586.6.6,0,0,0,.59.593A.59.59,0,0,0,445.255,340.324Z" transform="translate(-440.941 -311.578)" fill="#fff"/>
      <path id="路径_47670-8" data-name="路径 47670" d="M452.575,344.229a.82.82,0,0,0-.8-.8.8.8,0,0,0-.8.8.809.809,0,0,0,.794.794A.793.793,0,0,0,452.575,344.229Z" transform="translate(-437.936 -309.97)" fill="#fff"/>
      <path id="路径_47671-8" data-name="路径 47671" d="M451.18,345.428c-.679-.073-.672.979,0,1.062S451.849,345.51,451.18,345.428Z" transform="translate(-438.069 -309.1)" fill="#fff"/>
      <path id="路径_47672-8" data-name="路径 47672" d="M462.608,340.926a.789.789,0,0,0-.772-.768.767.767,0,0,0-.775.765.8.8,0,0,0,.769.778A.778.778,0,0,0,462.608,340.926Z" transform="translate(-433.549 -311.394)" fill="#fff"/>
      <path id="路径_47673-8" data-name="路径 47673" d="M455.169,338.2a13.325,13.325,0,0,0-1.609-3.024c-.114-.142-.37-.07-.315.138.3,1.1.784,2.143,1.181,3.206a8.384,8.384,0,0,0,1.12,2.581c.152.174.408.016.42-.181A6.434,6.434,0,0,0,455.169,338.2Z" transform="translate(-436.953 -313.592)" fill="#fff"/>
      <path id="路径_47674-8" data-name="路径 47674" d="M451.107,332.851c-.231-.083-.5-.458-.659-.64-.344-.37-.7-.735-1.038-1.112-.488-.534-.986-1.547-1.754-1.607a.158.158,0,0,0-.159.121c-.116.845.99,1.616,1.544,2.154a3.452,3.452,0,0,0,2.054,1.171A.044.044,0,0,0,451.107,332.851Z" transform="translate(-439.455 -316.034)" fill="#fff"/>
      <path id="路径_47675-8" data-name="路径 47675" d="M451.481,329.037a4.937,4.937,0,0,0-.61-2.187.229.229,0,0,0-.416.054,4.339,4.339,0,0,0,.2,2.028c.182.808.383,1.622.626,2.415a.165.165,0,0,0,.321-.046A8.874,8.874,0,0,0,451.481,329.037Z" transform="translate(-438.193 -317.231)" fill="#fff"/>
      <path id="路径_47676-8" data-name="路径 47676" d="M453.63,330.407c-.01,0-.011.018,0,.018S453.643,330.407,453.63,330.407Z" transform="translate(-436.786 -315.635)" fill="#fff"/>
      <path id="路径_47677-8" data-name="路径 47677" d="M455.925,327.3a15.871,15.871,0,0,0-2.484,4.361c-.172.374.362.7.57.32.792-1.442,1.712-2.789,2.54-4.2A.4.4,0,0,0,455.925,327.3Z" transform="translate(-436.879 -317.039)" fill="#fff"/>
      <path id="路径_47678-8" data-name="路径 47678" d="M459.1,330.479a8.426,8.426,0,0,0-4.007,1.458c-.156.133.022.324.179.305a40.409,40.409,0,0,0,4.019-1.062C459.76,331.068,459.559,330.4,459.1,330.479Z" transform="translate(-436.171 -315.607)" fill="#fff"/>
      <path id="路径_47679-8" data-name="路径 47679" d="M450.2,333.774c-.66.347-1.326.676-1.981,1.028-.494.261-1.332.583-1.452,1.184a.247.247,0,0,0,.235.3,1,1,0,0,0,.726-.281c.341-.231.7-.436,1.066-.635a12.7,12.7,0,0,0,1.779-1.125C450.856,334.021,450.49,333.617,450.2,333.774Z" transform="translate(-439.772 -314.186)" fill="#fff"/>
      <path id="路径_47680-8" data-name="路径 47680" d="M451.844,335.224a.247.247,0,0,0-.459-.122,11.745,11.745,0,0,0-.894,2c-.258.571-.693,1.184-.505,1.828a.2.2,0,0,0,.291.118c.618-.27.809-1.023,1.049-1.606A4.658,4.658,0,0,0,451.844,335.224Z" transform="translate(-438.388 -313.645)" fill="#fff"/>
      <path id="路径_47681-8" data-name="路径 47681" d="M459.608,335.366a4.1,4.1,0,0,0-1.78-.87,6.007,6.007,0,0,0-2.418-.662.065.065,0,0,0-.043.111,11.967,11.967,0,0,0,2.154,1.3c.593.309,1.34.729,2,.458A.2.2,0,0,0,459.608,335.366Z" transform="translate(-436.036 -314.145)" fill="#fff"/>
    </g>
    <g id="组_10805" data-name="组 10805" transform="matrix(0.819, 0.574, -0.574, 0.819, 1042.827, 435.612)">
      <path id="路径_47649-9" data-name="路径 47649" d="M452.243,330.742c.028-2.321.249-4.681.179-6.994a.126.126,0,0,0-.248-.031c-.737,2.046-.581,4.5-.6,6.642-.022,2.361-.264,4.641-.457,6.981-.028.349.488.389.584.078A24.255,24.255,0,0,0,452.243,330.742Z" transform="translate(-444.378 -321.061)" fill="#fff"/>
      <path id="路径_47650-9" data-name="路径 47650" d="M456.089,325.46c-1.329.928-2.437,2.233-3.669,3.291-1.171,1.007-2.339,2.021-3.532,3-.373.307-4.43,3.483-3.44,3.948.447.21.852-.589,1.085-.836a31.2,31.2,0,0,1,2.734-2.445c1.139-.956,2.228-1.966,3.337-2.953,1.26-1.124,2.869-2.34,3.585-3.909C456.216,325.5,456.154,325.416,456.089,325.46Z" transform="translate(-442.808 -321.552)" fill="#fff"/>
      <path id="路径_47651-9" data-name="路径 47651" d="M456.663,335.7c-.909-.758-1.89-1.414-2.778-2.2-.977-.864-1.885-1.806-2.787-2.748-1.507-1.577-3.12-3.792-5.149-4.707-.075-.034-.179.042-.123.126a18.265,18.265,0,0,0,2.1,2.291c.895.931,1.77,1.881,2.653,2.821,1.655,1.757,3.5,3.843,5.679,4.956C456.586,336.4,456.968,335.954,456.663,335.7Z" transform="translate(-442.948 -321.709)" fill="#fff"/>
      <path id="路径_47652-9" data-name="路径 47652" d="M453.84,323.215a5.939,5.939,0,0,0-1.562,1.757c-.293-.492-.5-1.02-.809-1.5a.228.228,0,0,0-.413.177,5.548,5.548,0,0,0,.96,2.013.3.3,0,0,0,.518-.006,7.236,7.236,0,0,0,1.484-2.3A.121.121,0,0,0,453.84,323.215Z" transform="translate(-444.36 -320.945)" fill="#fff"/>
      <path id="路径_47653-9" data-name="路径 47653" d="M459.745,326.479a11.014,11.014,0,0,1-1.287.023,6.057,6.057,0,0,0,.062-1.793c-.02-.134-.2-.1-.233,0a14.329,14.329,0,0,0-.5,2,.324.324,0,0,0,.3.4,6.9,6.9,0,0,0,1.655.026C460.156,327.09,460.172,326.45,459.745,326.479Z" transform="translate(-446.173 -321.33)" fill="#fff"/>
      <path id="路径_47654-9" data-name="路径 47654" d="M446.751,324.928c-.164-.33-.6-.08-.552.233a9.181,9.181,0,0,1,.423,1.793,9.307,9.307,0,0,0-1.553.11.089.089,0,0,0-.021.164,3.465,3.465,0,0,0,1.838.28.3.3,0,0,0,.28-.217A3.818,3.818,0,0,0,446.751,324.928Z" transform="translate(-442.73 -321.37)" fill="#fff"/>
      <path id="路径_47655-9" data-name="路径 47655" d="M446.351,338.691c.028-.456.109-.906.153-1.359a.292.292,0,0,0-.291-.291,9.536,9.536,0,0,0-1.072.1c-.321.05-.9.252-1.212.1a.038.038,0,0,0-.037.067,3.473,3.473,0,0,0,1.97.308,2.863,2.863,0,0,0,.023,2.007.162.162,0,0,0,.275,0A2.313,2.313,0,0,0,446.351,338.691Z" transform="translate(-442.426 -324.677)" fill="#fff"/>
      <path id="路径_47656-9" data-name="路径 47656" d="M453.021,341.119a2.456,2.456,0,0,0-2.028-1.227,2.028,2.028,0,0,0-1.706,1.427c0,.018.015.025.029.023.677-.126,1.043-.982,1.823-.852.656.107,1.068.765,1.722.836A.164.164,0,0,0,453.021,341.119Z" transform="translate(-443.885 -325.446)" fill="#fff"/>
      <path id="路径_47657-9" data-name="路径 47657" d="M460.641,337.564a2.289,2.289,0,0,0-2.063.19,1.257,1.257,0,0,0-.267.758,2.945,2.945,0,0,0,0,1.288.081.081,0,0,0,.147.02c.311-.464.11-1.212.514-1.624.114-.116.335-.084.479-.084.369,0,.741.105,1.107.079A.321.321,0,0,0,460.641,337.564Z" transform="translate(-446.297 -324.778)" fill="#fff"/>
      <path id="路径_47658-9" data-name="路径 47658" d="M456.471,332.33a45.144,45.144,0,0,0-6.318-.038c-1.1.022-2.2.017-3.294-.047a23.413,23.413,0,0,0-3.431-.314.1.1,0,0,0-.049.191c1.519,1.137,4.243.918,6.035.923,2.356.006,4.7-.105,7.055.036C456.962,333.11,456.937,332.386,456.471,332.33Z" transform="translate(-442.279 -323.295)" fill="#fff"/>
      <path id="路径_47659-9" data-name="路径 47659" d="M445.464,331.708a1.726,1.726,0,0,0-.661-.6c-.226-.154-.543-.406-.834-.321a.049.049,0,0,0-.035.034c-.087.431.537.732.806.957.066.055.27.184.215.282-.15.268-.573.318-.775.54a.215.215,0,0,0,.153.362C444.938,332.979,445.759,332.364,445.464,331.708Z" transform="translate(-442.439 -322.987)" fill="#fff"/>
      <path id="路径_47660-9" data-name="路径 47660" d="M460.332,331.08a1.723,1.723,0,0,0-1.713,1.177c-.232.679.6,1.751,1.315,1.413a.239.239,0,0,0,.083-.324c-.187-.423-.9-.392-.752-1,.134-.541.771-.7,1.131-1.034A.142.142,0,0,0,460.332,331.08Z" transform="translate(-446.39 -323.065)" fill="#fff"/>
      <path id="路径_47661-9" data-name="路径 47661" d="M462.58,332.478c-.454-.055-.451.656,0,.709S463.029,332.529,462.58,332.478Z" transform="translate(-447.377 -323.447)" fill="#fff"/>
      <path id="路径_47662-9" data-name="路径 47662" d="M442.457,331.576a.306.306,0,0,0-.565.156.464.464,0,0,0,.048.194.214.214,0,0,0,.183.1h.017A.306.306,0,0,0,442.457,331.576Z" transform="translate(-441.891 -323.166)" fill="#fff"/>
      <path id="路径_47663-9" data-name="路径 47663" d="M445.088,325.162a.3.3,0,0,0-.365.367.3.3,0,1,0,.365-.367Z" transform="translate(-442.652 -321.473)" fill="#fff"/>
      <path id="路径_47664-9" data-name="路径 47664" d="M443.69,324.077c-.314-.034-.311.454,0,.491S444,324.115,443.69,324.077Z" transform="translate(-442.313 -321.182)" fill="#fff"/>
      <path id="路径_47665-9" data-name="路径 47665" d="M453.012,322.362v-.026a.357.357,0,0,0-.7-.093.092.092,0,0,0-.007.025.359.359,0,1,0,.706.093Z" transform="translate(-444.696 -320.619)" fill="#fff"/>
      <path id="路径_47666-9" data-name="路径 47666" d="M452.839,320.116c-.318-.037-.316.464,0,.5S453.156,320.154,452.839,320.116Z" transform="translate(-444.779 -320.114)" fill="#fff"/>
      <path id="路径_47667-9" data-name="路径 47667" d="M460.984,324.405a.3.3,0,0,0-.35.049s-.009.009-.015.01a.268.268,0,0,0-.04.324l.013.015a.3.3,0,0,0,.248.141.288.288,0,0,0,.278-.213A.292.292,0,0,0,460.984,324.405Z" transform="translate(-446.919 -321.261)" fill="#fff"/>
      <path id="路径_47668-9" data-name="路径 47668" d="M462.247,323.2c-.324-.04-.32.465,0,.5S462.567,323.236,462.247,323.2Z" transform="translate(-447.314 -320.946)" fill="#fff"/>
      <path id="路径_47669-9" data-name="路径 47669" d="M444.675,340.033a.3.3,0,0,0-.3-.3.3.3,0,0,0-.3.3.307.307,0,0,0,.3.3A.3.3,0,0,0,444.675,340.033Z" transform="translate(-442.48 -325.403)" fill="#fff"/>
      <path id="路径_47670-9" data-name="路径 47670" d="M451.792,343.835a.417.417,0,0,0-.4-.407.406.406,0,0,0-.407.4.412.412,0,0,0,.4.4A.4.4,0,0,0,451.792,343.835Z" transform="translate(-444.341 -326.399)" fill="#fff"/>
      <path id="路径_47671-9" data-name="路径 47671" d="M450.931,345.426c-.345-.037-.342.5,0,.54S451.271,345.468,450.931,345.426Z" transform="translate(-444.258 -326.938)" fill="#fff"/>
      <path id="路径_47672-9" data-name="路径 47672" d="M461.849,340.547a.4.4,0,0,0-.393-.391.39.39,0,0,0-.395.389.406.406,0,0,0,.392.4A.4.4,0,0,0,461.849,340.547Z" transform="translate(-447.059 -325.517)" fill="#fff"/>
      <path id="路径_47673-9" data-name="路径 47673" d="M454.22,336.679a6.784,6.784,0,0,0-.819-1.539c-.058-.072-.188-.036-.16.07.152.558.4,1.09.6,1.632a4.268,4.268,0,0,0,.57,1.314c.077.089.207.008.214-.092A3.275,3.275,0,0,0,454.22,336.679Z" transform="translate(-444.95 -324.155)" fill="#fff"/>
      <path id="路径_47674-9" data-name="路径 47674" d="M449.331,331.2c-.118-.042-.253-.233-.335-.326-.175-.189-.354-.374-.528-.566-.248-.272-.5-.787-.893-.818a.08.08,0,0,0-.081.061c-.059.43.5.822.786,1.1a1.757,1.757,0,0,0,1.045.6A.022.022,0,0,0,449.331,331.2Z" transform="translate(-443.4 -322.642)" fill="#fff"/>
      <path id="路径_47675-9" data-name="路径 47675" d="M450.945,327.91a2.514,2.514,0,0,0-.31-1.113.117.117,0,0,0-.212.028,2.208,2.208,0,0,0,.1,1.032c.093.411.2.825.318,1.229a.084.084,0,0,0,.164-.023A4.516,4.516,0,0,0,450.945,327.91Z" transform="translate(-444.182 -321.901)" fill="#fff"/>
      <path id="路径_47676-9" data-name="路径 47676" d="M453.627,330.407c-.005,0-.006.009,0,.009S453.633,330.407,453.627,330.407Z" transform="translate(-445.054 -322.889)" fill="#fff"/>
      <path id="路径_47677-9" data-name="路径 47677" d="M454.689,327.241a8.078,8.078,0,0,0-1.264,2.22c-.088.191.184.357.29.163.4-.734.871-1.419,1.293-2.139A.2.2,0,0,0,454.689,327.241Z" transform="translate(-444.996 -322.02)" fill="#fff"/>
      <path id="路径_47678-9" data-name="路径 47678" d="M457.1,330.476a4.288,4.288,0,0,0-2.039.742c-.08.068.011.165.091.155a20.56,20.56,0,0,0,2.045-.54C457.439,330.775,457.337,330.436,457.1,330.476Z" transform="translate(-445.434 -322.907)" fill="#fff"/>
      <path id="路径_47679-9" data-name="路径 47679" d="M448.51,333.756c-.336.177-.675.344-1.008.523-.251.133-.678.3-.739.6a.126.126,0,0,0,.12.155.509.509,0,0,0,.37-.143c.174-.118.357-.222.543-.323A6.459,6.459,0,0,0,448.7,334C448.845,333.882,448.658,333.677,448.51,333.756Z" transform="translate(-443.204 -323.787)" fill="#fff"/>
      <path id="路径_47680-9" data-name="路径 47680" d="M450.909,335.1a.125.125,0,0,0-.234-.062,5.972,5.972,0,0,0-.455,1.017c-.131.291-.353.6-.257.93a.1.1,0,0,0,.148.06c.315-.137.412-.521.534-.817A2.371,2.371,0,0,0,450.909,335.1Z" transform="translate(-444.061 -324.122)" fill="#fff"/>
      <path id="路径_47681-9" data-name="路径 47681" d="M457.516,334.613a2.087,2.087,0,0,0-.906-.443,3.058,3.058,0,0,0-1.231-.337.033.033,0,0,0-.022.056,6.091,6.091,0,0,0,1.1.66c.3.157.682.371,1.018.233A.1.1,0,0,0,457.516,334.613Z" transform="translate(-445.519 -323.813)" fill="#fff"/>
    </g>
  </g>
</svg>
